<svg width="50" height="39" viewBox="0 0 50 39" fill="none" xmlns="http://www.w3.org/2000/svg">
<g clip-path="url(#clip0_1191_2872)">
<path d="M49.999 30.744C49.999 35.0225 46.515 38.5065 42.2365 38.5065H0.00170898V7.76247C0.00170898 3.48399 3.4857 0 7.76417 0H49.999V30.744Z" fill="white"/>
<path d="M36.2462 22.8593H39.455C39.5468 22.8593 39.7607 22.8288 39.8525 22.8288C40.4638 22.7066 40.9833 22.1564 40.9833 21.3924C40.9833 20.659 40.4638 20.1089 39.8525 19.9561C39.7607 19.9255 39.5775 19.9255 39.4552 19.9255H36.2464V22.8593H36.2462Z" fill="url(#paint0_linear_1191_2872)"/>
<path d="M39.0885 2.59753C36.0324 2.59753 33.5263 5.07318 33.5263 8.15973V13.9358H41.3806C41.564 13.9358 41.7778 13.9358 41.9305 13.9662C43.7031 14.058 45.0173 14.9748 45.0173 16.5638C45.0173 17.8168 44.131 18.8865 42.4807 19.1005V19.1615C44.2837 19.2837 45.6591 20.2923 45.6591 21.8508C45.6591 23.5317 44.131 24.6319 42.1139 24.6319H33.4958V35.9395H41.6556C44.7116 35.9395 47.2178 33.464 47.2178 30.3773V2.59753H39.0885Z" fill="url(#paint1_linear_1191_2872)"/>
<path d="M40.5858 16.9307C40.5858 16.1972 40.0663 15.7081 39.455 15.6163C39.3941 15.6163 39.2412 15.5859 39.1496 15.5859H36.2462V18.2752H39.1496C39.2414 18.2752 39.4246 18.2752 39.4552 18.2447C40.0665 18.1529 40.586 17.6641 40.586 16.9305L40.5858 16.9307Z" fill="url(#paint2_linear_1191_2872)"/>
<path d="M8.34437 2.59753C5.28829 2.59753 2.78218 5.07318 2.78218 8.15973V21.8816C4.34088 22.6455 5.96052 23.1345 7.58035 23.1345C9.50564 23.1345 10.5446 21.9732 10.5446 20.3841V13.9051H15.3122V20.3534C15.3122 22.8593 13.7536 24.9071 8.46663 24.9071C5.25782 24.9071 2.75171 24.204 2.75171 24.204V35.9088H10.9114C13.9675 35.9088 16.4736 33.4333 16.4736 30.3466V2.59792H8.34418L8.34437 2.59753Z" fill="url(#paint3_linear_1191_2872)"/>
<path d="M23.7165 2.59753C20.6604 2.59753 18.1543 5.07318 18.1543 8.15973V15.4332C19.5603 14.2412 22.0051 13.4772 25.9474 13.6606C28.0561 13.7524 30.3175 14.333 30.3175 14.333V16.6862C29.1867 16.1056 27.8422 15.5859 26.1002 15.4636C23.1052 15.2498 21.3022 16.7167 21.3022 19.2837C21.3022 21.8814 23.1052 23.3484 26.1002 23.1038C27.8422 22.9816 29.1869 22.4316 30.3175 21.8814V24.2346C30.3175 24.2346 28.0866 24.8153 25.9474 24.9071C22.0051 25.0902 19.5603 24.3262 18.1545 23.1345V35.9699H26.3142C29.3703 35.9699 31.8762 33.4945 31.8762 30.4077V2.59792H23.7165V2.59753Z" fill="url(#paint4_linear_1191_2872)"/>
</g>
<defs>
<linearGradient id="paint0_linear_1191_2872" x1="33.5211" y1="21.396" x2="47.2547" y2="21.396" gradientUnits="userSpaceOnUse">
<stop stop-color="#007940"/>
<stop offset="0.2285" stop-color="#00873F"/>
<stop offset="0.7433" stop-color="#40A737"/>
<stop offset="1" stop-color="#5CB531"/>
</linearGradient>
<linearGradient id="paint1_linear_1191_2872" x1="33.521" y1="19.2552" x2="47.2552" y2="19.2552" gradientUnits="userSpaceOnUse">
<stop stop-color="#007940"/>
<stop offset="0.2285" stop-color="#00873F"/>
<stop offset="0.7433" stop-color="#40A737"/>
<stop offset="1" stop-color="#5CB531"/>
</linearGradient>
<linearGradient id="paint2_linear_1191_2872" x1="33.5207" y1="16.9267" x2="47.255" y2="16.9267" gradientUnits="userSpaceOnUse">
<stop stop-color="#007940"/>
<stop offset="0.2285" stop-color="#00873F"/>
<stop offset="0.7433" stop-color="#40A737"/>
<stop offset="1" stop-color="#5CB531"/>
</linearGradient>
<linearGradient id="paint3_linear_1191_2872" x1="2.77586" y1="19.2552" x2="16.7217" y2="19.2552" gradientUnits="userSpaceOnUse">
<stop stop-color="#1F286F"/>
<stop offset="0.4751" stop-color="#004E94"/>
<stop offset="0.8261" stop-color="#0066B1"/>
<stop offset="1" stop-color="#006FBC"/>
</linearGradient>
<linearGradient id="paint4_linear_1191_2872" x1="18.0753" y1="19.255" x2="31.62" y2="19.255" gradientUnits="userSpaceOnUse">
<stop stop-color="#6C2C2F"/>
<stop offset="0.1735" stop-color="#882730"/>
<stop offset="0.5731" stop-color="#BE1833"/>
<stop offset="0.8585" stop-color="#DC0436"/>
<stop offset="1" stop-color="#E60039"/>
</linearGradient>
<clipPath id="clip0_1191_2872">
<rect width="50" height="38.51" fill="white"/>
</clipPath>
</defs>
</svg>
