<svg width="50" height="31" viewBox="0 0 50 31" fill="none" xmlns="http://www.w3.org/2000/svg">
<g clip-path="url(#clip0_1191_2866)">
<g clip-path="url(#clip1_1191_2866)">
<path d="M18.2231 3.30093H31.7272V27.5655H18.2231V3.30093Z" fill="#FF5F00"/>
<path d="M19.0815 15.4333C19.0815 10.5033 21.3965 6.13045 24.9546 3.30094C22.3397 1.2432 19.0388 0 15.4377 0C6.90618 0 0.00415039 6.90203 0.00415039 15.4333C0.00415039 23.9645 6.90618 30.8667 15.4375 30.8667C19.0386 30.8667 22.3395 29.6235 24.9546 27.5655C21.3965 24.779 19.0815 20.3634 19.0815 15.4333Z" fill="#EB001B"/>
<path d="M49.9472 15.4333C49.9472 23.9645 43.0451 30.8667 34.5138 30.8667C30.9127 30.8667 27.6118 29.6235 24.9967 27.5655C28.5978 24.7362 30.87 20.3634 30.87 15.4333C30.87 10.5033 28.5548 6.13045 24.9967 3.30094C27.6116 1.2432 30.9127 0 34.5138 0C43.0451 0 49.9474 6.94499 49.9474 15.4333H49.9472Z" fill="#F79E1B"/>
</g>
</g>
<defs>
<clipPath id="clip0_1191_2866">
<rect width="50" height="30.87" fill="white"/>
</clipPath>
<clipPath id="clip1_1191_2866">
<rect width="50" height="30.8717" fill="white"/>
</clipPath>
</defs>
</svg>
