<svg width="50" height="16" viewBox="0 0 50 16" fill="none" xmlns="http://www.w3.org/2000/svg">
<g clip-path="url(#clip0_1191_2864)">
<path d="M36.3438 0.626694C35.1801 0.206045 33.9514 -0.00605891 32.7141 0.000131698C28.7188 0.000131698 25.8953 2.01888 25.8781 4.90794C25.8453 7.03138 27.8797 8.22826 29.4172 8.94388C30.9969 9.6767 31.525 10.1329 31.5172 10.7829C31.5094 11.7845 30.2547 12.2314 29.1 12.2314C27.4953 12.2314 26.625 12.0126 25.2828 11.4501L24.7844 11.2142L24.2156 14.5517C25.1922 14.9501 26.9422 15.3001 28.7484 15.3329C33.0047 15.3329 35.7797 13.3314 35.8109 10.2454C35.8438 8.55326 34.7547 7.26888 32.4344 6.20951C31.0344 5.52669 30.1578 5.06107 30.1578 4.36107C30.1578 3.74232 30.9063 3.09232 32.4688 3.09232C33.5057 3.06634 34.5366 3.25741 35.4953 3.65326L35.8781 3.82357L36.4391 0.609507L36.3438 0.626694ZM46.7297 0.276694H43.6047C42.6281 0.276694 41.9031 0.537631 41.4719 1.50638L35.4656 15.1204H39.7141L40.5703 12.8908L45.7531 12.8986C45.8828 13.4189 46.2484 15.1189 46.2484 15.1189H50L46.7297 0.276694ZM20.125 0.154819H24.1703L21.6391 15.0048H17.5938L20.125 0.147006V0.154819ZM9.83906 8.33294L10.2531 10.4001L14.2156 0.276694H18.5047L12.1234 15.0954H7.85313L4.35313 2.54701C4.32631 2.44277 4.27854 2.34509 4.21272 2.25993C4.1469 2.17477 4.06442 2.10392 3.97031 2.05169C2.7131 1.3978 1.37942 0.902854 0 0.578256L0.0484375 0.26732H6.575C7.45469 0.300132 8.17031 0.578257 8.41406 1.52201L9.83906 8.34076V8.33294ZM41.7234 9.85482L43.3438 5.69701C43.3187 5.73607 43.6766 4.84232 43.8797 4.27982L44.1562 5.55638L45.0938 9.84545H41.7234V9.85482Z" fill="#1A1F71"/>
</g>
<defs>
<clipPath id="clip0_1191_2864">
<rect width="50" height="15.33" fill="white"/>
</clipPath>
</defs>
</svg>
