<svg width="154" height="161" viewBox="0 0 154 161" fill="none" xmlns="http://www.w3.org/2000/svg">
<path d="M153.809 24.389C153.775 23.826 153.738 23.2649 153.672 22.7139C153.621 22.2839 153.551 21.863 153.48 21.441C153.397 20.941 153.306 20.4459 153.198 19.9579C153.098 19.5159 152.987 19.079 152.867 18.647C152.747 18.215 152.612 17.7749 152.467 17.3469C152.316 16.8939 152.159 16.447 151.984 16.004C151.837 15.633 151.675 15.2719 151.512 14.9109C151.299 14.4399 151.086 13.9699 150.846 13.5109C150.699 13.2319 150.535 12.964 150.378 12.692C150.132 12.266 149.878 11.843 149.613 11.434C149.562 11.356 149.52 11.271 149.467 11.194C149.391 11.079 149.302 10.9729 149.222 10.8599C146.88 7.51227 143.744 4.79792 140.095 2.95996L140.065 2.94397C139.321 2.56997 138.554 2.22964 137.765 1.92297L137.659 1.88196C136.871 1.57996 136.061 1.3133 135.229 1.08197L135.135 1.05695C134.898 0.991946 134.648 0.956982 134.409 0.893982C133.903 0.768982 133.396 0.647927 132.876 0.549927C132.761 0.527927 132.652 0.493938 132.535 0.473938L132.527 0.483948L132.535 0.473938C132.465 0.460938 132.393 0.456946 132.323 0.444946C131.608 0.324946 130.884 0.221958 130.147 0.144958C130.115 0.144958 130.083 0.133981 130.047 0.130981C129.759 0.105981 129.467 0.0879556 129.177 0.0669556C129.027 0.0569556 128.877 0.0429731 128.728 0.0349731C128.267 0.00897314 127.801 -0.00805664 127.328 -0.00805664H55.374C37.92 -0.00805664 21.216 14.192 18.139 31.647L1.05601 128.54C0.726137 130.396 0.563493 132.277 0.570013 134.162V134.133C0.570013 134.157 0.570013 134.183 0.570013 134.207C0.570013 134.483 0.596015 134.753 0.607015 135.027C0.620015 135.346 0.625007 135.667 0.649007 135.982C0.661007 136.15 0.683009 136.314 0.701009 136.482C0.937237 139.862 1.84617 143.162 3.37447 146.186C4.90278 149.211 7.01967 151.899 9.601 154.095C14.5356 158.144 20.749 160.306 27.131 160.195H97.638C99.712 160.195 107.155 160.645 111.885 156.465C106.32 152.789 102.069 147.438 99.748 141.185C99.726 141.129 99.704 141.085 99.682 141.026C98.092 136.801 97.015 132.558 97.015 132.558H31.915C31.1467 132.587 30.3912 132.355 29.7719 131.899C29.1525 131.443 28.706 130.791 28.505 130.049C28.4005 129.552 28.3924 129.039 28.481 128.539L28.55 128.15L45.564 31.657C45.7974 30.4947 46.4155 29.4448 47.3186 28.6768C48.2218 27.9088 49.3573 27.4675 50.542 27.424H110.372L110.408 27.379L110.371 27.424H122.497C122.71 27.4249 122.922 27.4429 123.132 27.478C123.211 27.496 123.287 27.519 123.364 27.541C123.539 27.592 123.71 27.6566 123.875 27.7339C123.95 27.7699 124.026 27.8 124.097 27.84C124.309 27.9566 124.507 28.0957 124.689 28.2549C124.792 28.3573 124.888 28.4659 124.977 28.58C125.178 28.8099 125.346 29.0663 125.477 29.342C125.813 30.0461 125.918 30.8385 125.777 31.606L112.944 98.3549C112.944 98.3549 128.879 98.355 139.019 104.149L147.46 62.201L153.401 31.657C153.585 30.619 153.707 29.594 153.788 28.582C153.815 28.238 153.812 27.9029 153.828 27.5629C153.858 26.9029 153.885 26.2429 153.873 25.5969C153.866 25.1879 153.833 24.79 153.809 24.389Z" fill="white"/>
<path d="M144.456 113.177C136.686 105.024 111.274 103.232 103.417 102.869C103.112 102.854 102.807 102.901 102.521 103.007C102.235 103.113 101.973 103.277 101.752 103.487C101.531 103.698 101.355 103.951 101.235 104.232C101.115 104.513 101.054 104.815 101.054 105.12C101.038 112.986 101.603 138.455 109.372 146.608C113.813 151.227 119.903 153.899 126.309 154.04C132.715 154.18 138.916 151.777 143.555 147.357C148.194 142.936 150.893 136.858 151.062 130.453C151.231 124.047 148.856 117.836 144.456 113.177V113.177ZM127.43 148.329C123.992 148.329 120.631 147.309 117.773 145.399C114.914 143.489 112.686 140.774 111.37 137.598C110.055 134.422 109.71 130.927 110.381 127.555C111.052 124.183 112.707 121.085 115.138 118.654C117.569 116.223 120.667 114.568 124.039 113.897C127.411 113.226 130.906 113.571 134.082 114.886C137.259 116.202 139.973 118.43 141.883 121.289C143.794 124.147 144.813 127.508 144.813 130.946C144.813 135.556 142.982 139.978 139.722 143.238C136.462 146.498 132.04 148.329 127.43 148.329V148.329Z" fill="white"/>
<path d="M130.908 121.53H122.276L120.266 144.511H124.894L125.646 135.911H129.646C131.727 136.002 133.766 135.311 135.363 133.974C136.101 133.325 136.702 132.534 137.129 131.649C137.556 130.764 137.801 129.802 137.85 128.82C137.999 127.868 137.936 126.894 137.665 125.969C137.395 125.044 136.922 124.19 136.283 123.469C135.57 122.792 134.724 122.27 133.799 121.936C132.874 121.603 131.889 121.464 130.908 121.53V121.53ZM133.225 128.818C133.211 129.234 133.114 129.642 132.94 130.02C132.766 130.398 132.518 130.737 132.212 131.018C131.533 131.561 130.681 131.841 129.812 131.806H126.002L126.545 125.606H130.352C130.765 125.576 131.18 125.634 131.569 125.775C131.958 125.916 132.313 126.138 132.611 126.426C132.873 126.761 133.063 127.146 133.169 127.558C133.274 127.969 133.293 128.399 133.225 128.818V128.818Z" fill="white"/>
</svg>
