<svg width="49" height="50" viewBox="0 0 49 50" fill="none" xmlns="http://www.w3.org/2000/svg">
<g clip-path="url(#clip0_1946_445)">
<path d="M48.4922 7.61157C48.4819 7.43586 48.4701 7.26077 48.4498 7.0888C48.4336 6.9546 48.4117 6.82321 48.3899 6.6915C48.3636 6.53545 48.3356 6.3794 48.3015 6.22866C48.2703 6.09071 48.236 5.95433 48.1985 5.8195C48.1611 5.68467 48.1187 5.54735 48.0737 5.41377C48.0266 5.27239 47.9776 5.13288 47.923 4.99462C47.8771 4.87883 47.8265 4.76617 47.7757 4.6535C47.7092 4.5065 47.6427 4.35982 47.5681 4.21656C47.5222 4.12949 47.4707 4.04585 47.4217 3.96095C47.345 3.828 47.2672 3.69598 47.183 3.56802C47.1671 3.54399 47.154 3.51746 47.1377 3.49343C47.1137 3.45754 47.0859 3.42446 47.0613 3.38919C46.3302 2.34446 45.3515 1.49731 44.2127 0.923615L44.2031 0.918933C43.9709 0.802001 43.7316 0.695679 43.4852 0.599969L43.4522 0.587173C43.2062 0.492919 42.9535 0.409693 42.6941 0.337495L42.6629 0.329692C42.5892 0.309405 42.5109 0.298483 42.4363 0.27882C42.2787 0.239808 42.1201 0.202044 41.9581 0.171458C41.9219 0.164592 41.8879 0.15398 41.8514 0.147739L41.8489 0.15086L41.8514 0.147739C41.8299 0.143993 41.8071 0.142433 41.7856 0.138688C41.5621 0.101236 41.3364 0.0690902 41.1064 0.0450587C41.0961 0.0450587 41.0862 0.0419376 41.0752 0.0410013C40.9853 0.0331988 40.8945 0.0275813 40.8037 0.0210272C40.7569 0.0179062 40.7101 0.0135364 40.6636 0.0110396C40.5197 0.00292507 40.3742 -0.00238037 40.2266 -0.00238037H17.7715C12.3241 -0.00238037 7.11082 4.42941 6.1505 9.87709L0.818304 40.1169C0.715443 40.696 0.664783 41.2831 0.666936 41.8712V41.8853C0.666936 41.9714 0.674737 42.0557 0.67817 42.1412C0.682227 42.2407 0.684102 42.3409 0.691281 42.4392C0.695338 42.4917 0.701888 42.5428 0.707505 42.5953C0.781301 43.6503 1.06501 44.68 1.54198 45.6239C2.01896 46.5678 2.67961 47.407 3.48518 48.0923C5.02533 49.3559 6.96466 50.0307 8.95657 49.9961H30.9614C31.609 49.9961 33.9316 50.1365 35.4081 48.8319C33.6712 47.6848 32.3444 46.0145 31.6199 44.0631C31.613 44.0456 31.6062 44.0319 31.5993 44.0135C31.1034 42.6948 30.7669 41.3706 30.7669 41.3706H10.4493C10.2095 41.3797 9.97363 41.3073 9.78028 41.165C9.58693 41.0228 9.4475 40.8192 9.38477 40.5876C9.35233 40.4325 9.34978 40.2726 9.37728 40.1166L9.39882 39.9949L14.7089 9.87958C14.7818 9.5168 14.9747 9.18915 15.2566 8.94947C15.5386 8.70979 15.893 8.57205 16.2628 8.55847H34.9356L34.9469 8.54443L34.9356 8.55847H38.7198C38.7863 8.55877 38.8527 8.56441 38.9183 8.57533C38.943 8.58094 38.9667 8.58812 38.9904 8.59499C39.0451 8.61107 39.0985 8.6312 39.1502 8.65522C39.1733 8.66646 39.197 8.67582 39.2195 8.6883C39.2855 8.72485 39.3474 8.76827 39.4043 8.81783C39.5016 8.91864 39.5842 9.03276 39.6496 9.15676C39.7545 9.37653 39.7873 9.62384 39.7432 9.86335L35.739 30.6956C35.739 30.6956 40.7119 30.6956 43.8766 32.5039L46.511 19.412L48.3652 9.87927C48.4226 9.55531 48.461 9.23541 48.486 8.91957C48.4944 8.81221 48.4935 8.70765 48.4985 8.60154C48.5078 8.39556 48.5163 8.18957 48.5125 7.98796C48.51 7.86093 48.4997 7.73672 48.4922 7.61157Z" fill="#96BE0B"/>
<path opacity="0.28" d="M46.8947 3.27487C46.8011 3.14785 46.7015 3.0252 46.5995 2.90379C46.5642 2.86166 46.533 2.8164 46.4971 2.77489C46.1357 2.36284 45.7325 1.98944 45.294 1.6607C44.9324 1.3833 44.547 1.13839 44.1423 0.928833L44.1326 0.923839C43.9011 0.807115 43.6611 0.701313 43.4148 0.605811L43.3817 0.593015C43.1364 0.498761 42.8841 0.415535 42.6249 0.343337L42.5956 0.335535C42.4536 0.296523 42.3062 0.26781 42.1586 0.237848L42.1611 0.234727L42.134 0.23223C42.0953 0.224115 42.0578 0.214128 42.0191 0.206326C41.9589 0.194154 41.7838 0.155141 41.7838 0.155141C41.5304 0.110823 41.2724 0.0755572 41.0098 0.049341C40.7317 0.0249973 40.4511 0.00627127 40.1628 0.00627127H37.9515C37.499 -0.00153119 37.038 -0.00215538 36.5808 0.00627127H17.7716C12.3242 0.00627127 7.11092 4.43806 6.1506 9.88543L0.819026 40.1224C0.716333 40.7015 0.665675 41.2886 0.667659 41.8767C0.667659 41.9676 0.674838 42.0568 0.678583 42.1467C0.68264 42.2463 0.684511 42.3464 0.691689 42.4448C0.699803 42.5531 0.713536 42.6592 0.725396 42.7659C0.734447 42.847 0.740691 42.9288 0.751926 43.009C0.76878 43.1283 0.790934 43.2456 0.812469 43.363C0.824016 43.4276 0.833382 43.4931 0.84649 43.5571C0.873019 43.686 0.905162 43.8124 0.937621 43.9388C0.950417 43.9887 0.961031 44.0399 0.974452 44.0892C1.0119 44.2253 1.05497 44.3585 1.09929 44.4912C1.11177 44.5289 1.12238 44.5673 1.13549 44.6048C1.18418 44.7449 1.23818 44.8822 1.29404 45.0183C1.30559 45.0464 1.31557 45.0751 1.32743 45.1029C1.38767 45.2455 1.45227 45.3838 1.52156 45.5227C1.53123 45.5423 1.53997 45.5626 1.54996 45.5823C1.62205 45.7249 1.69883 45.8632 1.77904 46.0014C1.78715 46.0152 1.79433 46.0292 1.80213 46.0426C1.88536 46.1835 1.97327 46.3211 2.06586 46.4555L2.08333 46.4827C2.17717 46.619 2.27528 46.7519 2.37765 46.8815C2.38326 46.8884 2.38826 46.8953 2.39356 46.9021C2.49614 47.0316 2.60298 47.1575 2.71408 47.2801L2.73156 47.3001C2.84204 47.4215 2.9569 47.5388 3.07487 47.6531C3.08236 47.6602 3.08954 47.6677 3.09672 47.6749C3.21313 47.7863 3.3336 47.8934 3.45688 47.9982L3.48809 48.0251C3.52742 48.0563 3.57048 48.0875 3.61074 48.1187C5.46669 45.5064 7.38245 42.9436 9.35803 40.4302C9.35084 40.3746 9.34761 40.3186 9.34836 40.2626C9.34792 40.2011 9.35251 40.1397 9.36209 40.0791C9.36209 40.0719 9.36209 40.065 9.36365 40.0575L9.38518 39.9361L14.6849 9.86951C14.7577 9.50728 14.9503 9.18011 15.2318 8.94077C15.5133 8.70143 15.8671 8.56386 16.2364 8.55027H34.8789L34.8814 8.54715H34.9473L34.9457 8.54902H38.6572C38.7435 8.55011 38.8294 8.56057 38.9134 8.58023C38.9297 8.58366 38.9446 8.58616 38.9618 8.59053C39.1463 8.62648 39.3183 8.70959 39.4612 8.83178C39.5736 8.93324 39.6628 9.0578 39.7227 9.19694C42.2691 7.13709 44.7518 5.26981 47.1381 3.62287C47.0607 3.50271 46.9762 3.39004 46.8947 3.27487Z" fill="url(#paint0_linear_1946_445)"/>
<path d="M45.5733 35.3223C43.1482 32.7778 35.2172 32.2185 32.7651 32.1052C32.6699 32.1005 32.5748 32.1152 32.4855 32.1483C32.3962 32.1815 32.3145 32.2325 32.2455 32.2982C32.1765 32.3639 32.1217 32.443 32.0842 32.5306C32.0467 32.6182 32.0274 32.7125 32.0276 32.8078C32.0226 35.2627 32.1989 43.2116 34.6239 45.7561C35.309 46.475 36.129 47.052 37.0371 47.4541C37.9451 47.8561 38.9235 48.0754 39.9163 48.0993C40.9091 48.1232 41.8969 47.9514 42.8233 47.5936C43.7497 47.2358 44.5965 46.699 45.3155 46.0139C46.0344 45.3288 46.6114 44.5088 47.0134 43.6007C47.4155 42.6927 47.6347 41.7143 47.6586 40.7215C47.6826 39.7287 47.5107 38.7409 47.1529 37.8145C46.7951 36.8881 46.2583 36.0413 45.5733 35.3223ZM40.2598 46.2932C39.1868 46.2932 38.1379 45.975 37.2457 45.3789C36.3535 44.7828 35.6582 43.9355 35.2475 42.9442C34.8369 41.9528 34.7295 40.862 34.9388 39.8096C35.1482 38.7572 35.6649 37.7905 36.4236 37.0318C37.1823 36.2731 38.149 35.7564 39.2014 35.5471C40.2538 35.3377 41.3446 35.4452 42.3359 35.8558C43.3272 36.2664 44.1745 36.9618 44.7707 37.8539C45.3668 38.7461 45.685 39.795 45.685 40.868C45.685 42.3069 45.1134 43.6868 44.096 44.7042C43.0786 45.7216 41.6986 46.2932 40.2598 46.2932Z" fill="#FF9900"/>
<path d="M41.3448 37.9293H38.6508L38.0234 45.1016H39.4678L39.7028 42.4176H40.9512C41.6007 42.446 42.2373 42.2304 42.7358 41.8131C42.9662 41.6105 43.1535 41.3637 43.2868 41.0874C43.4201 40.8111 43.4965 40.5109 43.5117 40.2045C43.5583 39.9073 43.5387 39.6035 43.4541 39.3147C43.3696 39.026 43.2222 38.7596 43.0226 38.5345C42.8 38.3231 42.5359 38.1602 42.2471 38.056C41.9583 37.9519 41.6511 37.9087 41.3448 37.9293ZM42.0682 40.2039C42.0636 40.3336 42.0332 40.4611 41.9789 40.579C41.9246 40.6968 41.8474 40.8027 41.7518 40.8905C41.5399 41.0601 41.2739 41.1474 41.0027 41.1364H39.8146L39.984 39.1999H41.1722C41.3011 39.1905 41.4306 39.2085 41.5522 39.2526C41.6737 39.2967 41.7846 39.3659 41.8775 39.4558C41.9593 39.5606 42.0184 39.6811 42.0512 39.8099C42.0841 39.9386 42.0898 40.0728 42.0682 40.2039Z" fill="#FF9900"/>
</g>
<defs>
<linearGradient id="paint0_linear_1946_445" x1="59.3599" y1="57.5018" x2="-71.3141" y2="-56.387" gradientUnits="userSpaceOnUse">
<stop stop-color="white"/>
<stop offset="1" stop-color="#96BE0B"/>
</linearGradient>
<clipPath id="clip0_1946_445">
<rect width="47.8468" height="50" fill="white" transform="translate(0.666626)"/>
</clipPath>
</defs>
</svg>
