<svg width="50" height="50" viewBox="0 0 50 50" fill="none" xmlns="http://www.w3.org/2000/svg">
<g clip-path="url(#clip0_2145_103970)">
<path d="M24.9994 50.0001C21.081 49.9972 17.2181 49.0739 13.7218 47.3047C10.2256 45.5355 7.19381 42.9697 4.87076 39.8142C2.54771 36.6587 0.998355 33.0016 0.347517 29.1376C-0.30332 25.2737 -0.0374377 21.3108 1.12374 17.5684C1.16498 17.4259 1.23423 17.2929 1.32746 17.1775C1.42068 17.062 1.53601 16.9663 1.66667 16.8959C1.79734 16.8256 1.94073 16.782 2.08845 16.7677C2.23617 16.7534 2.38525 16.7688 2.52697 16.8128C2.66869 16.8569 2.8002 16.9287 2.91381 17.0242C3.02741 17.1197 3.12083 17.2369 3.18859 17.369C3.25635 17.501 3.29709 17.6452 3.30843 17.7932C3.31978 17.9412 3.30149 18.0899 3.25464 18.2307C1.70837 23.2045 1.91535 28.5583 3.84104 33.3979C5.76673 38.2374 9.29452 42.2698 13.8353 44.8216C18.376 47.3733 23.6547 48.2899 28.7899 47.4184C33.9251 46.5468 38.6058 43.9398 42.0503 40.0327C45.4948 36.1256 47.4945 31.1551 47.7156 25.9512C47.9366 20.7472 46.3655 15.625 43.2647 11.4399C40.164 7.25487 35.7212 4.26033 30.6784 2.95646C25.6356 1.65258 20.2982 2.11829 15.5574 4.27582C15.4237 4.34005 15.2784 4.37697 15.1303 4.38441C14.9821 4.39185 14.8339 4.36967 14.6944 4.31915C14.5549 4.26864 14.4268 4.19082 14.3178 4.09023C14.2087 3.98965 14.1208 3.86832 14.0591 3.73335C13.9975 3.59838 13.9634 3.45248 13.9589 3.30418C13.9543 3.15587 13.9794 3.00815 14.0326 2.86965C14.0858 2.73115 14.1661 2.60465 14.2688 2.49755C14.3715 2.39045 14.4945 2.3049 14.6306 2.24591C18.0281 0.697916 21.7292 -0.0695244 25.4621 -6.70992e-05C29.195 0.0693902 32.865 0.973983 36.2025 2.6473C39.5401 4.32061 42.4606 6.72016 44.7495 9.66978C47.0384 12.6194 48.6377 16.0442 49.4299 19.6927C50.2221 23.3413 50.1871 27.1209 49.3275 30.7542C48.4679 34.3874 46.8056 37.782 44.4625 40.6888C42.1194 43.5956 39.155 45.9406 35.787 47.5519C32.4191 49.1632 28.733 49.9997 24.9994 50.0001V50.0001Z" fill="#828282"/>
<path d="M5.3495 12.535C5.14572 12.5352 4.94578 12.4796 4.77135 12.3743C4.59693 12.2689 4.45469 12.1178 4.36006 11.9373C4.26542 11.7568 4.22201 11.5539 4.23453 11.3505C4.24705 11.1471 4.31502 10.951 4.43107 10.7835C6.10793 8.36041 8.19908 6.25207 10.6084 4.55543C10.8503 4.38488 11.1501 4.31743 11.4418 4.36792C11.7335 4.41841 11.9932 4.5827 12.1637 4.82466C12.3343 5.06661 12.4017 5.3664 12.3513 5.65809C12.3008 5.94977 12.1365 6.20946 11.8945 6.38001C9.69977 7.92581 7.79503 9.8468 6.26792 12.0546C6.16511 12.203 6.02783 12.3242 5.86787 12.4079C5.7079 12.4916 5.53002 12.5352 5.3495 12.535V12.535Z" fill="#828282"/>
<path d="M21.3323 34.527C20.0553 34.527 19.4168 34.1199 19.4168 33.3056V11.7121C19.3873 11.5057 19.4063 11.2953 19.4722 11.0975C19.5382 10.8998 19.6493 10.7201 19.7967 10.5727C19.9441 10.4253 20.1239 10.3143 20.3216 10.2485C20.5194 10.1826 20.7298 10.1637 20.9362 10.1933H26.781C32.9666 10.1933 36.0597 12.6483 36.0601 17.5585C36.0601 20.1122 35.2231 22.0494 33.5492 23.3704C31.8983 24.6693 29.685 25.3186 26.9093 25.3182H23.2434V33.3056C23.246 34.1203 22.609 34.5274 21.3323 34.527ZM23.2473 22.2427H26.5499C28.5084 22.2427 29.9502 21.8687 30.8754 21.1206C31.8217 20.3499 32.295 19.161 32.2954 17.554C32.2954 16.0129 31.8118 14.9232 30.8447 14.2849C29.8961 13.6242 28.4195 13.2939 26.4149 13.2939H24.0045C23.9012 13.2787 23.7957 13.2879 23.6966 13.3207C23.5974 13.3535 23.5073 13.409 23.4335 13.4829C23.3596 13.5567 23.3041 13.6468 23.2713 13.746C23.2385 13.8451 23.2293 13.9506 23.2445 14.0539L23.2473 22.2427Z" fill="#828282"/>
<path d="M34.2564 40.7085H16.3454C16.0495 40.7085 15.7656 40.5909 15.5563 40.3816C15.3471 40.1723 15.2295 39.8885 15.2295 39.5925C15.2295 39.2965 15.3471 39.0127 15.5563 38.8034C15.7656 38.5941 16.0495 38.4766 16.3454 38.4766H34.2564C34.5524 38.4766 34.8362 38.5941 35.0455 38.8034C35.2548 39.0127 35.3723 39.2965 35.3723 39.5925C35.3723 39.8885 35.2548 40.1723 35.0455 40.3816C34.8362 40.5909 34.5524 40.7085 34.2564 40.7085Z" fill="#828282"/>
</g>
<defs>
<clipPath id="clip0_2145_103970">
<rect width="49.9994" height="50" fill="white"/>
</clipPath>
</defs>
</svg>
