<svg width="57" height="30" viewBox="0 0 57 30" fill="none" xmlns="http://www.w3.org/2000/svg">
<path d="M41.4309 0H15.0741C6.83759 0 0.0986328 6.75 0.0986328 15C0.0986328 23.25 6.83759 30 15.0741 30H41.4309C49.6674 30 56.4063 23.25 56.4063 15C56.4063 6.75 49.6674 0 41.4309 0Z" fill="white"/>
<path d="M41.4309 1.215C43.2803 1.215 45.0774 1.5825 46.7696 2.3025C48.4094 3 49.877 3.9975 51.1499 5.265C52.4154 6.5325 53.4112 8.01 54.1076 9.6525C54.8264 11.3475 55.1933 13.1475 55.1933 15C55.1933 16.8525 54.8264 18.6525 54.1076 20.3475C53.4112 21.99 52.4154 23.46 51.1499 24.735C49.8845 26.0025 48.4094 27 46.7696 27.6975C45.0774 28.4175 43.2803 28.785 41.4309 28.785H15.0741C13.2246 28.785 11.4276 28.4175 9.73534 27.6975C8.09552 27 6.62793 26.0025 5.35502 24.735C4.08959 23.4675 3.09372 21.99 2.39736 20.3475C1.67854 18.6525 1.31164 16.8525 1.31164 15C1.31164 13.1475 1.67854 11.3475 2.39736 9.6525C3.09372 8.01 4.08959 6.54 5.35502 5.265C6.62044 3.9975 8.09552 3 9.73534 2.3025C11.4276 1.5825 13.2246 1.215 15.0741 1.215H41.4309ZM41.4309 0H15.0741C6.83759 0 0.0986328 6.75 0.0986328 15C0.0986328 23.25 6.83759 30 15.0741 30H41.4309C49.6674 30 56.4063 23.25 56.4063 15C56.4063 6.75 49.6674 0 41.4309 0Z" fill="#3C4043"/>
<path d="M26.9496 16.065V20.6025H25.512V9.39749H29.3232C30.2891 9.39749 31.1128 9.71999 31.7867 10.365C32.4755 11.01 32.82 11.7975 32.82 12.7275C32.82 13.68 32.4755 14.4675 31.7867 15.105C31.1203 15.7425 30.2966 16.0575 29.3232 16.0575H26.9496V16.065ZM26.9496 10.7775V14.685H29.3532C29.9222 14.685 30.4014 14.49 30.7758 14.1075C31.1577 13.725 31.3524 13.26 31.3524 12.735C31.3524 12.2175 31.1577 11.76 30.7758 11.3775C30.4014 10.98 29.9297 10.785 29.3532 10.785H26.9496V10.7775Z" fill="#3C4043"/>
<path d="M36.5788 12.6825C37.642 12.6825 38.4807 12.9675 39.0947 13.5375C39.7087 14.1075 40.0156 14.8875 40.0156 15.8775V20.6025H38.6454V19.5375H38.5855C37.994 20.415 37.2003 20.85 36.2119 20.85C35.3658 20.85 34.6619 20.6025 34.0929 20.1C33.5238 19.5975 33.2393 18.975 33.2393 18.225C33.2393 17.43 33.5388 16.8 34.1378 16.335C34.7368 15.8625 35.538 15.63 36.5339 15.63C37.3875 15.63 38.0913 15.7875 38.6379 16.1025V15.7725C38.6379 15.27 38.4432 14.85 38.0464 14.4975C37.6495 14.145 37.1853 13.9725 36.6537 13.9725C35.8525 13.9725 35.216 14.31 34.7518 14.9925L33.4864 14.1975C34.1827 13.185 35.216 12.6825 36.5788 12.6825ZM34.7218 18.2475C34.7218 18.6225 34.8791 18.9375 35.201 19.185C35.5155 19.4325 35.8899 19.56 36.3167 19.56C36.9232 19.56 37.4623 19.335 37.9341 18.885C38.4058 18.435 38.6454 17.91 38.6454 17.3025C38.1961 16.95 37.5747 16.77 36.7735 16.77C36.1894 16.77 35.7027 16.9125 35.3134 17.19C34.9165 17.4825 34.7218 17.835 34.7218 18.2475Z" fill="#3C4043"/>
<path d="M47.8329 12.93L43.0407 23.97H41.5582L43.3402 20.1075L40.1804 12.93H41.7454L44.0216 18.435H44.0516L46.2679 12.93H47.8329Z" fill="#3C4043"/>
<path d="M21.2314 15.15C21.2314 14.6805 21.1894 14.2312 21.1116 13.7992H15.0854V16.2742L18.556 16.275C18.4152 17.0985 17.9622 17.8005 17.2681 18.2685V19.8742H19.334C20.5403 18.756 21.2314 17.103 21.2314 15.15Z" fill="#4285F4"/>
<path d="M17.2688 18.2685C16.6937 18.657 15.9532 18.8842 15.0869 18.8842C13.4133 18.8842 11.9937 17.7547 11.4853 16.2322H9.35425V17.8882C10.41 19.9867 12.58 21.4267 15.0869 21.4267C16.8195 21.4267 18.2751 20.856 19.3346 19.8735L17.2688 18.2685Z" fill="#34A853"/>
<path d="M11.2846 15.0037C11.2846 14.5762 11.3557 14.163 11.4853 13.7745V12.1185H9.35425C8.91772 12.9862 8.67212 13.9657 8.67212 15.0037C8.67212 16.0418 8.91846 17.0213 9.35425 17.889L11.4853 16.233C11.3557 15.8445 11.2846 15.4312 11.2846 15.0037Z" fill="#FABB05"/>
<path d="M15.0868 11.1225C16.0325 11.1225 16.8794 11.4487 17.5481 12.0862L19.3788 10.254C18.2669 9.21674 16.8173 8.57999 15.0868 8.57999C12.5807 8.57999 10.41 10.02 9.35425 12.1185L11.4853 13.7745C11.9937 12.252 13.4133 11.1225 15.0868 11.1225Z" fill="#E94235"/>
</svg>
