<svg width="422" height="133" viewBox="0 0 422 133" fill="none" xmlns="http://www.w3.org/2000/svg">
<path d="M102.292 0H30.8626C13.8464 0 0 13.8232 0 30.8124V102.125C0 119.114 13.8464 132.937 30.8626 132.937H102.292C119.309 132.937 133.155 119.114 133.155 102.125V30.8124C133.155 13.8232 119.309 0 102.292 0Z" fill="#C9191D"/>
<path d="M46.1311 24.9693C47.6025 26.6385 47.3804 27.9957 46.4961 30.0115C45.6113 32.0278 42.2924 37.7483 36.6403 42.7478C30.9364 47.7933 25.7335 50.559 23.5595 51.4764C21.3855 52.3943 20.0675 52.1437 18.5961 50.4745L16.8198 48.4597C15.3488 46.7905 15.1853 44.5327 16.4553 43.4175C16.4553 43.4175 25.0848 37.7978 28.8514 34.4944C32.618 31.1915 39.3913 21.9526 39.3913 21.9526C40.6613 20.8369 42.8838 21.2853 44.3548 22.9545L46.1311 24.9693ZM46.0641 48.9848L44.2614 46.9407C42.7683 45.247 40.503 44.8044 39.196 45.9517C39.196 45.9517 32.2154 55.4216 28.3435 58.8143C24.474 62.2088 15.619 67.9975 15.619 67.9975C14.3125 69.1454 14.4654 71.4468 15.9585 73.1401L17.7593 75.1847C19.2519 76.8779 20.5983 77.1246 22.8261 76.1731C24.0052 75.6695 26.0907 74.5884 28.6325 72.9519V107.821C28.6325 109.907 30.1987 111.598 32.1312 111.598H35.1929C37.1254 111.598 38.6916 109.907 38.6916 107.821V64.7364C42.9612 60.3049 45.6285 55.8666 46.4036 54.1254C47.3206 52.064 47.5553 50.678 46.0641 48.9848Z" fill="white"/>
<path d="M114.639 55.5614H80.4203C80.3472 55.5614 80.2866 55.5969 80.2155 55.6012C80.1443 55.5969 80.0856 55.5614 80.0145 55.5614H73.1276C71.8692 55.5614 70.8474 54.5431 70.8474 53.2849V48.5125C70.8474 47.2561 71.8692 46.236 73.1276 46.236H80.0145C82.1043 46.236 83.7979 44.5509 83.7979 42.4708V39.9605C83.7979 37.8804 82.1043 36.1934 80.0145 36.1934H73.1276C71.8692 36.1934 70.8474 35.1756 70.8474 33.9188V25.7538C70.8474 23.6674 69.1595 21.9742 67.076 21.9742H64.5616C62.478 21.9742 60.7883 23.6674 60.7883 25.7538V33.9188C60.7883 35.1756 59.7688 36.1934 58.5099 36.1934H51.3095C49.2197 36.1934 47.5237 37.8804 47.5237 39.9605V42.4708C47.5237 44.5509 49.2197 46.236 51.3095 46.236H58.5099C59.7688 46.236 60.7883 47.2561 60.7883 48.5125V53.2849C60.7883 54.5431 59.7688 55.5614 58.5099 55.5614H51.3095C49.2197 55.5614 47.5237 57.2483 47.5237 59.3261V61.8393C47.5237 63.917 49.2197 65.604 51.3095 65.604H58.5099C59.7688 65.604 60.7883 66.6222 60.7883 67.8805V72.1805C60.7883 73.4368 59.7688 74.457 58.5099 74.457H51.3095C49.2197 74.457 47.5237 76.142 47.5237 78.2222V80.7324C47.5237 82.8126 49.2197 84.4996 51.3095 84.4996H58.5099C59.7688 84.4996 60.7883 85.5173 60.7883 86.7741V95.148C60.7883 96.2272 60.0347 97.1533 58.9793 97.377C52.6704 98.7082 46.3533 99.9602 46.3533 99.9602C44.2548 100.491 42.9964 102.67 43.5432 104.827L44.2048 107.432C44.7516 109.589 46.035 110.356 48.9956 110.375C51.9563 110.396 56.0941 109.913 65.5396 107.496C74.901 105.103 80.7492 101.094 83.0001 99.5632C85.2491 98.0352 86.3546 96.8542 85.8079 94.6967L85.1462 92.0943C84.6 89.9368 82.4558 88.6176 80.3578 89.1486C80.3578 89.1486 77.6107 90.5158 74.0677 92.1087C72.5602 92.788 70.8474 91.6867 70.8474 90.0353V86.7741C70.8474 85.5173 71.8692 84.4996 73.1276 84.4996H80.0145C82.1043 84.4996 83.7979 82.8126 83.7979 80.7324V78.2222C83.7979 76.142 82.1043 74.457 80.0145 74.457H73.1276C71.8692 74.457 70.8474 73.4368 70.8474 72.1805V67.8805C70.8474 66.6222 71.8692 65.604 73.1276 65.604H80.0145C80.0856 65.604 80.1443 65.5685 80.2155 65.5641C80.2866 65.5685 80.3472 65.604 80.4203 65.604H88.9344C90.2178 65.604 91.2584 66.6428 91.2584 67.9222V107.82C91.2584 109.907 92.8246 111.598 94.7552 111.598H97.8188C99.7514 111.598 101.318 109.907 101.318 107.82V67.9222C101.318 66.6428 102.356 65.604 103.64 65.604H114.639C116.729 65.604 118.425 63.917 118.425 61.8393V59.3261C118.425 57.2483 116.729 55.5614 114.639 55.5614Z" fill="white"/>
<path d="M96.3041 35.2032C93.921 35.2032 91.9889 33.2742 91.9889 30.895C91.9889 28.5158 93.921 26.5868 96.3041 26.5868C98.6873 26.5868 100.619 28.5158 100.619 30.895C100.619 33.2742 98.6873 35.2032 96.3041 35.2032ZM96.846 21.4227C96.6609 21.4126 96.4868 21.4491 96.3041 21.4496C96.1214 21.4491 95.9473 21.4126 95.7622 21.4227C90.1068 21.7295 86.4085 27.0237 87.3558 32.8796C88.2858 38.6323 95.0924 50.5957 95.0924 50.5957C95.3289 51.1122 95.818 51.3595 96.3041 51.3513C96.7903 51.3595 97.2793 51.1122 97.5159 50.5957C97.5159 50.5957 104.322 38.6323 105.252 32.8796C106.2 27.0237 102.501 21.7295 96.846 21.4227Z" fill="white"/>
<path d="M216.823 94.9621L216.882 43.8855C216.884 41.633 215.538 40.2859 213.282 40.2806L162.543 40.2225C161.385 40.2225 160.481 40.55 159.856 41.1933C159.253 41.814 158.945 42.6968 158.943 43.8183L158.884 94.8945C158.882 97.2478 160.127 98.4945 162.486 98.4998L213.223 98.5579C214.339 98.5579 215.22 98.2535 215.844 97.6525C216.491 97.0289 216.821 96.1234 216.823 94.9621ZM217.512 29.5237C224.542 29.5314 228.108 33.1002 228.1 40.1189L228.032 98.7542C228.022 105.88 224.45 109.332 217.419 109.325L158.254 109.256C151.114 109.249 147.656 105.787 147.666 98.6611L147.735 40.0262C147.742 33.0076 151.207 29.4478 158.347 29.4555L217.512 29.5237ZM282.536 84.7398C282.937 84.5429 283.238 84.4436 283.637 84.2419C290.049 81.0519 295.659 77.2598 300.67 72.8705C304.477 69.4769 306.683 66.5806 307.086 64.3814C307.088 63.8816 306.485 63.583 305.486 63.5806L258.636 63.5264C258.738 63.7256 258.835 63.9248 258.935 63.9248C259.936 65.0266 260.834 66.0266 261.534 66.8274C266.733 73.2281 273.232 78.9343 281.135 83.9409C281.536 84.2395 282.037 84.5405 282.536 84.7398ZM419.839 37.5301C420.741 38.1297 421.237 39.627 421.234 41.9261C421.233 43.7249 420.931 45.0235 420.43 45.625C419.528 46.8223 418.125 47.3197 416.124 47.3178L408.315 47.3086L408.254 100.078C408.251 102.476 407.148 104.474 405.144 106.071C403.341 107.367 400.437 108.263 396.433 108.659C392.429 108.655 317.809 113.22 282.223 96.333C274.611 99.5231 265.799 102.811 255.583 106.098C249.875 107.791 245.471 108.682 242.466 108.881C240.864 108.879 239.466 108.277 238.464 107.277C237.465 106.275 236.964 105.175 236.966 104.177C236.968 101.879 237.571 100.279 238.974 99.4823C251.69 96.1002 262.307 92.8126 270.917 89.6245C265.317 85.6221 259.417 80.3188 253.22 73.5133C250.62 70.8115 249.319 68.7121 249.222 67.1125C249.224 65.6123 249.625 64.4155 250.527 63.5173L246.024 63.5129C244.12 63.5105 242.919 63.1078 242.419 62.1078C241.621 61.3065 241.322 60.1073 241.324 58.5082C241.326 57.008 241.727 55.8088 242.629 54.913C243.429 54.214 244.533 53.8155 246.036 53.8179L276.566 53.852L276.58 40.5593L242.944 40.5209C241.242 40.5185 239.944 40.1181 239.044 39.3174C238.242 38.6179 237.846 37.3174 237.847 35.4163C237.849 33.7178 238.251 32.4212 239.053 31.5225C239.953 30.7241 241.256 30.3261 242.958 30.3281L276.594 30.3669L276.603 21.7713C276.605 20.3704 277.106 19.0747 278.209 17.8755C278.91 17.176 280.312 16.7781 282.516 16.78C284.419 16.7824 285.817 17.1852 286.617 17.8841C287.718 18.8865 288.317 20.1851 288.315 21.7847L288.306 30.3804L323.543 30.4212C325.345 30.4231 326.644 30.8235 327.444 31.6247C328.246 32.2263 328.642 33.5253 328.64 35.5229C328.638 37.1225 328.239 38.2223 327.636 39.0188C326.734 40.1181 325.332 40.616 323.529 40.6136L288.292 40.5732L288.278 53.865L309.801 53.8904C313.404 54.094 315.804 54.4967 317.108 55.1981C319.306 56.6009 320.405 58.7002 320.402 61.6983C320.099 64.7976 318.392 68.5921 315.183 73.0856C310.673 78.7782 304.46 84.1675 296.546 89.1564C295.743 89.6542 294.943 90.0522 294.243 90.4507C306.256 95.1031 324.257 97.1933 341.786 98.0257L341.825 65.8206C341.624 66.0218 341.524 66.221 341.422 66.4198C340.219 68.0175 338.718 68.7145 336.715 68.7121C334.813 68.7097 333.211 68.2095 332.013 67.1101C330.911 66.2071 330.415 64.9085 330.417 63.3089C330.417 62.3089 330.918 61.212 331.722 60.0127C339.244 47.8266 344.964 35.0409 348.882 21.5543C349.585 19.7579 350.788 18.6585 352.391 18.3618C354.192 18.3642 355.795 18.7646 356.993 19.3642C358.294 20.068 358.994 21.4659 358.992 23.4659C358.79 24.9637 358.589 26.3641 358.285 27.6627C356.98 32.6564 355.172 37.953 352.762 43.5458L352.697 98.3959C374.915 98.8663 394.03 97.6623 395.744 97.6633C396.746 97.6657 397.246 97.1659 397.246 96.1654L397.303 47.2947L365.27 47.2587C363.67 47.2563 362.469 46.8559 361.569 46.0552C360.567 45.2539 360.171 43.856 360.173 41.856C360.175 39.6568 360.576 38.159 361.578 37.3601C362.278 36.761 363.482 36.3645 365.284 36.3669L397.317 36.4029L397.33 23.1107C397.335 20.2125 399.241 18.6148 402.844 18.4204C406.448 18.4252 408.247 20.0272 408.342 23.1241L408.329 36.4168L416.138 36.4259C417.738 36.4283 419.039 36.8263 419.839 37.5301ZM377.14 83.7512C376.542 83.4502 376.141 82.8506 375.74 82.0499C373.446 77.3505 369.648 70.2507 364.454 60.8499C363.955 60.0487 363.656 59.2499 363.656 58.2499C363.658 57.6508 363.758 57.0507 364.057 56.2523C364.56 55.3517 365.362 54.6551 366.464 54.0555C367.266 53.7588 368.166 53.5577 369.168 53.5596C370.57 53.7612 371.869 54.2615 373.07 55.0646C375.169 57.2657 378.067 61.8658 381.664 69.0654C383.66 73.4633 384.757 77.0653 384.753 80.0633C384.753 81.4613 384.349 82.3595 383.649 82.9596C382.645 83.9596 381.344 84.3552 379.643 84.3528C378.441 84.3509 377.641 84.1516 377.14 83.7512Z" fill="#333333"/>
</svg>
