<svg width="41" height="40" viewBox="0 0 41 40" fill="none" xmlns="http://www.w3.org/2000/svg">
<g clip-path="url(#clip0_2032_70404)">
<path d="M20.5 40C17.3653 39.9977 14.275 39.2591 11.478 37.8437C8.68096 36.4283 6.25554 34.3758 4.3971 31.8513C2.53866 29.3269 1.29917 26.4013 0.778502 23.3101C0.257832 20.2189 0.470538 17.0486 1.39948 14.0547C1.43247 13.9407 1.48788 13.8343 1.56246 13.742C1.63704 13.6496 1.72929 13.573 1.83383 13.5167C1.93836 13.4604 2.05307 13.4256 2.17125 13.4141C2.28943 13.4027 2.40869 13.415 2.52207 13.4502C2.63544 13.4855 2.74065 13.543 2.83153 13.6194C2.92242 13.6958 2.99715 13.7895 3.05136 13.8951C3.10557 14.0008 3.13816 14.1162 3.14724 14.2345C3.15631 14.3529 3.14168 14.4719 3.1042 14.5846C1.86718 18.5636 2.03277 22.8466 3.57332 26.7183C5.11387 30.5899 7.93611 33.8158 11.5687 35.8572C15.2013 37.8986 19.4243 38.6319 23.5324 37.9347C27.6406 37.2374 31.3851 35.1518 34.1407 32.0261C36.8963 28.9005 38.4961 24.924 38.6729 20.7609C38.8498 16.5978 37.5929 12.5 35.1123 9.15192C32.6317 5.80387 29.0774 3.40824 25.0432 2.36514C21.009 1.32204 16.739 1.69461 12.9464 3.42063C12.8394 3.47202 12.7232 3.50155 12.6047 3.5075C12.4861 3.51346 12.3676 3.49571 12.256 3.4553C12.1444 3.41489 12.042 3.35263 11.9547 3.27216C11.8674 3.19169 11.7971 3.09463 11.7478 2.98666C11.6985 2.87868 11.6712 2.76196 11.6676 2.64332C11.6639 2.52468 11.684 2.4065 11.7266 2.2957C11.7691 2.18489 11.8334 2.08369 11.9155 1.99801C11.9977 1.91234 12.0961 1.8439 12.205 1.79671C14.923 0.558308 17.8838 -0.055644 20.8702 -7.80933e-05C23.8565 0.0554878 26.7925 0.779162 29.4625 2.11781C32.1326 3.45647 34.469 5.37611 36.3001 7.7358C38.1312 10.0955 39.4106 12.8353 40.0444 15.7542C40.6782 18.673 40.6502 21.6967 39.9625 24.6033C39.2749 27.5099 37.945 30.2256 36.0705 32.551C34.196 34.8764 31.8245 36.7525 29.1301 38.0415C26.4357 39.3305 23.4869 39.9997 20.5 40Z" fill="#FF9900"/>
<path d="M4.77989 10.028C4.61687 10.0281 4.45691 9.98365 4.31738 9.89936C4.17784 9.81506 4.06404 9.69417 3.98834 9.5498C3.91263 9.40542 3.8779 9.24307 3.88792 9.08036C3.89793 8.91764 3.95231 8.76078 4.04515 8.62678C5.38664 6.68828 7.05956 5.00161 8.98701 3.6443C9.18057 3.50786 9.42041 3.4539 9.65376 3.49429C9.8871 3.53468 10.0948 3.66611 10.2313 3.85968C10.3677 4.05324 10.4217 4.29307 10.3813 4.52642C10.3409 4.75977 10.2095 4.96752 10.0159 5.10396C8.26011 6.3406 6.73632 7.87739 5.51463 9.64363C5.43238 9.76234 5.32256 9.85933 5.19459 9.92627C5.06661 9.99321 4.92431 10.0281 4.77989 10.028Z" fill="#FF9900"/>
<path d="M17.5662 27.6214C16.5446 27.6214 16.0337 27.2957 16.0337 26.6443V9.36945C16.0102 9.20436 16.0253 9.03604 16.0781 8.87783C16.1308 8.71963 16.2197 8.57588 16.3377 8.45798C16.4556 8.34008 16.5994 8.25126 16.7576 8.19857C16.9158 8.14588 17.0842 8.13076 17.2492 8.15441H21.9251C26.8736 8.15441 29.348 10.1185 29.3483 14.0466C29.3483 16.0895 28.6788 17.6394 27.3396 18.6961C26.0189 19.7353 24.2483 20.2547 22.0277 20.2544H19.095V26.6443C19.0971 27.296 18.5875 27.6217 17.5662 27.6214ZM19.0981 17.794H21.7403C23.307 17.794 24.4605 17.4947 25.2006 16.8963C25.9576 16.2797 26.3363 15.3286 26.3366 14.043C26.3366 12.8101 25.9498 11.9384 25.176 11.4277C24.4172 10.8992 23.2359 10.6349 21.6322 10.6349H19.7039C19.6212 10.6228 19.5369 10.6301 19.4575 10.6563C19.3782 10.6826 19.3062 10.727 19.2471 10.7861C19.188 10.8452 19.1436 10.9173 19.1173 10.9966C19.0911 11.0759 19.0837 11.1602 19.0959 11.2429L19.0981 17.794Z" fill="#FF9900"/>
<path d="M27.9061 32.5669H13.5773C13.3406 32.5669 13.1135 32.4728 12.9461 32.3054C12.7786 32.138 12.6846 31.9109 12.6846 31.6741C12.6846 31.4374 12.7786 31.2103 12.9461 31.0429C13.1135 30.8754 13.3406 30.7814 13.5773 30.7814H27.9061C28.1429 30.7814 28.3699 30.8754 28.5374 31.0429C28.7048 31.2103 28.7988 31.4374 28.7988 31.6741C28.7988 31.9109 28.7048 32.138 28.5374 32.3054C28.3699 32.4728 28.1429 32.5669 27.9061 32.5669Z" fill="#FF9900"/>
</g>
<defs>
<clipPath id="clip0_2032_70404">
<rect width="39.9996" height="40" fill="white" transform="translate(0.500488)"/>
</clipPath>
</defs>
</svg>
