<svg width="50" height="50" viewBox="0 0 50 50" fill="none" xmlns="http://www.w3.org/2000/svg">
<g clip-path="url(#clip0_1994_91483)">
<path d="M24.9999 50.0001C21.0815 49.9972 17.2186 49.0739 13.7223 47.3047C10.2261 45.5355 7.1943 42.9697 4.87125 39.8142C2.5482 36.6587 0.998843 33.0016 0.348006 29.1376C-0.302832 25.2737 -0.0369494 21.3108 1.12423 17.5684C1.16547 17.4259 1.23472 17.2929 1.32795 17.1775C1.42117 17.062 1.53649 16.9663 1.66716 16.8959C1.79783 16.8256 1.94122 16.782 2.08894 16.7677C2.23666 16.7534 2.38574 16.7688 2.52746 16.8128C2.66918 16.8569 2.80069 16.9287 2.9143 17.0242C3.0279 17.1197 3.12131 17.2369 3.18907 17.369C3.25684 17.501 3.29758 17.6452 3.30892 17.7932C3.32026 17.9412 3.30198 18.0899 3.25513 18.2307C1.70885 23.2045 1.91584 28.5583 3.84153 33.3979C5.76721 38.2374 9.29501 42.2698 13.8357 44.8216C18.3765 47.3733 23.6552 48.2899 28.7904 47.4184C33.9256 46.5468 38.6063 43.9398 42.0508 40.0327C45.4953 36.1256 47.495 31.1551 47.7161 25.9512C47.9371 20.7472 46.366 15.625 43.2652 11.4399C40.1644 7.25487 35.7217 4.26033 30.6789 2.95646C25.6361 1.65258 20.2986 2.11829 15.5579 4.27582C15.4241 4.34005 15.2789 4.37697 15.1307 4.38441C14.9826 4.39185 14.8344 4.36967 14.6949 4.31915C14.5554 4.26864 14.4273 4.19082 14.3182 4.09023C14.2092 3.98965 14.1213 3.86832 14.0596 3.73335C13.998 3.59838 13.9639 3.45248 13.9594 3.30418C13.9548 3.15587 13.9799 3.00815 14.0331 2.86965C14.0863 2.73115 14.1666 2.60465 14.2693 2.49755C14.3719 2.39045 14.495 2.3049 14.6311 2.24591C18.0286 0.697916 21.7297 -0.0695244 25.4626 -6.70992e-05C29.1955 0.0693902 32.8655 0.973983 36.203 2.6473C39.5406 4.32061 42.4611 6.72016 44.75 9.66978C47.0389 12.6194 48.6382 16.0442 49.4304 19.6927C50.2226 23.3413 50.1876 27.1209 49.328 30.7542C48.4684 34.3874 46.8061 37.782 44.463 40.6888C42.1198 43.5956 39.1555 45.9406 35.7875 47.5519C32.4195 49.1632 28.7335 49.9997 24.9999 50.0001V50.0001Z" fill="white"/>
<path d="M5.3495 12.535C5.14572 12.5352 4.94578 12.4796 4.77135 12.3743C4.59693 12.2689 4.45469 12.1178 4.36006 11.9373C4.26542 11.7568 4.22201 11.5539 4.23453 11.3505C4.24705 11.1471 4.31502 10.951 4.43107 10.7835C6.10793 8.36041 8.19908 6.25207 10.6084 4.55543C10.8503 4.38488 11.1501 4.31743 11.4418 4.36792C11.7335 4.41841 11.9932 4.5827 12.1637 4.82466C12.3343 5.06661 12.4017 5.3664 12.3513 5.65809C12.3008 5.94977 12.1365 6.20946 11.8945 6.38001C9.69977 7.92581 7.79503 9.8468 6.26792 12.0546C6.16511 12.203 6.02783 12.3242 5.86787 12.4079C5.7079 12.4916 5.53002 12.5352 5.3495 12.535V12.535Z" fill="white"/>
<path d="M21.3328 34.5268C20.0558 34.5268 19.4173 34.1197 19.4173 33.3054V11.7118C19.3878 11.5054 19.4068 11.2951 19.4727 11.0973C19.5387 10.8995 19.6498 10.7199 19.7972 10.5725C19.9446 10.4251 20.1243 10.3141 20.3221 10.2482C20.5199 10.1823 20.7303 10.1634 20.9367 10.193H26.7814C32.9671 10.193 36.0602 12.6481 36.0605 17.5583C36.0605 20.1119 35.2236 22.0492 33.5497 23.3701C31.8988 24.6691 29.6855 25.3184 26.9098 25.318H23.2439V33.3054C23.2465 34.12 22.6095 34.5272 21.3328 34.5268ZM23.2478 22.2424H26.5504C28.5089 22.2424 29.9507 21.8684 30.8758 21.1204C31.8222 20.3496 32.2955 19.1608 32.2959 17.5538C32.2959 16.0127 31.8123 14.923 30.8452 14.2846C29.8966 13.624 28.42 13.2937 26.4154 13.2937H24.005C23.9016 13.2785 23.7962 13.2876 23.6971 13.3204C23.5979 13.3532 23.5078 13.4088 23.434 13.4826C23.3601 13.5565 23.3046 13.6466 23.2718 13.7457C23.239 13.8449 23.2298 13.9503 23.245 14.0536L23.2478 22.2424Z" fill="white"/>
<path d="M34.2574 40.7087H16.3464C16.0504 40.7087 15.7666 40.5911 15.5573 40.3818C15.348 40.1726 15.2305 39.8887 15.2305 39.5928C15.2305 39.2968 15.348 39.0129 15.5573 38.8037C15.7666 38.5944 16.0504 38.4768 16.3464 38.4768H34.2574C34.5533 38.4768 34.8372 38.5944 35.0465 38.8037C35.2557 39.0129 35.3733 39.2968 35.3733 39.5928C35.3733 39.8887 35.2557 40.1726 35.0465 40.3818C34.8372 40.5911 34.5533 40.7087 34.2574 40.7087Z" fill="white"/>
</g>
<defs>
<clipPath id="clip0_1994_91483">
<rect width="49.9994" height="50" fill="white" transform="translate(0.000488281)"/>
</clipPath>
</defs>
</svg>
