<svg width="39" height="30" viewBox="0 0 39 30" fill="none" xmlns="http://www.w3.org/2000/svg">
<path d="M32.9745 6.57852L32.7393 6.35895C27.452 1.29519 20.567 1.86371 16.9324 2.65376C15.6712 2.91454 14.4372 3.29326 13.2468 3.78492C13.0951 3.85208 12.9653 3.96042 12.872 4.09766C12.7788 4.23489 12.7259 4.39552 12.7194 4.56131C12.7129 4.72709 12.7529 4.89138 12.8351 5.03553C12.9172 5.17968 13.0382 5.2979 13.1841 5.37678C13.7507 5.68457 14.0624 6.02764 14.1075 6.3962C14.1878 7.0549 13.537 7.87631 13.1723 8.22722C11.8524 9.16621 10.6302 10.2354 9.52401 11.4188C9.47693 11.26 9.42206 11.1031 9.3652 10.9502C9.95921 10.6032 10.4336 9.97984 10.7375 9.13686C11.0414 8.30564 11.3786 6.52166 10.4885 5.72965C10.2971 5.56006 10.0578 5.45408 9.80352 5.42634C9.54928 5.3986 9.2927 5.45047 9.0692 5.57478C8.43366 5.89944 7.88053 6.36474 7.45185 6.93531C6.85588 6.62753 5.81293 6.25701 4.77193 6.67654C3.80938 7.06077 3.68195 7.79005 3.67216 8.08412C3.64275 9.02511 4.53277 9.87985 5.37379 10.2759C5.94253 10.5383 6.57439 10.6328 7.19503 10.5484C7.6623 11.2878 7.95278 12.125 8.04388 12.995C8.04631 13.056 8.05618 13.1166 8.07329 13.1753C7.62582 13.781 7.22413 14.4193 6.87156 15.0848C6.57074 14.5824 6.1373 14.1727 5.61885 13.9007C5.15529 13.6699 4.63699 13.5718 4.12117 13.6171C3.60535 13.6624 3.1121 13.8495 2.69589 14.1575C1.58823 14.9593 0.696251 16.7433 1.20595 17.8411C1.2883 18.0195 1.75881 18.8899 3.0213 18.5723C4.38182 18.2391 5.18365 17.0903 5.55807 16.3865C5.79763 17.0334 5.91271 17.7199 5.89724 18.4096C5.89981 18.4683 5.90702 18.5266 5.9188 18.5841C5.85706 19.5413 5.93632 20.5024 6.15404 21.4365C6.60293 23.4508 7.8279 25.2069 9.56321 26.3238L9.59065 26.3395C11.1786 27.1766 12.7861 27.4256 14.3643 27.0825C15.5659 26.8065 16.6797 26.2351 17.6048 25.4201C18.8284 26.3344 20.1941 27.0411 21.6472 27.5118C21.6609 27.5158 23.0764 27.9882 25.568 27.9667L25.6406 27.9745C25.6641 27.9764 25.6876 27.9784 25.7111 27.9784L25.7464 27.9804C26.5171 27.97 27.2849 27.8827 28.0382 27.7196C33.4215 26.5493 37.3031 21.5953 37.2658 15.9375C37.2404 12.3951 35.5975 8.80947 32.9745 6.57852ZM7.0813 8.52325C7.05681 8.66634 7.045 8.81133 7.04603 8.9565L7.04407 9.10157L6.899 9.11137C6.84803 9.11333 6.79902 9.11529 6.75001 9.11529C6.49103 9.11888 6.23451 9.06464 5.99915 8.9565C5.67273 8.80806 5.39285 8.57358 5.18952 8.27819L5.10522 8.1351L5.25225 8.06061C5.27433 8.04717 5.29805 8.03662 5.32282 8.02924C5.93057 7.78418 6.64021 8.13118 7.01076 8.36055L7.10093 8.41741L7.0813 8.52325ZM4.45831 15.2926C4.45439 15.3063 3.89957 16.8099 2.72921 17.1393L2.48808 17.2079L2.53121 16.9609C2.68002 16.3211 3.03978 15.7501 3.55258 15.3396C3.7146 15.2211 3.89954 15.1376 4.09561 15.0946C4.16523 15.0787 4.23607 15.0689 4.30735 15.0652L4.52496 15.0534L4.45831 15.2926ZM8.24777 8.54873C8.44273 7.96048 8.82838 7.45409 9.34364 7.10978L9.57888 6.94119L9.59262 7.22938C9.61226 7.8821 9.4616 8.52868 9.15545 9.10548C9.02735 9.36641 8.82108 9.5809 8.56536 9.7191L8.4301 9.78379L8.36147 9.65049C8.17941 9.31271 8.13853 8.91657 8.24777 8.54873ZM18.4753 21.7933C18.2874 22.3219 18.0117 22.815 17.6597 23.2519L17.5441 23.4028L17.4186 23.2577C16.694 22.462 16.2314 21.4628 16.0933 20.3955C16.0914 20.3857 16.0149 19.58 16.4462 19.1017C16.6193 18.9085 16.8469 18.7724 17.0991 18.7115C17.5049 18.6233 17.9009 18.8037 18.2753 19.2506C18.3537 19.3683 18.9301 20.3132 18.4753 21.7933ZM27.6618 25.9866C27.0419 26.1213 26.4101 26.1942 25.7759 26.2042L25.6974 26.1964C25.67 26.1944 25.6386 26.1925 25.6092 26.1925H25.5994C23.4449 26.214 22.2157 25.8318 22.204 25.8278C20.9996 25.434 19.862 24.8595 18.8301 24.1242C19.2833 23.5546 19.6354 22.9114 19.8711 22.2226C20.5788 19.925 19.5006 18.4469 19.4594 18.3939L19.428 18.3488C18.4321 17.1393 17.3461 17.1628 16.7893 17.2843C16.237 17.4093 15.7375 17.7032 15.3601 18.1254C14.4897 19.0958 14.625 20.4151 14.6446 20.5622C14.809 21.916 15.3876 23.1861 16.3012 24.1987C15.6323 24.7604 14.8393 25.1549 13.9879 25.3495C12.8332 25.6004 11.6373 25.4083 10.4415 24.7829C9.14242 23.9046 8.22687 22.5642 7.88119 21.0346C7.5208 19.5164 7.62531 17.9249 8.18114 16.4669C8.23798 16.3237 9.63183 12.9283 14.2525 9.63676C14.2799 9.61676 14.3061 9.59516 14.3309 9.57206C14.5113 9.40936 16.0796 7.93905 15.8679 6.18448C15.8125 5.72021 15.6346 5.27905 15.3523 4.90628C15.9836 4.70632 16.6403 4.53185 17.3108 4.38678C21.3277 3.51439 27.0541 3.36932 31.5179 7.64302L31.7728 7.88611L31.7904 7.90179C31.8002 7.90767 31.8081 7.91552 31.812 7.91747C32.9551 8.90447 33.8684 10.1296 34.4879 11.507C35.1321 12.901 35.4735 14.4157 35.4897 15.9513C35.523 20.7719 32.2315 24.9927 27.6618 25.9866Z" fill="#EF6079"/>
<path d="M30.7906 11.7285C30.4965 10.8855 29.9868 10.6366 29.6104 10.5758C29.2968 10.5248 28.6812 10.5562 28.095 11.3207C27.9085 11.5691 27.7538 11.8398 27.6343 12.1265C27.1289 11.7106 26.5291 11.4251 25.8876 11.2953C25.6489 11.244 25.4012 11.2536 25.1673 11.3231C24.9333 11.3927 24.7205 11.5199 24.5486 11.6932C24.1369 12.1402 24.0468 12.8989 24.3134 13.6752C24.529 14.3084 25.3034 15.8258 27.8304 16.3943C27.8149 16.8949 27.7532 17.393 27.6461 17.8822C27.6194 18.0116 27.6218 18.1453 27.653 18.2737C27.6841 18.402 27.7434 18.5219 27.8264 18.6246C27.9095 18.7274 28.0143 18.8104 28.1332 18.8678C28.2522 18.9252 28.3825 18.9555 28.5145 18.9566C28.5772 18.9563 28.6397 18.949 28.7008 18.935C28.8675 18.8988 29.0203 18.8155 29.1409 18.6948C29.2615 18.5742 29.3449 18.4214 29.381 18.2547C29.5781 17.3766 29.6428 16.474 29.5732 15.5768C30.1123 15.1122 31.4787 13.6928 30.7906 11.7285ZM29.1732 12.3166L29.3673 12.0049L29.4575 12.3598C29.5226 12.6434 29.5215 12.9381 29.4546 13.2213C29.3876 13.5044 29.2565 13.7684 29.0713 13.9928L28.8792 14.2457L28.7949 13.9418C28.6596 13.4537 28.9341 12.6989 29.1732 12.3166V12.3166ZM25.6308 12.9459L25.5955 12.7009L25.8327 12.7715C26.7096 13.1109 27.4259 13.7691 27.8382 14.6143L28.0009 14.9475L27.648 14.8319C26.6012 14.4888 26.0973 13.9477 25.8582 13.5537V13.5517C25.7432 13.3667 25.6659 13.1609 25.6308 12.9459V12.9459Z" fill="#EF6079"/>
</svg>
