<svg width="39" height="30" viewBox="0 0 39 30" fill="none" xmlns="http://www.w3.org/2000/svg">
<path d="M33.6969 6.57839L33.4617 6.35883C28.1744 1.29507 21.2894 1.86358 17.6548 2.65364C16.3936 2.91442 15.1596 3.29314 13.9692 3.7848C13.8175 3.85195 13.6877 3.9603 13.5945 4.09754C13.5012 4.23477 13.4483 4.3954 13.4418 4.56118C13.4353 4.72697 13.4754 4.89126 13.5575 5.03541C13.6396 5.17955 13.7606 5.29778 13.9065 5.37666C14.4731 5.68445 14.7848 6.02752 14.8299 6.39608C14.9102 7.05478 14.2594 7.87619 13.8947 8.2271C12.5748 9.16609 11.3526 10.2353 10.2464 11.4187C10.1993 11.2599 10.1445 11.103 10.0876 10.9501C10.6816 10.6031 11.1561 9.97971 11.4599 9.13674C11.7638 8.30552 12.101 6.52153 11.211 5.72952C11.0195 5.55994 10.7802 5.45396 10.5259 5.42622C10.2717 5.39848 10.0151 5.45034 9.79161 5.57466C9.15608 5.89932 8.60294 6.36462 8.17426 6.93519C7.57829 6.6274 6.53534 6.25689 5.49434 6.67641C4.5318 7.06065 4.40436 7.78993 4.39458 8.08399C4.36516 9.02499 5.25518 9.87973 6.0962 10.2757C6.66494 10.5382 7.2968 10.6327 7.91744 10.5482C8.38472 11.2877 8.67519 12.1249 8.76629 12.9948C8.76872 13.0559 8.7786 13.1165 8.7957 13.1752C8.34823 13.7809 7.94654 14.4192 7.59397 15.0846C7.29316 14.5823 6.85972 14.1726 6.34126 13.9005C5.87771 13.6698 5.3594 13.5717 4.84358 13.617C4.32777 13.6623 3.83451 13.8493 3.4183 14.1574C2.31064 14.9592 1.41866 16.7431 1.92837 17.841C2.01071 18.0194 2.48122 18.8898 3.74371 18.5722C5.10423 18.2389 5.90606 17.0901 6.28048 16.3863C6.52005 17.0333 6.63512 17.7198 6.61965 18.4095C6.62222 18.4681 6.62943 18.5265 6.64121 18.584C6.57947 19.5412 6.65873 20.5022 6.87645 21.4364C7.32535 23.4507 8.55031 25.2068 10.2856 26.3237L10.3131 26.3394C11.901 27.1765 13.5086 27.4254 15.0867 27.0824C16.2883 26.8064 17.4022 26.235 18.3272 25.42C19.5508 26.3343 20.9165 27.041 22.3696 27.5117C22.3834 27.5156 23.7988 27.9881 26.2905 27.9665L26.363 27.9744C26.3865 27.9763 26.41 27.9783 26.4336 27.9783L26.4689 27.9803C27.2395 27.9699 28.0073 27.8826 28.7606 27.7195C34.1439 26.5492 38.0255 21.5952 37.9882 15.9374C37.9628 12.3949 36.3199 8.80935 33.6969 6.57839ZM7.80372 8.52312C7.77922 8.66622 7.76741 8.81121 7.76844 8.95638L7.76648 9.10145L7.62141 9.11125C7.57044 9.11321 7.52143 9.11517 7.47242 9.11517C7.21344 9.11876 6.95692 9.06451 6.72156 8.95638C6.39514 8.80793 6.11526 8.57345 5.91193 8.27807L5.82763 8.13497L5.97466 8.06049C5.99674 8.04704 6.02046 8.0365 6.04523 8.02911C6.65298 7.78406 7.36262 8.13106 7.73317 8.36042L7.82334 8.41729L7.80372 8.52312ZM5.18072 15.2924C5.1768 15.3062 4.62199 16.8098 3.45162 17.1392L3.2105 17.2078L3.25362 16.9608C3.40243 16.321 3.76219 15.7499 4.27499 15.3395C4.43701 15.221 4.62196 15.1375 4.81803 15.0944C4.88764 15.0786 4.95848 15.0688 5.02977 15.065L5.24737 15.0533L5.18072 15.2924ZM8.97019 8.54861C9.16514 7.96036 9.55079 7.45397 10.0661 7.10966L10.3013 6.94107L10.315 7.22925C10.3347 7.88197 10.184 8.52856 9.87786 9.10536C9.74976 9.36628 9.54349 9.58078 9.28777 9.71897L9.15252 9.78367L9.08388 9.65036C8.90182 9.31258 8.86095 8.91645 8.97019 8.54861ZM19.1977 21.7932C19.0099 22.3218 18.7341 22.8149 18.3821 23.2517L18.2665 23.4027L18.141 23.2576C17.4164 22.4619 16.9538 21.4627 16.8158 20.3954C16.8138 20.3856 16.7374 19.5799 17.1686 19.1015C17.3417 18.9084 17.5694 18.7723 17.8215 18.7114C18.2273 18.6232 18.6233 18.8036 18.9977 19.2505C19.0761 19.3681 19.6525 20.3131 19.1977 21.7932ZM28.3842 25.9865C27.7643 26.1211 27.1326 26.194 26.4983 26.2041L26.4199 26.1963C26.3924 26.1943 26.361 26.1924 26.3316 26.1924H26.3218C24.1673 26.2139 22.9381 25.8316 22.9264 25.8277C21.722 25.4338 20.5845 24.8594 19.5525 24.1241C20.0057 23.5545 20.3578 22.9113 20.5935 22.2225C21.3012 19.9249 20.223 18.4468 20.1818 18.3938L20.1504 18.3487C19.1545 17.1392 18.0685 17.1627 17.5117 17.2842C16.9595 17.4091 16.4599 17.7031 16.0826 18.1252C15.2121 19.0956 15.3474 20.415 15.367 20.562C15.5314 21.9159 16.11 23.186 17.0236 24.1986C16.3547 24.7603 15.5618 25.1547 14.7103 25.3494C13.5556 25.6003 12.3597 25.4082 11.1639 24.7828C9.86484 23.9045 8.94928 22.5641 8.6036 21.0345C8.24321 19.5163 8.34772 17.9248 8.90355 16.4667C8.96039 16.3236 10.3542 12.9282 14.975 9.63664C15.0023 9.61664 15.0285 9.59504 15.0534 9.57194C15.2337 9.40924 16.8021 7.93892 16.5903 6.18436C16.5349 5.72009 16.357 5.27893 16.0747 4.90616C16.706 4.7062 17.3627 4.53173 18.0332 4.38666C22.0501 3.51427 27.7765 3.3692 32.2403 7.6429L32.4952 7.88599L32.5128 7.90167C32.5226 7.90755 32.5305 7.9154 32.5344 7.91735C33.6775 8.90435 34.5908 10.1295 35.2103 11.5069C35.8545 12.9009 36.1959 14.4156 36.2121 15.9511C36.2454 20.7718 32.9539 24.9926 28.3842 25.9865Z" fill="white"/>
<path d="M31.5133 11.7285C31.2192 10.8855 30.7095 10.6366 30.3331 10.5758C30.0195 10.5248 29.4039 10.5562 28.8177 11.3207C28.6313 11.5691 28.4765 11.8398 28.357 12.1265C27.8516 11.7106 27.2518 11.4251 26.6103 11.2953C26.3717 11.244 26.1239 11.2536 25.89 11.3231C25.656 11.3927 25.4433 11.5199 25.2713 11.6932C24.8596 12.1402 24.7695 12.8989 25.0361 13.6752C25.2517 14.3084 26.0261 15.8258 28.5531 16.3943C28.5376 16.8949 28.4759 17.393 28.3688 17.8822C28.3421 18.0116 28.3445 18.1453 28.3757 18.2737C28.4069 18.402 28.4661 18.5219 28.5492 18.6246C28.6322 18.7274 28.737 18.8104 28.856 18.8678C28.9749 18.9252 29.1052 18.9555 29.2373 18.9566C29.2999 18.9563 29.3624 18.949 29.4235 18.935C29.5902 18.8988 29.743 18.8155 29.8636 18.6948C29.9842 18.5742 30.0676 18.4214 30.1038 18.2547C30.3008 17.3766 30.3656 16.474 30.2959 15.5768C30.835 15.1122 32.2014 13.6928 31.5133 11.7285ZM29.896 12.3166L30.09 12.0049L30.1802 12.3598C30.2453 12.6434 30.2443 12.9381 30.1773 13.2213C30.1103 13.5044 29.9792 13.7684 29.794 13.9928L29.6019 14.2457L29.5176 13.9418C29.3823 13.4537 29.6568 12.6989 29.896 12.3166V12.3166ZM26.3535 12.9459L26.3182 12.7009L26.5554 12.7715C27.4323 13.1109 28.1487 13.7691 28.5609 14.6143L28.7236 14.9475L28.3708 14.8319C27.3239 14.4888 26.8201 13.9477 26.5809 13.5537V13.5517C26.4659 13.3667 26.3887 13.1609 26.3535 12.9459V12.9459Z" fill="white"/>
</svg>
