<svg width="50" height="50" viewBox="0 0 50 50" fill="none" xmlns="http://www.w3.org/2000/svg">
<path d="M48.3554 7.59018C48.3449 7.41526 48.3332 7.24034 48.3128 7.06913C48.2967 6.935 48.2751 6.80397 48.251 6.67231C48.2269 6.54066 48.2034 6.40715 48.1755 6.27673L38.8621 14.5746L35.6104 33.0173L42.8538 40.2601C42.8717 40.1723 42.8977 40.0864 42.9156 39.998L48.2312 9.84746C48.2881 9.52482 48.3264 9.20588 48.3548 8.89065C48.3635 8.78372 48.3622 8.67926 48.3672 8.57357C48.3764 8.36774 48.3851 8.16315 48.3814 7.96165C48.3733 7.83742 48.3628 7.7138 48.3554 7.59018Z" fill="#96BE0B"/>
<path d="M43.3611 0.598963L43.329 0.585981C43.0818 0.492649 42.8314 0.40921 42.5718 0.338748L42.5434 0.330712C42.0255 0.187339 41.4957 0.0911399 40.9605 0.0432968C40.6829 0.0191912 40.4042 3.05176e-05 40.1149 3.05176e-05H17.7233C12.2915 3.05176e-05 7.09207 4.4194 6.13527 9.85119L0.819675 40.0018C-0.138368 45.4336 3.50158 49.8529 8.93338 49.8529H31.3262C32.3117 49.849 33.2918 49.7073 34.2381 49.432L26.5292 41.3189H10.436C10.2711 41.3244 10.1073 41.292 9.95697 41.2242C9.80668 41.1563 9.67399 41.0548 9.56915 40.9275C9.46432 40.8002 9.39014 40.6505 9.35235 40.49C9.31456 40.3295 9.31417 40.1624 9.3512 40.0018L14.6668 9.85119C14.7396 9.4895 14.9321 9.16285 15.2132 8.92389C15.4943 8.68494 15.8477 8.54762 16.2164 8.53404H35.2963L44.0281 0.893792C43.8123 0.785008 43.5898 0.687969 43.3611 0.598963Z" fill="#96BE0B"/>
<path d="M44.0287 0.892548L35.2969 8.5328H35.4205L44.0484 0.903677C44.0577 0.908003 44.0682 0.911709 44.0775 0.916654L44.0503 0.901819L44.0287 0.892548Z" fill="#96BE0B"/>
<path d="M34.0354 25.7856H30.7032L30.8059 25.204H34.1355L34.0354 25.7856Z" fill="#FF9900" stroke="#FF9900" stroke-width="0.5" stroke-linecap="round" stroke-linejoin="round"/>
<path d="M26.9774 14.6933H26.3958L26.9829 11.3636H27.5646L26.9774 14.6933Z" fill="#FF9900" stroke="#FF9900" stroke-width="0.5" stroke-linecap="round" stroke-linejoin="round"/>
<path d="M48.2923 50H38.4226L24.7009 35.5033L30.2415 31.0888L48.2923 50Z" fill="#FF9900"/>
<path d="M23.7942 21.8681L26.1528 24.4079L49.1582 0.827026L23.7942 21.8681Z" fill="#FF9900"/>
<path opacity="0.28" fill-rule="evenodd" clip-rule="evenodd" d="M9.71381 41.0725C9.66126 41.029 9.61279 40.9805 9.56915 40.9275C9.46432 40.8002 9.39015 40.6505 9.35236 40.49C9.31456 40.3295 9.31417 40.1624 9.3512 40.0017L14.6668 9.85116C14.7396 9.48947 14.9321 9.16282 15.2132 8.92386C15.4943 8.68491 15.8477 8.54759 16.2164 8.53401H35.2963L44.0281 0.893761C43.8123 0.784977 43.5898 0.687938 43.3611 0.598933L43.329 0.585951C43.0818 0.492619 42.8314 0.40918 42.5718 0.338717L42.5434 0.330682C42.0255 0.187309 41.4957 0.0911093 40.9605 0.0432663C40.6829 0.0191607 40.4042 0 40.1149 0H17.7233C12.2915 0 7.09207 4.41936 6.13527 9.85116L0.819675 40.0017C0.173319 43.6664 1.61983 46.8702 4.29748 48.5669C5.82337 46.3657 7.64181 43.8247 9.71381 41.0725Z" fill="url(#paint0_linear_1771_720)"/>
<defs>
<linearGradient id="paint0_linear_1771_720" x1="32.7854" y1="34.0832" x2="3.28175" y2="8.26811" gradientUnits="userSpaceOnUse">
<stop stop-color="white"/>
<stop offset="1" stop-color="#96BE0B"/>
</linearGradient>
</defs>
</svg>
