<svg width="50" height="50" viewBox="0 0 50 50" fill="none" xmlns="http://www.w3.org/2000/svg">
<g clip-path="url(#clip0_2495_134746)">
<path d="M34.9671 6.96264C34.8119 6.96274 34.6597 6.91993 34.5273 6.83893C34.3949 6.75792 34.2875 6.64189 34.2169 6.50365C33.6244 5.34497 31.8603 3.84963 30.4974 3.07362C30.3034 2.96313 30.1613 2.7801 30.1022 2.56481C30.0432 2.34951 30.0721 2.11958 30.1826 1.9256C30.2931 1.73163 30.4761 1.58949 30.6914 1.53045C30.9067 1.47142 31.1366 1.50033 31.3306 1.61083C32.6212 2.34531 34.8532 4.05051 35.7157 5.73775C35.7812 5.86599 35.8128 6.00893 35.8074 6.15287C35.8019 6.29681 35.7596 6.43694 35.6845 6.55985C35.6094 6.68276 35.504 6.78434 35.3784 6.85486C35.2528 6.92539 35.1112 6.96249 34.9671 6.96264V6.96264Z" fill="white"/>
<path d="M42.3361 47.623H7.66999C7.19803 47.623 6.81543 48.0056 6.81543 48.4776V49.1453C6.81543 49.6173 7.19803 49.9999 7.66999 49.9999H42.3361C42.8081 49.9999 43.1907 49.6173 43.1907 49.1453V48.4776C43.1907 48.0056 42.8081 47.623 42.3361 47.623Z" fill="white"/>
<path d="M47.9449 30.6981V30.771L47.3108 38.3684C47.3006 39.2774 46.9327 40.1458 46.2866 40.7854C45.6406 41.4251 44.7686 41.7844 43.8595 41.7855H42.3445C42.1497 42.5648 41.7009 43.2571 41.0689 43.7529C40.4369 44.2488 39.6577 44.52 38.8544 44.5237H11.1527C10.3489 44.5194 9.56937 44.2481 8.93659 43.7524C8.30381 43.2567 7.85369 42.5648 7.65702 41.7855H6.17571C5.2664 41.7835 4.39432 41.4241 3.74768 40.7848C3.10103 40.1455 2.73167 39.2776 2.7193 38.3684L2.05664 30.771V30.6981C2.05783 29.7846 2.42126 28.9089 3.06722 28.2631C3.71318 27.6172 4.58893 27.2539 5.50238 27.2529H13.6322C13.9448 27.2549 14.2543 27.1917 14.541 27.0672C14.8277 26.9427 15.0852 26.7597 15.297 26.53C15.5089 26.3002 15.6704 26.0287 15.7713 25.7329C15.8722 25.4371 15.9102 25.1234 15.8828 24.8121L12.9538 13.8144C12.9403 13.7727 12.9325 13.7293 12.9308 13.6854C12.7291 11.7941 12.9661 9.88167 13.6234 8.09681C14.2808 6.31195 15.3408 4.70267 16.7211 3.39401C18.1014 2.08535 19.7649 1.11254 21.5822 0.551168C23.3995 -0.0102083 25.3218 -0.145037 27.1997 0.157158C27.3127 0.169854 27.422 0.205326 27.521 0.261432C27.6199 0.317538 27.7064 0.393113 27.7753 0.483594C27.8443 0.574075 27.8941 0.677585 27.9219 0.787872C27.9497 0.898159 27.9549 1.01293 27.9371 1.12527C27.9193 1.2376 27.8789 1.34516 27.8183 1.44146C27.7578 1.53775 27.6784 1.62078 27.5849 1.68552C27.4914 1.75027 27.3857 1.79539 27.2743 1.81817C27.1629 1.84094 27.048 1.84089 26.9366 1.81803C26.3686 1.72837 25.7946 1.68335 25.2196 1.68336C23.7258 1.68247 22.2485 1.9952 20.8832 2.60134C19.5179 3.20748 18.2951 4.09351 17.2938 5.2021C16.2926 6.31069 15.5353 7.61713 15.0709 9.0369C14.6065 10.4567 14.4453 11.9581 14.5979 13.4441L17.5263 24.4417C17.5391 24.4818 17.5468 24.5232 17.5493 24.5652C17.6108 25.1159 17.5552 25.6733 17.3863 26.201C17.2174 26.7288 16.939 27.2149 16.5692 27.6275C16.1994 28.0402 15.7466 28.37 15.2405 28.5956C14.7344 28.8211 14.1863 28.9372 13.6322 28.9362H5.50294C5.04169 28.9371 4.59909 29.1184 4.26976 29.4414C3.94042 29.7643 3.75048 30.2033 3.74052 30.6644L4.40318 38.2561V38.3291C4.40422 38.799 4.59136 39.2494 4.92365 39.5817C5.25595 39.914 5.70632 40.1011 6.17626 40.1022H8.39263V40.0966H41.6151V40.1022H43.8595C44.3289 40.1011 44.7788 39.9138 45.1103 39.5814C45.4418 39.249 45.6278 38.7986 45.6275 38.3291C45.6275 38.3066 45.6331 38.2842 45.6331 38.2618L46.2615 30.67C46.2523 30.2063 46.0613 29.7647 45.7296 29.4404C45.398 29.1161 44.9523 28.9351 44.4885 28.9362H37.1043C36.5531 28.9361 36.0081 28.8205 35.5042 28.597C35.0004 28.3734 34.5489 28.0469 34.1789 27.6383C33.8089 27.2297 33.5286 26.7482 33.356 26.2247C33.1833 25.7012 33.1222 25.1474 33.1766 24.5989C33.1771 24.5609 33.1828 24.5231 33.1934 24.4866L35.8587 13.3487C35.8867 13.0345 35.903 12.7034 35.903 12.35C35.9013 11.7425 35.8489 11.1363 35.7465 10.5376C35.7093 10.3174 35.761 10.0915 35.8904 9.90949C36.0198 9.7275 36.2162 9.60436 36.4363 9.56716C36.6565 9.52995 36.8824 9.58173 37.0644 9.71111C37.2464 9.84049 37.3696 10.0369 37.4068 10.257C37.526 10.9483 37.586 11.6485 37.5863 12.35C37.5867 12.7585 37.5663 13.1667 37.5252 13.5732C37.519 13.6124 37.5134 13.6461 37.5083 13.6854L34.8431 24.8177C34.8199 25.1241 34.8596 25.4321 34.96 25.7226C35.0604 26.013 35.2192 26.2799 35.4266 26.5066C35.6369 26.7435 35.8954 26.9326 36.1847 27.0613C36.4741 27.19 36.7876 27.2553 37.1043 27.2529H44.4885C45.4036 27.2517 46.2817 27.6139 46.9299 28.26C47.578 28.906 47.9431 29.7829 47.9449 30.6981Z" fill="white"/>
</g>
<defs>
<clipPath id="clip0_2495_134746">
<rect width="45.8877" height="50" fill="white" transform="translate(2.05664)"/>
</clipPath>
</defs>
</svg>
