<svg width="62" height="50" viewBox="0 0 62 50" fill="none" xmlns="http://www.w3.org/2000/svg">
<g clip-path="url(#clip0_2495_134746)">
<path d="M58.9077 42.4993H45.8916C45.6522 42.4993 45.4226 42.4042 45.2533 42.2349C45.084 42.0656 44.9889 41.836 44.9889 41.5966V40.9834C44.9889 40.6642 44.8621 40.3581 44.6364 40.1324C44.4107 39.9066 44.1045 39.7798 43.7853 39.7798C43.4661 39.7798 43.16 39.9066 42.9343 40.1324C42.7085 40.3581 42.5817 40.6642 42.5817 40.9834V41.5966C42.5817 41.836 42.4866 42.0656 42.3174 42.2349C42.1481 42.4042 41.9185 42.4993 41.6791 42.4993H25.1841C24.9446 42.4993 24.715 42.4042 24.5458 42.2349C24.3765 42.0656 24.2814 41.836 24.2814 41.5966C24.2814 41.3572 24.3765 41.1276 24.5458 40.9583C24.715 40.7891 24.9446 40.694 25.1841 40.694H40.7902C40.8619 39.9493 41.2084 39.258 41.7622 38.755C42.3159 38.252 43.0372 37.9733 43.7853 37.9733C44.5334 37.9733 45.2547 38.252 45.8085 38.755C46.3622 39.258 46.7087 39.9493 46.7804 40.694H58.9077C59.064 40.694 59.2139 40.6319 59.3245 40.5214C59.4351 40.411 59.4973 40.2611 59.4974 40.1048V35.113C59.5002 34.9764 59.4546 34.8432 59.3687 34.7369C59.2828 34.6307 59.1622 34.5582 59.028 34.5322C56.7342 34.2024 54.6362 33.0567 53.1187 31.3054C51.6012 29.554 50.7658 27.3143 50.7658 24.9969C50.7658 22.6795 51.6012 20.4398 53.1187 18.6885C54.6362 16.9371 56.7342 15.7914 59.028 15.4616C59.1622 15.4357 59.2829 15.3632 59.3689 15.2569C59.4549 15.1507 59.5006 15.0175 59.498 14.8809V9.89805C59.4979 9.74168 59.4357 9.59177 59.3251 9.48121C59.2145 9.37064 59.0646 9.30845 58.9083 9.30829H46.7804C46.7087 10.053 46.3622 10.7442 45.8085 11.2473C45.2547 11.7503 44.5334 12.029 43.7853 12.029C43.0372 12.029 42.3159 11.7503 41.7622 11.2473C41.2084 10.7442 40.8619 10.053 40.7902 9.30829H3.0918C2.93554 9.30861 2.78579 9.37087 2.67535 9.48142C2.56491 9.59197 2.50281 9.74179 2.50265 9.89805V14.8869C2.50001 15.0234 2.54563 15.1566 2.63149 15.2628C2.71736 15.369 2.83796 15.4416 2.97205 15.4676C5.26582 15.7975 7.36382 16.9431 8.88136 18.6945C10.3989 20.4458 11.2342 22.6856 11.2342 25.0029C11.2342 27.3203 10.3989 29.56 8.88136 31.3114C7.36382 33.0628 5.26582 34.2084 2.97205 34.5383C2.83791 34.5642 2.71723 34.6367 2.63135 34.743C2.54546 34.8492 2.49989 34.9824 2.50265 35.119V40.1078C2.50281 40.264 2.56493 40.4138 2.67539 40.5242C2.78584 40.6347 2.93559 40.6968 3.0918 40.697H6.59722C6.83663 40.697 7.06622 40.7921 7.23551 40.9614C7.4048 41.1306 7.4999 41.3602 7.4999 41.5996C7.4999 41.8391 7.4048 42.0687 7.23551 42.2379C7.06622 42.4072 6.83663 42.5023 6.59722 42.5023H3.0918C2.45698 42.5015 1.84839 42.249 1.39951 41.8001C0.950621 41.3512 0.698085 40.7426 0.697289 40.1078V35.113C0.694756 34.5415 0.897393 33.9881 1.26835 33.5535C1.63931 33.1188 2.15395 32.8317 2.71869 32.7443C4.58169 32.4754 6.28539 31.5441 7.51763 30.1211C8.74986 28.6982 9.42812 26.8789 9.42812 24.9966C9.42812 23.1143 8.74986 21.295 7.51763 19.8721C6.28539 18.4491 4.58169 17.5179 2.71869 17.2489C2.15411 17.1616 1.63962 16.8745 1.26877 16.4399C0.897928 16.0054 0.695351 15.4521 0.697886 14.8809V9.89805C0.698523 9.26312 0.950989 8.65438 1.39989 8.20536C1.8488 7.75634 2.45748 7.50373 3.0924 7.50293H41.6797C41.9191 7.50293 42.1487 7.59804 42.318 7.76732C42.4872 7.93661 42.5823 8.16621 42.5823 8.40561V9.01944C42.5823 9.33864 42.7092 9.64478 42.9349 9.87049C43.1606 10.0962 43.4667 10.223 43.7859 10.223C44.1051 10.223 44.4113 10.0962 44.637 9.87049C44.8627 9.64478 44.9895 9.33864 44.9895 9.01944V8.40561C44.9895 8.16621 45.0846 7.93661 45.2539 7.76732C45.4232 7.59804 45.6528 7.50293 45.8922 7.50293H58.9083C59.5433 7.50357 60.1521 7.75611 60.6012 8.20515C61.0502 8.65418 61.3027 9.26302 61.3034 9.89805V14.8869C61.3059 15.4582 61.1032 16.0115 60.7323 16.4461C60.3613 16.8807 59.8467 17.1677 59.282 17.2549C57.419 17.5239 55.7153 18.4552 54.483 19.8781C53.2508 21.301 52.5725 23.1203 52.5725 25.0026C52.5725 26.8849 53.2508 28.7042 54.483 30.1272C55.7153 31.5501 57.419 32.4814 59.282 32.7503C59.8466 32.8378 60.3611 33.125 60.7319 33.5597C61.1028 33.9943 61.3053 34.5476 61.3028 35.119V40.1078C61.3012 40.7422 61.0482 41.3501 60.5993 41.7984C60.1504 42.2466 59.5421 42.4987 58.9077 42.4993V42.4993Z" fill="white"/>
<path d="M10.79 41.5972H18.0103" stroke="white" stroke-width="1.5" stroke-linecap="round" stroke-linejoin="round"/>
<path d="M30.3309 34.4508C30.0831 34.4507 29.8391 34.39 29.6202 34.2739L25.1844 31.9438L20.751 34.2703C20.4985 34.4029 20.214 34.4624 19.9295 34.4422C19.645 34.422 19.3717 34.3229 19.1405 34.156C18.9092 33.9891 18.729 33.761 18.6202 33.4974C18.5113 33.2337 18.4782 32.945 18.5244 32.6635L19.3723 27.7211L15.7881 24.2241C15.584 24.025 15.4396 23.7729 15.3711 23.4962C15.3025 23.2195 15.3126 22.9292 15.4002 22.6579C15.4878 22.3866 15.6493 22.1452 15.8667 21.9608C16.0841 21.7763 16.3486 21.6563 16.6306 21.6141L21.5887 20.892L23.8099 16.3996C23.9359 16.145 24.1307 15.9309 24.3723 15.7816C24.6139 15.6322 24.8925 15.5536 25.1766 15.5547H25.185C25.469 15.5539 25.7477 15.6323 25.9897 15.7811C26.2316 15.9299 26.4273 16.1433 26.5547 16.3972L28.774 20.8974L33.7328 21.6195C34.0149 21.6617 34.2797 21.7818 34.4973 21.9663C34.7149 22.1509 34.8765 22.3926 34.9641 22.6641C35.0517 22.9356 35.0617 23.2262 34.993 23.5031C34.9243 23.78 34.7796 24.0322 34.5753 24.2313L30.9916 27.7271L31.8384 32.6617C31.8753 32.8813 31.864 33.1063 31.8053 33.3211C31.7466 33.5359 31.6419 33.7354 31.4984 33.9057C31.355 34.076 31.1762 34.2131 30.9745 34.3074C30.7728 34.4018 30.5529 34.4511 30.3303 34.4521L30.3309 34.4508ZM17.4502 23.3214L20.9761 26.7612C21.0808 26.8633 21.1591 26.9894 21.2043 27.1285C21.2494 27.2676 21.2601 27.4156 21.2354 27.5598L20.4026 32.4168L24.7637 30.1228C24.8936 30.0543 25.0382 30.0185 25.185 30.0185C25.3318 30.0185 25.4764 30.0543 25.6062 30.1228L29.9674 32.4144L29.1351 27.5604C29.1104 27.4162 29.1211 27.2682 29.1663 27.1291C29.2115 26.99 29.2898 26.8639 29.3945 26.7618L32.921 23.3214L28.0465 22.6143C27.9015 22.5932 27.7638 22.5371 27.6454 22.451C27.5269 22.3648 27.4312 22.2511 27.3665 22.1196L25.188 17.7031L23.0035 22.1208C22.9388 22.2519 22.8432 22.3653 22.7249 22.4512C22.6067 22.5372 22.4693 22.5931 22.3247 22.6143L17.4502 23.3214Z" fill="white"/>
<path d="M43.7853 37.0418C42.9876 37.0408 42.2228 36.7235 41.6587 36.1594C41.0946 35.5954 40.7773 34.8306 40.7764 34.0328V28.4723C40.7764 27.6743 41.0934 26.909 41.6577 26.3447C42.222 25.7804 42.9873 25.4634 43.7853 25.4634C44.5833 25.4634 45.3487 25.7804 45.913 26.3447C46.4772 26.909 46.7942 27.6743 46.7942 28.4723V34.0328C46.7933 34.8306 46.476 35.5954 45.9119 36.1594C45.3478 36.7235 44.583 37.0408 43.7853 37.0418V37.0418ZM43.7853 27.2687C43.4661 27.2687 43.16 27.3956 42.9343 27.6213C42.7085 27.847 42.5817 28.1531 42.5817 28.4723V34.0328C42.5817 34.3521 42.7085 34.6582 42.9343 34.8839C43.16 35.1096 43.4661 35.2364 43.7853 35.2364C44.1045 35.2364 44.4107 35.1096 44.6364 34.8839C44.8621 34.6582 44.9889 34.3521 44.9889 34.0328V28.4723C44.9889 28.1531 44.8621 27.847 44.6364 27.6213C44.4107 27.3956 44.1045 27.2687 43.7853 27.2687Z" fill="white"/>
<path d="M43.7853 24.5364C42.9876 24.5355 42.2228 24.2181 41.6587 23.6541C41.0946 23.09 40.7773 22.3252 40.7764 21.5275V15.9669C40.7764 15.1689 41.0934 14.4036 41.6577 13.8393C42.222 13.275 42.9873 12.958 43.7853 12.958C44.5833 12.958 45.3487 13.275 45.913 13.8393C46.4772 14.4036 46.7942 15.1689 46.7942 15.9669V21.5275C46.7933 22.3252 46.476 23.09 45.9119 23.6541C45.3478 24.2181 44.583 24.5355 43.7853 24.5364V24.5364ZM43.7853 14.7634C43.4661 14.7634 43.16 14.8902 42.9343 15.1159C42.7085 15.3416 42.5817 15.6477 42.5817 15.9669V21.5275C42.5817 21.8467 42.7085 22.1528 42.9343 22.3785C43.16 22.6042 43.4661 22.731 43.7853 22.731C44.1045 22.731 44.4107 22.6042 44.6364 22.3785C44.8621 22.1528 44.9889 21.8467 44.9889 21.5275V15.9669C44.9889 15.6477 44.8621 15.3416 44.6364 15.1159C44.4107 14.8902 44.1045 14.7634 43.7853 14.7634Z" fill="white"/>
</g>
<defs>
<clipPath id="clip0_2495_134746">
<rect width="60.6055" height="35" fill="white" transform="translate(0.697266 7.5)"/>
</clipPath>
</defs>
</svg>
