<svg width="48" height="40" viewBox="0 0 48 40" fill="none" xmlns="http://www.w3.org/2000/svg">
<g clip-path="url(#clip0_1261_16200)">
<path d="M46.4686 16.3403C46.3273 16.3405 46.1874 16.3127 46.0568 16.2588C45.9263 16.2048 45.8076 16.1257 45.7077 16.0258C45.6077 15.926 45.5285 15.8074 45.4744 15.6769C45.4203 15.5464 45.3924 15.4065 45.3924 15.2652V6.15123H36.0491L33.3951 10.2748C33.2977 10.4262 33.1639 10.5507 33.0059 10.6369C32.848 10.7231 32.6709 10.7683 32.4909 10.7683C32.311 10.7683 32.1339 10.7231 31.9759 10.6369C31.8179 10.5507 31.6841 10.4262 31.5868 10.2748L28.9327 6.15123H2.35759V15.2652C2.34885 15.5447 2.23169 15.8098 2.03093 16.0043C1.83017 16.1989 1.56156 16.3077 1.28198 16.3077C1.00239 16.3077 0.733782 16.1989 0.53302 16.0043C0.332259 15.8098 0.2151 15.5447 0.20636 15.2652V5.07509C0.206639 4.78986 0.320145 4.51642 0.521929 4.31483C0.723713 4.11324 0.997279 4 1.2825 4H29.5155C29.6954 4.00018 29.8723 4.04544 30.0301 4.13162C30.188 4.21781 30.3217 4.34216 30.4191 4.49335L32.4872 7.70599L34.5532 4.49335C34.6507 4.34201 34.7846 4.21756 34.9427 4.13136C35.1007 4.04517 35.2779 4 35.4579 4H46.4686C46.7536 4.00028 47.0269 4.11366 47.2285 4.31522C47.43 4.51677 47.5434 4.79004 47.5436 5.07509V15.2652C47.5436 15.4064 47.5158 15.5462 47.4618 15.6766C47.4078 15.8071 47.3286 15.9256 47.2288 16.0254C47.1289 16.1253 47.0104 16.2044 46.88 16.2585C46.7495 16.3125 46.6098 16.3403 46.4686 16.3403Z" fill="#333F48"/>
<path d="M46.4686 36H35.4579C35.2778 36 35.1005 35.9547 34.9424 35.8683C34.7844 35.7819 34.6505 35.6572 34.5532 35.5056L32.4872 32.2909L30.4202 35.5056C30.3228 35.6571 30.189 35.7818 30.0309 35.8682C29.8728 35.9546 29.6956 35.9999 29.5155 36H1.2825C0.997088 36 0.723366 35.8866 0.521551 35.6848C0.319737 35.483 0.206352 35.2093 0.206352 34.9238V24.7348C0.201845 24.5907 0.226347 24.4472 0.278374 24.3127C0.3304 24.1783 0.408899 24.0557 0.509224 23.9522C0.609549 23.8486 0.729642 23.7664 0.862385 23.7102C0.995129 23.654 1.13782 23.625 1.28197 23.625C1.42612 23.625 1.56881 23.654 1.70155 23.7102C1.83429 23.7664 1.95439 23.8486 2.05471 23.9522C2.15503 24.0557 2.23355 24.1783 2.28558 24.3127C2.3376 24.4472 2.36209 24.5907 2.35758 24.7348V33.8509H28.9275L31.5815 29.7231C31.6791 29.5715 31.8132 29.4469 31.9714 29.3605C32.1296 29.2741 32.307 29.2288 32.4872 29.2286C32.6673 29.2289 32.8445 29.2742 33.0025 29.3606C33.1606 29.447 33.2945 29.5716 33.3919 29.7231L36.0491 33.8509H45.3966V24.7369C45.3966 24.5956 45.4245 24.4558 45.4785 24.3253C45.5326 24.1948 45.6118 24.0762 45.7117 23.9763C45.8116 23.8764 45.9301 23.7972 46.0606 23.7431C46.1911 23.6891 46.331 23.6613 46.4722 23.6613C46.6135 23.6613 46.7534 23.6891 46.8839 23.7431C47.0144 23.7972 47.1329 23.8764 47.2328 23.9763C47.3327 24.0762 47.4119 24.1948 47.466 24.3253C47.52 24.4558 47.5479 24.5956 47.5479 24.7369V34.926C47.5476 35.0674 47.5194 35.2073 47.465 35.3378C47.4106 35.4684 47.331 35.5869 47.2308 35.6867C47.1306 35.7864 47.0117 35.8654 46.8809 35.9192C46.7501 35.973 46.61 36.0004 46.4686 36Z" fill="#333F48"/>
<path d="M32.4252 14.8855C32.2839 14.8857 32.144 14.8579 32.0134 14.804C31.8829 14.75 31.7642 14.6708 31.6643 14.571C31.5643 14.4711 31.4851 14.3526 31.431 14.2221C31.3769 14.0916 31.349 13.9517 31.349 13.8104V9.95927C31.349 9.674 31.4624 9.40041 31.6641 9.19869C31.8658 8.99697 32.1394 8.88367 32.4246 8.88367C32.7099 8.88367 32.9835 8.99697 33.1852 9.19869C33.3869 9.40041 33.5003 9.674 33.5003 9.95927V13.8104C33.5003 14.0956 33.387 14.369 33.1854 14.5706C32.9838 14.7722 32.7103 14.8855 32.4252 14.8855Z" fill="#333F48"/>
<path d="M32.4252 23.4367C32.1399 23.4367 31.8664 23.3235 31.6646 23.1219C31.4628 22.9203 31.3493 22.6469 31.349 22.3617V18.5094C31.349 18.2242 31.4624 17.9506 31.6641 17.7489C31.8658 17.5471 32.1394 17.4338 32.4246 17.4338C32.7099 17.4338 32.9835 17.5471 33.1852 17.7489C33.3869 17.9506 33.5003 18.2242 33.5003 18.5094V22.3617C33.5 22.6467 33.3866 22.92 33.1851 23.1215C32.9835 23.3231 32.7102 23.4365 32.4252 23.4367Z" fill="#333F48"/>
<path d="M32.4252 31.989C32.2839 31.9891 32.144 31.9615 32.0134 31.9075C31.8829 31.8535 31.7642 31.7743 31.6643 31.6745C31.5643 31.5746 31.4851 31.4561 31.431 31.3256C31.3769 31.1951 31.349 31.0552 31.349 30.9139V27.0628C31.349 26.7775 31.4624 26.5039 31.6641 26.3022C31.8658 26.1005 32.1394 25.9872 32.4246 25.9872C32.7099 25.9872 32.9835 26.1005 33.1852 26.3022C33.3869 26.5039 33.5003 26.7775 33.5003 27.0628V30.9139C33.5003 31.1991 33.387 31.4725 33.1854 31.6741C32.9838 31.8758 32.7103 31.989 32.4252 31.989Z" fill="#333F48"/>
<path d="M1.28251 25.8099C0.99724 25.8099 0.723649 25.6966 0.521933 25.4949C0.320218 25.2932 0.206894 25.0196 0.206894 24.7343C0.206894 24.449 0.320218 24.1754 0.521933 23.9737C0.723649 23.772 0.99724 23.6587 1.28251 23.6587C1.76826 23.6669 2.25078 23.5784 2.70194 23.3982C3.15311 23.218 3.56389 22.9498 3.91032 22.6092C4.25675 22.2686 4.53189 21.8624 4.71971 21.4143C4.90752 20.9663 5.00425 20.4853 5.00425 19.9995C5.00425 19.5137 4.90752 19.0327 4.71971 18.5847C4.53189 18.1366 4.25675 17.7305 3.91032 17.3899C3.56389 17.0493 3.15311 16.7811 2.70194 16.6009C2.25078 16.4207 1.76826 16.3321 1.28251 16.3404C0.99738 16.3404 0.723919 16.2271 0.522302 16.0255C0.320685 15.8238 0.207424 15.5504 0.207424 15.2653C0.207424 14.9801 0.320685 14.7067 0.522302 14.5051C0.723919 14.3035 0.99738 14.1902 1.28251 14.1902C2.82338 14.1902 4.30114 14.8023 5.3907 15.8919C6.48026 16.9814 7.09237 18.4592 7.09237 20.0001C7.09237 21.5409 6.48026 23.0187 5.3907 24.1082C4.30114 25.1978 2.82338 25.8099 1.28251 25.8099Z" fill="#333F48"/>
<path d="M46.4686 25.8099C44.9277 25.8099 43.4499 25.1978 42.3604 24.1082C41.2708 23.0187 40.6587 21.5409 40.6587 20.0001C40.6587 18.4592 41.2708 16.9814 42.3604 15.8919C43.4499 14.8023 44.9277 14.1902 46.4686 14.1902C46.7537 14.1902 47.0271 14.3035 47.2288 14.5051C47.4304 14.7067 47.5436 14.9801 47.5436 15.2653C47.5436 15.5504 47.4304 15.8238 47.2288 16.0255C47.0271 16.2271 46.7537 16.3404 46.4686 16.3404C45.9828 16.3321 45.5003 16.4207 45.0491 16.6009C44.598 16.7811 44.1872 17.0493 43.8408 17.3899C43.4943 17.7305 43.2192 18.1366 43.0314 18.5847C42.8436 19.0327 42.7468 19.5137 42.7468 19.9995C42.7468 20.4853 42.8436 20.9663 43.0314 21.4143C43.2192 21.8624 43.4943 22.2686 43.8408 22.6092C44.1872 22.9498 44.598 23.218 45.0491 23.3982C45.5003 23.5784 45.9828 23.6669 46.4686 23.6587C46.7538 23.6587 47.0274 23.772 47.2291 23.9737C47.4308 24.1754 47.5442 24.449 47.5442 24.7343C47.5442 25.0196 47.4308 25.2932 47.2291 25.4949C47.0274 25.6966 46.7538 25.8099 46.4686 25.8099Z" fill="#333F48"/>
<path d="M26.0557 21.5116H18.7457C18.4606 21.5116 18.1872 21.3983 17.9855 21.1967C17.7839 20.9951 17.6707 20.7217 17.6707 20.4365C17.6707 20.1514 17.7839 19.878 17.9855 19.6763C18.1872 19.4747 18.4606 19.3615 18.7457 19.3615H26.0557C26.3408 19.3615 26.6143 19.4747 26.8159 19.6763C27.0175 19.878 27.1307 20.1514 27.1307 20.4365C27.1307 20.7217 27.0175 20.9951 26.8159 21.1967C26.6143 21.3983 26.3408 21.5116 26.0557 21.5116Z" fill="#333F48"/>
<path d="M26.4765 26.7283H11.9713C11.6918 26.7196 11.4267 26.6024 11.2322 26.4016C11.0376 26.2009 10.9288 25.9322 10.9288 25.6527C10.9288 25.3731 11.0376 25.1045 11.2322 24.9037C11.4267 24.7029 11.6918 24.5858 11.9713 24.5771H26.4765C26.6205 24.5726 26.7641 24.597 26.8985 24.6491C27.0329 24.7011 27.1555 24.7796 27.2591 24.8799C27.3626 24.9802 27.4449 25.1004 27.5011 25.2331C27.5573 25.3659 27.5862 25.5085 27.5862 25.6527C27.5862 25.7968 27.5573 25.9395 27.5011 26.0722C27.4449 26.205 27.3626 26.3251 27.2591 26.4254C27.1555 26.5257 27.0329 26.6043 26.8985 26.6563C26.7641 26.7083 26.6205 26.7328 26.4765 26.7283Z" fill="#333F48"/>
</g>
<defs>
<clipPath id="clip0_1261_16200">
<rect width="47.3373" height="32" fill="white" transform="translate(0.20636 4)"/>
</clipPath>
</defs>
</svg>
