<svg width="41" height="40" viewBox="0 0 41 40" fill="none" xmlns="http://www.w3.org/2000/svg">
<g clip-path="url(#clip0_758_2952)">
<path d="M25.605 35.054C23.9127 35.6617 22.0743 36.0001 20.1666 36.0001C18.2589 36.0001 16.4204 35.6617 14.7281 35.054C14.6358 35.0463 14.6819 35.0386 14.6666 35.0309C12.3512 34.1847 10.2896 32.8155 8.62041 31.077C5.86195 28.2001 4.16656 24.3001 4.16656 20.0001C4.16656 11.1632 11.3281 4.00012 20.1666 4.00012C29.005 4.00012 36.1666 11.1632 36.1666 20.0001C36.1666 24.3001 34.405 28.2001 31.7127 31.077C31.6358 31.154 31.5589 31.2386 31.4819 31.3155C29.8358 32.954 27.8358 34.2463 25.605 35.054ZM18.6204 12.5463V13.077C18.1896 13.1694 17.7127 13.3001 17.3973 13.4694C16.2512 13.9924 15.2512 14.9617 15.005 16.3694C14.8666 17.154 14.9435 17.9155 15.2666 18.6001C15.5896 19.277 16.0896 19.754 16.5973 20.1001C17.4896 20.7078 18.6666 21.0617 19.5666 21.3309L19.7358 21.377C20.8127 21.7078 21.5358 21.9463 21.9896 22.277C22.1819 22.4155 22.2512 22.5232 22.2743 22.5924C22.305 22.654 22.3512 22.7924 22.2973 23.1001C22.2512 23.3694 22.105 23.6001 21.6819 23.777C21.2127 23.977 20.4512 24.077 19.4666 23.9232C19.005 23.8463 18.1819 23.5694 17.4512 23.3232C17.2819 23.2617 17.1127 23.2078 16.9589 23.154C16.1512 22.8847 15.2819 23.3232 15.0127 24.1309C14.7435 24.9386 15.1819 25.8078 15.9896 26.0078C16.0819 26.1078 16.1973 26.1463 16.3281 26.1924C16.8666 26.4001 17.8896 26.7232 18.6204 26.8924V27.3847C18.6204 28.2386 19.3127 28.9309 20.0973 28.9309C21.0204 28.9309 21.7127 28.2386 21.7127 27.3847V26.9617C22.1204 26.8847 22.5204 26.7001 22.8896 26.6078C24.105 26.0924 25.0743 25.0924 25.3281 23.6309C25.4666 22.8309 25.405 22.0617 25.0973 21.3617C24.7973 20.6694 24.3127 20.1617 23.7973 19.7924C22.8666 19.1078 21.6204 18.7386 20.6896 18.454L20.5589 18.4386C19.5358 18.1078 18.7973 17.877 18.3281 17.554C18.1281 17.4155 18.0666 17.3232 18.0512 17.2847C18.0358 17.254 17.9896 17.1617 18.0358 16.9001C18.0666 16.7463 18.1819 16.4924 18.6666 16.277C19.0973 16.054 19.9281 15.9309 20.8666 16.0078C21.205 16.1309 22.2435 16.3309 22.5435 16.4078C23.3589 16.6309 24.205 16.1386 24.4204 15.3155C24.6435 14.5001 24.1512 13.654 23.3281 13.4386C22.9896 13.3463 22.2204 13.1924 21.7127 13.1001V12.6155C21.7127 11.7617 21.0204 11.0694 20.1666 11.0694C19.3127 11.0694 18.6204 11.7617 18.6204 12.6155V12.5463Z" fill="#96BE0B"/>
</g>
<path d="M0.166656 0H40.1667H0.166656ZM41.6667 20.75C41.6667 32.2099 32.3766 41.5 20.9167 41.5C9.45675 41.5 0.166656 32.2099 0.166656 20.75V20C0.166656 30.2173 9.12096 38.5 20.1667 38.5C30.3839 38.5 38.6667 30.2173 38.6667 20L41.6667 20.75ZM0.166656 40V0V40ZM20.9167 0C32.3766 0 41.6667 9.29009 41.6667 20.75C41.6667 32.2099 32.3766 41.5 20.9167 41.5L20.1667 38.5C30.3839 38.5 38.6667 30.2173 38.6667 20C38.6667 8.9543 30.3839 0 20.1667 0H20.9167Z" fill="#FF9900" mask="url(#path-1-inside-1_758_2952)"/>
<defs>
<clipPath id="clip0_758_2952">
<rect width="32" height="32" fill="white" transform="translate(4.16666 4)"/>
</clipPath>
</defs>
</svg>
