<?xml version="1.0" encoding="utf-8"?>
<!-- Generator: Adobe Illustrator 26.4.1, SVG Export Plug-In . SVG Version: 6.00 Build 0)  -->
<svg version="1.1" id="圖層_1" xmlns="http://www.w3.org/2000/svg" xmlns:xlink="http://www.w3.org/1999/xlink" x="0px" y="0px"
	 viewBox="0 0 31 24" style="enable-background:new 0 0 31 24;" xml:space="preserve">
<style type="text/css">
	.st0{fill:#FF9900;}
</style>
<path class="st0" d="M20.2,24H7.8c-0.7,0-1.3-0.6-1.3-1.3c0-3.4,3-6.2,6.7-6.2h5L18,17.1c-0.1,0.6-0.2,1.1-0.2,1.6
	c0,1.6,0.6,3.2,1.7,4.4L20.2,24z M13.2,17.5c-3.1,0-5.7,2.4-5.7,5.2c0,0.1,0.1,0.3,0.3,0.3H18c-0.8-1.3-1.3-2.7-1.3-4.2
	c0-0.4,0-0.8,0.1-1.2H13.2z M24.5,24c-0.3,0-0.6,0-0.9-0.1l-0.4-0.1l0-1.3c-0.5-0.2-0.9-0.4-1.3-0.7l-1.1,0.6l-0.3-0.3
	c-0.4-0.5-0.7-1-0.9-1.6l-0.1-0.4l1.1-0.6c-0.1-0.5-0.1-1,0-1.5l-1.1-0.6l0.1-0.4c0.2-0.6,0.5-1.1,0.9-1.6l0.3-0.3l1.1,0.6
	c0.4-0.3,0.8-0.6,1.3-0.7v-1.3l0.4-0.1c0.6-0.1,1.2-0.1,1.8,0l0.4,0.1v1.3c0.5,0.2,0.9,0.4,1.3,0.7l1.1-0.6l0.3,0.3
	c0.4,0.5,0.7,1,0.9,1.6l0.1,0.4l-1,0.6c0.1,0.5,0.1,1,0,1.5l1.1,0.6l-0.1,0.4c-0.2,0.6-0.5,1.1-0.9,1.6l-0.3,0.3l-1.1-0.6
	c-0.4,0.3-0.8,0.6-1.3,0.7v1.3l-0.4,0.1C25.1,23.9,24.8,24,24.5,24z M24.1,22.9c0.2,0,0.5,0,0.7,0v-1.1l0.7-0.2
	c0.4-0.1,0.7-0.3,1-0.6l0.5-0.5l1,0.6c0.1-0.2,0.3-0.4,0.4-0.6l-1-0.6l0.1-0.7c0.1-0.4,0.1-0.8,0-1.1l-0.1-0.7l0.9-0.5
	c-0.1-0.2-0.2-0.4-0.4-0.6l-1,0.6l-0.5-0.5c-0.3-0.2-0.6-0.4-1-0.6l-0.7-0.2v-1.2c-0.2,0-0.4,0-0.7,0v1.1l-0.7,0.2
	c-0.4,0.1-0.7,0.3-1,0.6L22,16.8l-1-0.6c-0.1,0.2-0.3,0.4-0.4,0.6l1,0.6l-0.1,0.7c-0.1,0.4-0.1,0.8,0,1.1l0.1,0.7l-1,0.6
	c0.1,0.2,0.2,0.4,0.4,0.6l1-0.6l0.5,0.5c0.3,0.2,0.6,0.4,1,0.6l0.7,0.2V22.9z M24.5,21.2c-1.4,0-2.5-1.1-2.5-2.5s1.1-2.5,2.5-2.5
	s2.5,1.1,2.5,2.5S25.9,21.2,24.5,21.2z M24.5,17.2c-0.8,0-1.5,0.7-1.5,1.5s0.7,1.5,1.5,1.5s1.5-0.7,1.5-1.5S25.3,17.2,24.5,17.2z
	 M15.5,15c-1.3,0-2.5-0.5-3.5-1.4c-0.9-0.9-1.4-2.1-1.4-3.4v0c0-2.7,2.2-4.9,4.8-4.9c2.7,0,4.8,2.2,4.8,4.9S18.2,15,15.5,15z
	 M15.5,6.2c-2.1,0-3.8,1.7-3.8,3.9v0c0,1,0.4,2,1.1,2.7c0.7,0.7,1.7,1.1,2.7,1.1c2.1,0,3.8-1.7,3.8-3.9S17.6,6.2,15.5,6.2z
	 M29.5,14.3l-0.2-0.2c-1.8-1.9-4.6-2.6-7.1-1.7l-0.9,0.3l0.3-1c0.2-0.5,0.2-1.1,0.2-1.7c0-0.1,0-0.2,0-0.4l0-0.4l0.4-0.1
	C22.6,9.1,23,9,23.5,9h2.9c2.3,0,4.1,2,4.1,4.4c0,0.4-0.3,0.8-0.7,0.9L29.5,14.3z M24.5,11c1.8,0,3.6,0.6,5,1.8
	c-0.2-1.6-1.5-2.8-3.1-2.8h-2.9c-0.2,0-0.4,0-0.6,0.1c0,0,0,0,0,0.1c0,0.4,0,0.7-0.1,1.1C23.3,11.1,23.9,11,24.5,11z M10.6,14.2H1.3
	c-0.5,0-0.8-0.4-0.8-0.9C0.5,11,2.4,9,4.6,9h2.9C8,9,8.4,9.1,8.8,9.2l0.4,0.1l0,0.4c0,0.1,0,0.3,0,0.4c0,1.2,0.3,2.3,1,3.4
	L10.6,14.2z M1.5,13.2h7.3c-0.5-1-0.7-2-0.7-3.1c0,0,0-0.1,0-0.1c-0.2,0-0.4,0-0.6,0H4.6C2.9,10,1.6,11.4,1.5,13.2z M24.5,7.5
	c-2.1,0-3.8-1.7-3.8-3.8S22.4,0,24.5,0s3.8,1.7,3.8,3.8S26.6,7.5,24.5,7.5z M24.5,1c-1.5,0-2.8,1.2-2.8,2.8s1.2,2.8,2.8,2.8
	s2.8-1.2,2.8-2.8S26,1,24.5,1z M6.5,7.5c-2.1,0-3.8-1.7-3.8-3.8S4.4,0,6.5,0s3.8,1.7,3.8,3.8S8.6,7.5,6.5,7.5z M6.5,1
	C5,1,3.8,2.2,3.8,3.8S5,6.5,6.5,6.5s2.8-1.2,2.8-2.8S8,1,6.5,1z"/>
</svg>
