<svg width="41" height="40" viewBox="0 0 41 40" fill="none" xmlns="http://www.w3.org/2000/svg">
<rect x="0.5" width="40" height="40" rx="20" fill="#F2F1F6"/>
<path d="M26.1476 20.5693C26.138 18.9299 26.8808 17.6944 28.3807 16.7834C27.5418 15.5815 26.2726 14.9205 24.5996 14.7931C23.0155 14.6681 21.2824 15.7161 20.6478 15.7161C19.9772 15.7161 18.4436 14.8364 17.2369 14.8364C14.7466 14.8748 12.1001 16.8218 12.1001 20.7832C12.1001 21.9539 12.314 23.163 12.7419 24.4081C13.314 26.0475 15.3764 30.0641 17.5278 29.9992C18.6527 29.9728 19.4484 29.2012 20.9123 29.2012C22.3329 29.2012 23.0684 29.9992 24.3232 29.9992C26.4938 29.968 28.3591 26.3167 28.9023 24.6725C25.9914 23.3 26.1476 20.6534 26.1476 20.5693ZM23.6213 13.2379C24.84 11.7908 24.7294 10.4735 24.6934 10C23.6165 10.0625 22.3713 10.7331 21.6622 11.5576C20.881 12.4422 20.4219 13.5359 20.5204 14.769C21.6839 14.858 22.7463 14.2594 23.6213 13.2379Z" fill="#333333"/>
</svg>
