<svg width="14" height="14" viewBox="0 0 14 14" fill="none" xmlns="http://www.w3.org/2000/svg">
<path d="M1.20312 5.25H12.7969C12.9773 5.25 13.125 5.39766 13.125 5.57812V12.6875C13.125 13.4121 12.5371 14 11.8125 14H2.1875C1.46289 14 0.875 13.4121 0.875 12.6875V5.57812C0.875 5.39766 1.02266 5.25 1.20312 5.25ZM13.125 4.04688V3.0625C13.125 2.33789 12.5371 1.75 11.8125 1.75H10.5V0.328125C10.5 0.147656 10.3523 0 10.1719 0H9.07812C8.89766 0 8.75 0.147656 8.75 0.328125V1.75H5.25V0.328125C5.25 0.147656 5.10234 0 4.92188 0H3.82812C3.64766 0 3.5 0.147656 3.5 0.328125V1.75H2.1875C1.46289 1.75 0.875 2.33789 0.875 3.0625V4.04688C0.875 4.22734 1.02266 4.375 1.20312 4.375H12.7969C12.9773 4.375 13.125 4.22734 13.125 4.04688Z" fill="#FF9900"/>
</svg>
