<svg width="14" height="15" viewBox="0 0 14 15" fill="none" xmlns="http://www.w3.org/2000/svg">
<path d="M12.5 14.5H1.5C0.671562 14.5 0 13.8284 0 13V2C0 1.17156 0.671562 0.5 1.5 0.5H12.5C13.3284 0.5 14 1.17156 14 2V13C14 13.8284 13.3284 14.5 12.5 14.5ZM6.10356 11.4357L11.8536 5.68566C12.0488 5.49041 12.0488 5.17381 11.8536 4.97856L11.1465 4.27147C10.9512 4.07622 10.6346 4.07619 10.4393 4.27147L5.75 8.96078L3.56066 6.77144C3.36541 6.57619 3.04881 6.57619 2.85353 6.77144L2.14644 7.47853C1.95119 7.67378 1.95119 7.99038 2.14644 8.18563L5.39644 11.4356C5.59172 11.6309 5.90828 11.6309 6.10356 11.4357Z" fill="#FF9900"/>
</svg>
