<svg width="20" height="12" viewBox="0 0 20 12" fill="none" xmlns="http://www.w3.org/2000/svg">
<path d="M19.1804 11.5997H15.0153C14.9387 11.5997 14.8652 11.5693 14.811 11.5151C14.7569 11.4609 14.7264 11.3875 14.7264 11.3109V11.1146C14.7264 11.0125 14.6858 10.9145 14.6136 10.8423C14.5414 10.7701 14.4434 10.7295 14.3413 10.7295C14.2391 10.7295 14.1412 10.7701 14.0689 10.8423C13.9967 10.9145 13.9561 11.0125 13.9561 11.1146V11.3109C13.9561 11.3875 13.9257 11.4609 13.8715 11.5151C13.8174 11.5693 13.7439 11.5997 13.6673 11.5997H8.38887C8.31226 11.5997 8.23879 11.5693 8.18462 11.5151C8.13045 11.4609 8.10001 11.3875 8.10001 11.3109C8.10001 11.2343 8.13045 11.1608 8.18462 11.1066C8.23879 11.0524 8.31226 11.022 8.38887 11.022H13.3828C13.4058 10.7837 13.5167 10.5625 13.6939 10.4015C13.8711 10.2406 14.1019 10.1514 14.3413 10.1514C14.5807 10.1514 14.8115 10.2406 14.9887 10.4015C15.1659 10.5625 15.2768 10.7837 15.2997 11.022H19.1804C19.2304 11.022 19.2784 11.0022 19.3138 10.9668C19.3492 10.9314 19.3691 10.8835 19.3691 10.8335V9.23609C19.37 9.19238 19.3554 9.14976 19.328 9.11576C19.3005 9.08176 19.2619 9.05856 19.2189 9.05026C18.4849 8.94471 17.8136 8.5781 17.328 8.01766C16.8424 7.45722 16.575 6.74051 16.575 5.99895C16.575 5.2574 16.8424 4.54069 17.328 3.98025C17.8136 3.41981 18.4849 3.0532 19.2189 2.94765C19.2619 2.93935 19.3005 2.91616 19.328 2.88216C19.3555 2.84816 19.3702 2.80554 19.3693 2.76181V1.16732C19.3693 1.11728 19.3494 1.06931 19.314 1.03393C19.2786 0.998546 19.2307 0.978647 19.1806 0.978595H15.2997C15.2768 1.21689 15.1659 1.4381 14.9887 1.59906C14.8115 1.76003 14.5807 1.84921 14.3413 1.84921C14.1019 1.84921 13.8711 1.76003 13.6939 1.59906C13.5167 1.4381 13.4058 1.21689 13.3828 0.978595H1.31935C1.26935 0.978697 1.22143 0.99862 1.18609 1.03399C1.15075 1.06937 1.13088 1.11731 1.13082 1.16732V2.76374C1.12998 2.80744 1.14458 2.85004 1.17205 2.88404C1.19953 2.91803 1.23812 2.94124 1.28103 2.94957C2.01504 3.05513 2.6864 3.42173 3.17201 3.98217C3.65762 4.54261 3.92493 5.25932 3.92493 6.00088C3.92493 6.74244 3.65762 7.45914 3.17201 8.01958C2.6864 8.58002 2.01504 8.94663 1.28103 9.05219C1.23811 9.06048 1.19949 9.08368 1.17201 9.11769C1.14452 9.15169 1.12994 9.19431 1.13082 9.23802V10.8344C1.13088 10.8844 1.15075 10.9324 1.1861 10.9677C1.22144 11.003 1.26937 11.0229 1.31935 11.023H2.44109C2.5177 11.023 2.59117 11.0534 2.64534 11.1076C2.69951 11.1617 2.72994 11.2352 2.72994 11.3118C2.72994 11.3884 2.69951 11.4619 2.64534 11.5161C2.59117 11.5703 2.5177 11.6007 2.44109 11.6007H1.31935C1.11621 11.6004 0.921461 11.5196 0.777818 11.376C0.634174 11.2323 0.553363 11.0376 0.553108 10.8344V9.23609C0.552297 9.05323 0.617141 8.87615 0.735848 8.73705C0.854555 8.59795 1.01924 8.50607 1.19996 8.47813C1.79612 8.39205 2.3413 8.09405 2.73562 7.63871C3.12993 7.18337 3.34697 6.6012 3.34697 5.99886C3.34697 5.39651 3.12993 4.81434 2.73562 4.359C2.3413 3.90367 1.79612 3.60566 1.19996 3.51959C1.01929 3.49164 0.854655 3.39978 0.735984 3.26072C0.617312 3.12166 0.552488 2.94463 0.553299 2.76181V1.16732C0.553503 0.96414 0.634292 0.769342 0.777941 0.625657C0.92159 0.481972 1.11637 0.401134 1.31954 0.400879H13.6675C13.7441 0.400879 13.8175 0.431313 13.8717 0.485484C13.9259 0.539656 13.9563 0.613127 13.9563 0.689737V0.886161C13.9563 0.988308 13.9969 1.08627 14.0691 1.1585C14.1414 1.23073 14.2393 1.27131 14.3415 1.27131C14.4436 1.27131 14.5416 1.23073 14.6138 1.1585C14.686 1.08627 14.7266 0.988308 14.7266 0.886161V0.689737C14.7266 0.613127 14.757 0.539656 14.8112 0.485484C14.8654 0.431313 14.9389 0.400879 15.0155 0.400879H19.1806C19.3838 0.401083 19.5787 0.481898 19.7223 0.625589C19.866 0.769279 19.9469 0.964107 19.9471 1.16732V2.76374C19.9479 2.94658 19.883 3.12364 19.7643 3.2627C19.6456 3.40177 19.4809 3.49361 19.3002 3.52151C18.704 3.60759 18.1589 3.90559 17.7645 4.36093C17.3702 4.81627 17.1532 5.39844 17.1532 6.00078C17.1532 6.60313 17.3702 7.1853 17.7645 7.64064C18.1589 8.09597 18.704 8.39398 19.3002 8.48005C19.4809 8.50804 19.6455 8.59994 19.7642 8.73903C19.8829 8.87812 19.9477 9.05518 19.9469 9.23802V10.8344C19.9464 11.0375 19.8654 11.232 19.7217 11.3754C19.5781 11.5189 19.3834 11.5995 19.1804 11.5997Z" fill="#FF9900"/>
<path d="M3.78275 11.311H6.09323" stroke="#FF9900" stroke-width="0.48" stroke-linecap="round" stroke-linejoin="round"/>
<path d="M10.0358 9.02431C9.95646 9.02426 9.87839 9.00483 9.80833 8.96769L8.38888 8.22205L6.9702 8.96654C6.88939 9.00896 6.79835 9.028 6.70731 9.02154C6.61627 9.01508 6.52883 8.98337 6.45482 8.92996C6.38081 8.87655 6.32316 8.80356 6.28833 8.7192C6.25351 8.63484 6.2429 8.54243 6.25768 8.45237L6.52902 6.87078L5.38206 5.75174C5.31676 5.68804 5.27055 5.60737 5.24862 5.51883C5.22669 5.43028 5.22992 5.33738 5.25794 5.25057C5.28596 5.16376 5.33767 5.0865 5.40723 5.02748C5.47679 4.96847 5.56144 4.93005 5.65166 4.91655L7.23826 4.68547L7.94904 3.24791C7.98935 3.16645 8.05171 3.09793 8.12902 3.05014C8.20632 3.00234 8.29549 2.97719 8.38638 2.97754H8.38907C8.47997 2.97728 8.56915 3.00237 8.64657 3.04999C8.724 3.09762 8.78661 3.16589 8.82737 3.24714L9.53757 4.6872L11.1244 4.91829C11.2147 4.93177 11.2994 4.97021 11.369 5.02927C11.4386 5.08833 11.4904 5.16566 11.5184 5.25254C11.5464 5.33943 11.5496 5.43242 11.5276 5.52103C11.5057 5.60964 11.4594 5.69034 11.394 5.75405L10.2472 6.8727L10.5182 8.45179C10.53 8.52206 10.5263 8.59406 10.5076 8.6628C10.4888 8.73154 10.4553 8.79537 10.4094 8.84987C10.3635 8.90437 10.3063 8.94823 10.2417 8.97842C10.1772 9.00861 10.1068 9.0244 10.0356 9.0247L10.0358 9.02431ZM5.91394 5.46288L7.04222 6.56362C7.07572 6.59631 7.10078 6.63664 7.11524 6.68116C7.1297 6.72567 7.13312 6.77303 7.12522 6.81917L6.8587 8.37342L8.25427 7.63933C8.29582 7.61741 8.34209 7.60595 8.38907 7.60595C8.43605 7.60595 8.48232 7.61741 8.52387 7.63933L9.91944 8.37265L9.65312 6.81936C9.64521 6.77323 9.64864 6.72586 9.66309 6.68135C9.67755 6.63683 9.70261 6.5965 9.73611 6.56382L10.8646 5.46288L9.30475 5.23661C9.25836 5.22986 9.2143 5.21193 9.17639 5.18435C9.13848 5.15677 9.10785 5.12038 9.08715 5.07831L8.39004 3.66503L7.691 5.0787C7.67028 5.12064 7.63969 5.15692 7.60186 5.18443C7.56402 5.21194 7.52006 5.22984 7.47378 5.23661L5.91394 5.46288Z" fill="#FF9900"/>
<path d="M14.3413 9.85353C14.086 9.85322 13.8413 9.75168 13.6608 9.57117C13.4803 9.39067 13.3787 9.14594 13.3784 8.89067V7.1113C13.3784 6.85593 13.4799 6.61103 13.6604 6.43045C13.841 6.24988 14.0859 6.14844 14.3413 6.14844C14.5966 6.14844 14.8416 6.24988 15.0221 6.43045C15.2027 6.61103 15.3041 6.85593 15.3041 7.1113V8.89067C15.3038 9.14594 15.2023 9.39067 15.0218 9.57117C14.8413 9.75168 14.5966 9.85322 14.3413 9.85353ZM14.3413 6.72615C14.2391 6.72615 14.1412 6.76673 14.0689 6.83896C13.9967 6.91119 13.9561 7.00915 13.9561 7.1113V8.89067C13.9561 8.99281 13.9967 9.09078 14.0689 9.16301C14.1412 9.23523 14.2391 9.27581 14.3413 9.27581C14.4434 9.27581 14.5414 9.23523 14.6136 9.16301C14.6858 9.09078 14.7264 8.99281 14.7264 8.89067V7.1113C14.7264 7.00915 14.6858 6.91119 14.6136 6.83896C14.5414 6.76673 14.4434 6.72615 14.3413 6.72615Z" fill="#FF9900"/>
<path d="M14.3413 5.85157C14.086 5.85127 13.8413 5.74972 13.6608 5.56922C13.4803 5.38871 13.3787 5.14398 13.3784 4.88871V3.10935C13.3784 2.85398 13.4799 2.60907 13.6604 2.4285C13.841 2.24793 14.0859 2.14648 14.3413 2.14648C14.5966 2.14648 14.8416 2.24793 15.0221 2.4285C15.2027 2.60907 15.3041 2.85398 15.3041 3.10935V4.88871C15.3038 5.14398 15.2023 5.38871 15.0218 5.56922C14.8413 5.74972 14.5966 5.85127 14.3413 5.85157ZM14.3413 2.7242C14.2391 2.7242 14.1412 2.76478 14.0689 2.83701C13.9967 2.90924 13.9561 3.0072 13.9561 3.10935V4.88871C13.9561 4.99086 13.9967 5.08882 14.0689 5.16105C14.1412 5.23328 14.2391 5.27386 14.3413 5.27386C14.4434 5.27386 14.5414 5.23328 14.6136 5.16105C14.6858 5.08882 14.7264 4.99086 14.7264 4.88871V3.10935C14.7264 3.0072 14.6858 2.90924 14.6136 2.83701C14.5414 2.76478 14.4434 2.7242 14.3413 2.7242Z" fill="#FF9900"/>
</svg>
