<svg width="10" height="16" viewBox="0 0 10 16" fill="none" xmlns="http://www.w3.org/2000/svg">
<g clip-path="url(#clip0_1102_13941)">
<path d="M9.70625 11.2938C10.0969 11.6844 10.0969 12.3172 9.70625 12.7079C9.5125 12.9032 9.25625 13 9 13C8.74375 13 8.48812 12.9024 8.29313 12.7071L5 9.41567L1.70719 12.7063C1.51188 12.9032 1.25594 13 1 13C0.744063 13 0.488438 12.9032 0.292969 12.7063C-0.0976562 12.3157 -0.0976562 11.6829 0.292969 11.2922L3.58672 7.99849L0.292969 4.7063C-0.0976562 4.31567 -0.0976562 3.68286 0.292969 3.29224C0.683594 2.90161 1.31641 2.90161 1.70703 3.29224L5 6.58755L8.29375 3.2938C8.68437 2.90317 9.31719 2.90317 9.70781 3.2938C10.0984 3.68442 10.0984 4.31724 9.70781 4.70786L6.41406 8.00161L9.70625 11.2938Z" fill="#BDBDBD"/>
</g>
<defs>
<clipPath id="clip0_1102_13941">
<rect width="10" height="16" fill="white"/>
</clipPath>
</defs>
</svg>
