<svg width="37" height="36" viewBox="0 0 37 36" fill="none" xmlns="http://www.w3.org/2000/svg">
<path d="M16.75 28.0001C16.75 28.4642 16.9344 28.9093 17.2626 29.2375C17.5908 29.5657 18.0359 29.7501 18.5 29.7501C18.9641 29.7501 19.4092 29.5657 19.7374 29.2375C20.0656 28.9093 20.25 28.4642 20.25 28.0001V23.0001C20.25 22.5359 20.0656 22.0908 19.7374 21.7626C19.4092 21.4344 18.9641 21.2501 18.5 21.2501C18.0359 21.2501 17.5908 21.4344 17.2626 21.7626C16.9344 22.0908 16.75 22.5359 16.75 23.0001V28.0001Z" fill="#FF9900" stroke="#FF9900"/>
<path fill-rule="evenodd" clip-rule="evenodd" d="M18.5002 0.083374C17.3202 0.083374 16.2485 0.421708 15.0835 0.986707C13.9602 1.53337 12.6602 2.34004 11.0385 3.34671L7.5935 5.48504C6.06016 6.43837 4.8285 7.20171 3.88183 7.92671C2.90016 8.67671 2.14683 9.44337 1.60183 10.4384C1.0585 11.43 0.815163 12.4867 0.696829 13.735C0.583496 14.9434 0.583496 16.4234 0.583496 18.2784V20.9667C0.583496 24.14 0.583496 26.645 0.838496 28.6034C1.0985 30.6117 1.6485 32.2334 2.8885 33.515C4.1335 34.8034 5.71683 35.38 7.68016 35.6517C9.58016 35.9167 12.0102 35.9167 15.0702 35.9167H21.9302C24.9902 35.9167 27.4202 35.9167 29.3202 35.6517C31.2818 35.38 32.8668 34.8034 34.1135 33.515C35.3518 32.2334 35.9018 30.6117 36.1635 28.6034C36.4168 26.645 36.4168 24.14 36.4168 20.9667V18.2784C36.4168 16.4234 36.4168 14.945 36.3035 13.735C36.1868 12.485 35.9418 11.43 35.3985 10.4384C34.8535 9.44337 34.0985 8.67837 33.1185 7.92671C32.1718 7.20004 30.9418 6.43837 29.4068 5.48504L25.9618 3.34671C24.3402 2.34004 23.0402 1.53337 21.9152 0.986707C20.7535 0.420041 19.6818 0.083374 18.5002 0.083374ZM12.3002 5.50671C13.9918 4.45671 15.1835 3.72004 16.1785 3.23504C17.1468 2.76337 17.8335 2.58337 18.5002 2.58337C19.1668 2.58337 19.8535 2.76337 20.8218 3.23504C21.8185 3.71837 23.0085 4.45671 24.7002 5.50671L28.0335 7.57504C29.6352 8.57004 30.7602 9.26837 31.6002 9.91171C32.4152 10.5367 32.8835 11.0517 33.2052 11.6384C33.5268 12.2267 33.7152 12.915 33.8135 13.9684C33.9152 15.0484 33.9168 16.41 33.9168 18.34V20.875C33.9168 24.1584 33.9135 26.5017 33.6835 28.28C33.4568 30.0267 33.0285 31.04 32.3168 31.7784C31.6085 32.51 30.6452 32.945 28.9768 33.1767C27.2668 33.4134 25.0118 33.4167 21.8335 33.4167H15.1668C11.9868 33.4167 9.7335 33.4134 8.0235 33.1767C6.35516 32.9434 5.39183 32.51 4.68516 31.7767C3.97183 31.04 3.5435 30.0267 3.3185 28.28C3.08516 26.5017 3.0835 24.16 3.0835 20.875V18.34C3.0835 16.41 3.0835 15.0484 3.18683 13.9684C3.28516 12.915 3.4735 12.2267 3.79516 11.6384C4.11683 11.0517 4.58516 10.5367 5.40183 9.91171C6.24016 9.26837 7.36516 8.57004 8.96683 7.57504L12.3002 5.50671Z" fill="#96BE0B"/>
</svg>
