<svg width="70" height="23" viewBox="0 0 70 23" fill="none" xmlns="http://www.w3.org/2000/svg">
<path d="M7.55592 7.6875C7.50905 7.79687 7.43092 7.875 7.32155 7.92188C7.21217 7.96875 7.1028 7.97656 6.99342 7.94531C6.88405 7.89844 6.80592 7.82031 6.75905 7.71094C6.71217 7.60156 6.70436 7.49219 6.73561 7.38281C7.03249 6.44531 7.29811 5.48438 7.53249 4.5C7.56374 4.35938 7.64186 4.25781 7.76686 4.19531C7.89186 4.11719 8.02467 4.10156 8.1653 4.14844C8.30592 4.21094 8.40749 4.3125 8.46999 4.45312C8.54811 4.59375 8.56374 4.73438 8.51686 4.875C7.96999 6.53125 7.64967 7.46875 7.55592 7.6875ZM2.9153 4.71094C2.86842 4.58594 2.87624 4.46875 2.93874 4.35938C3.00124 4.25 3.09499 4.17969 3.21999 4.14844C3.34499 4.11719 3.46217 4.13281 3.57155 4.19531C3.68092 4.25781 3.75905 4.34375 3.80592 4.45312C4.1028 5.34375 4.30592 6.25 4.4153 7.17188C4.43092 7.3125 4.39967 7.44531 4.32155 7.57031C4.24342 7.67969 4.13405 7.75 3.99342 7.78125C3.86842 7.8125 3.75124 7.79687 3.64186 7.73438C3.54811 7.65625 3.49342 7.55469 3.4778 7.42969C3.38405 6.52344 3.19655 5.61719 2.9153 4.71094ZM2.65749 3.09375C2.50124 3.09375 2.42311 3.17188 2.42311 3.32812V8.625C2.42311 8.78125 2.50124 8.85938 2.65749 8.85938H4.7903C4.94655 8.85938 5.02467 8.78125 5.02467 8.625V3.32812C5.02467 3.17188 4.94655 3.09375 4.7903 3.09375H2.65749ZM8.77467 8.85938C8.93092 8.85938 9.00905 8.78125 9.00905 8.625V3.32812C9.00905 3.17188 8.93092 3.09375 8.77467 3.09375H6.4778C6.32155 3.09375 6.24342 3.17188 6.24342 3.32812V8.625C6.24342 8.78125 6.32155 8.85938 6.4778 8.85938H8.77467ZM1.20436 16.8047C0.985611 16.8203 0.798111 16.7578 0.641861 16.6172C0.485611 16.4766 0.399673 16.3047 0.384048 16.1016C0.368423 15.8828 0.430923 15.6953 0.571548 15.5391C0.712173 15.3828 0.891861 15.2969 1.11061 15.2812C1.34499 15.2656 1.86061 15.2422 2.65749 15.2109C3.46999 15.1641 4.11842 15.1328 4.6028 15.1172C4.75905 15.1016 4.83717 15.0156 4.83717 14.8594V13.4531C4.83717 13.2969 4.75905 13.2188 4.6028 13.2188H1.57936C1.37624 13.2188 1.20436 13.1562 1.06374 13.0312C0.938736 12.8906 0.876236 12.7266 0.876236 12.5391C0.876236 12.3359 0.938736 12.1641 1.06374 12.0234C1.20436 11.8828 1.37624 11.8125 1.57936 11.8125H4.6028C4.75905 11.8125 4.83717 11.7344 4.83717 11.5781V10.3828C4.83717 10.2266 4.75905 10.1484 4.6028 10.1484H3.07936C2.51686 10.1484 2.03249 9.95312 1.62624 9.5625C1.23561 9.15625 1.0403 8.67188 1.0403 8.10938V3.84375C1.0403 3.28125 1.23561 2.80469 1.62624 2.41406C2.03249 2.00781 2.51686 1.80469 3.07936 1.80469H8.39967C8.96217 1.80469 9.43874 2.00781 9.82936 2.41406C10.2356 2.80469 10.4387 3.28125 10.4387 3.84375V8.10938C10.4387 8.67188 10.2356 9.15625 9.82936 9.5625C9.43874 9.95312 8.96217 10.1484 8.39967 10.1484H6.6653C6.50905 10.1484 6.43092 10.2266 6.43092 10.3828V11.5781C6.43092 11.7344 6.50905 11.8125 6.6653 11.8125H9.87624C10.0794 11.8125 10.2434 11.8828 10.3684 12.0234C10.509 12.1641 10.5794 12.3359 10.5794 12.5391C10.5794 12.7266 10.509 12.8906 10.3684 13.0312C10.2434 13.1562 10.0794 13.2188 9.87624 13.2188H6.6653C6.50905 13.2188 6.43092 13.2969 6.43092 13.4531V14.7656C6.43092 14.8281 6.45436 14.8828 6.50124 14.9297C6.54811 14.9766 6.6028 15 6.6653 15C7.55592 14.9531 8.75124 14.8828 10.2512 14.7891C10.4544 14.7734 10.6184 14.8359 10.7434 14.9766C10.884 15.1016 10.9544 15.2578 10.9544 15.4453C10.9387 15.6641 10.8606 15.8438 10.72 15.9844C10.5794 16.125 10.4075 16.2031 10.2044 16.2188C7.17311 16.4531 4.17311 16.6484 1.20436 16.8047ZM1.57936 22.2891C1.46999 22.4609 1.31374 22.5625 1.11061 22.5938C0.923111 22.625 0.735611 22.5938 0.548111 22.5C0.407486 22.4219 0.321548 22.2969 0.290298 22.125C0.274673 22.0781 0.266861 22.0312 0.266861 21.9844C0.266861 21.8594 0.305923 21.7422 0.384048 21.6328C0.884048 20.8672 1.24342 19.8125 1.46217 18.4688C1.4778 18.2969 1.55592 18.1641 1.69655 18.0703C1.8528 17.9609 2.01686 17.9297 2.18874 17.9766C2.36061 18.0234 2.50124 18.125 2.61061 18.2812C2.71999 18.4375 2.75905 18.6094 2.7278 18.7969C2.4778 20.375 2.09499 21.5391 1.57936 22.2891ZM3.71217 18.4453C3.71217 18.3984 3.71217 18.3594 3.71217 18.3281C3.71217 18.2188 3.74342 18.1172 3.80592 18.0234C3.88405 17.8984 4.00124 17.8281 4.15749 17.8125C4.32936 17.7969 4.48561 17.8359 4.62624 17.9297C4.76686 18.0234 4.8528 18.1562 4.88405 18.3281C5.13405 19.3281 5.2903 20.3047 5.3528 21.2578C5.36842 21.4453 5.31374 21.6016 5.18874 21.7266C5.07936 21.8672 4.93874 21.9453 4.76686 21.9609C4.61061 21.9922 4.46999 21.9531 4.34499 21.8438C4.21999 21.7344 4.14967 21.6016 4.13405 21.4453C4.08717 20.4922 3.94655 19.4922 3.71217 18.4453ZM6.07936 18.3047C6.06374 18.2422 6.05592 18.1797 6.05592 18.1172C6.05592 18.0391 6.07155 17.9609 6.1028 17.8828C6.1653 17.7578 6.27467 17.6797 6.43092 17.6484C6.58717 17.6016 6.74342 17.6172 6.89967 17.6953C7.05592 17.7734 7.1653 17.8906 7.2278 18.0469C7.61842 19 7.9153 19.8984 8.11842 20.7422C8.14967 20.9141 8.11842 21.0703 8.02467 21.2109C7.93092 21.3672 7.79811 21.4609 7.62624 21.4922C7.46999 21.5234 7.32155 21.4922 7.18092 21.3984C7.0403 21.3047 6.95436 21.1719 6.92311 21C6.75124 20.1875 6.46999 19.2891 6.07936 18.3047ZM8.46999 17.9297C8.42311 17.8516 8.39967 17.7656 8.39967 17.6719C8.39967 17.625 8.40749 17.5781 8.42311 17.5312C8.46999 17.375 8.56374 17.2734 8.70436 17.2266C8.86061 17.1484 9.02467 17.1328 9.19655 17.1797C9.36842 17.2266 9.50124 17.3281 9.59499 17.4844C10.1887 18.3281 10.6731 19.1562 11.0481 19.9688C11.1262 20.1406 11.1262 20.3125 11.0481 20.4844C10.9856 20.6406 10.8762 20.7578 10.72 20.8359C10.5481 20.8984 10.3762 20.8984 10.2044 20.8359C10.0481 20.7734 9.93874 20.6562 9.87624 20.4844C9.51686 19.6562 9.04811 18.8047 8.46999 17.9297ZM19.2044 20.0625C19.3606 20.0625 19.4387 19.9844 19.4387 19.8281V14.1328C19.4387 13.9766 19.3606 13.8984 19.2044 13.8984H13.6262C13.47 13.8984 13.3919 13.9766 13.3919 14.1328V19.8281C13.3919 19.9844 13.47 20.0625 13.6262 20.0625H19.2044ZM21.8294 6.375C22.0012 6.53125 22.0872 6.72656 22.0872 6.96094C22.0872 7.19531 22.0012 7.39844 21.8294 7.57031C21.6731 7.72656 21.4778 7.80469 21.2434 7.80469H17.2122C17.0559 7.80469 16.9778 7.88281 16.9778 8.03906V12C16.9778 12.1562 17.0559 12.2344 17.2122 12.2344H19.0872C19.6497 12.2344 20.1262 12.4375 20.5169 12.8438C20.9231 13.2344 21.1262 13.7109 21.1262 14.2734V21.8672C21.1262 22.1016 21.0403 22.2969 20.8684 22.4531C20.7122 22.625 20.5169 22.7109 20.2825 22.7109C20.0481 22.7109 19.845 22.625 19.6731 22.4531C19.5169 22.2969 19.4387 22.1016 19.4387 21.8672V21.7734C19.4387 21.7109 19.4075 21.6797 19.345 21.6797H13.509C13.4309 21.6797 13.3919 21.7188 13.3919 21.7969V21.9844C13.3919 22.2031 13.3137 22.3906 13.1575 22.5469C13.0012 22.7188 12.8059 22.8047 12.5715 22.8047C12.3528 22.8047 12.1653 22.7188 12.009 22.5469C11.8528 22.3906 11.7747 22.2031 11.7747 21.9844V14.2734C11.7747 13.7109 11.97 13.2344 12.3606 12.8438C12.7669 12.4375 13.2512 12.2344 13.8137 12.2344H14.9856C15.1419 12.2344 15.22 12.1562 15.22 12V1.82812C15.22 1.59375 15.3059 1.39063 15.4778 1.21875C15.6497 1.04687 15.8528 0.960938 16.0872 0.960938C16.3372 0.960938 16.5481 1.04687 16.72 1.21875C16.8919 1.39063 16.9778 1.59375 16.9778 1.82812V5.88281C16.9778 6.03906 17.0559 6.11719 17.2122 6.11719H21.2434C21.4778 6.11719 21.6731 6.20312 21.8294 6.375ZM31.5559 7.6875C31.509 7.79687 31.4309 7.875 31.3215 7.92188C31.2122 7.96875 31.1028 7.97656 30.9934 7.94531C30.884 7.89844 30.8059 7.82031 30.759 7.71094C30.7122 7.60156 30.7044 7.49219 30.7356 7.38281C31.0325 6.44531 31.2981 5.48438 31.5325 4.5C31.5637 4.35938 31.6419 4.25781 31.7669 4.19531C31.8919 4.11719 32.0247 4.10156 32.1653 4.14844C32.3059 4.21094 32.4075 4.3125 32.47 4.45312C32.5481 4.59375 32.5637 4.73438 32.5169 4.875C31.97 6.53125 31.6497 7.46875 31.5559 7.6875ZM26.9153 4.71094C26.8684 4.58594 26.8762 4.46875 26.9387 4.35938C27.0012 4.25 27.095 4.17969 27.22 4.14844C27.345 4.11719 27.4622 4.13281 27.5715 4.19531C27.6809 4.25781 27.759 4.34375 27.8059 4.45312C28.1028 5.34375 28.3059 6.25 28.4153 7.17188C28.4309 7.3125 28.3997 7.44531 28.3215 7.57031C28.2434 7.67969 28.134 7.75 27.9934 7.78125C27.8684 7.8125 27.7512 7.79687 27.6419 7.73438C27.5481 7.65625 27.4934 7.55469 27.4778 7.42969C27.384 6.52344 27.1965 5.61719 26.9153 4.71094ZM26.6575 3.09375C26.5012 3.09375 26.4231 3.17188 26.4231 3.32812V8.625C26.4231 8.78125 26.5012 8.85938 26.6575 8.85938H28.7903C28.9465 8.85938 29.0247 8.78125 29.0247 8.625V3.32812C29.0247 3.17188 28.9465 3.09375 28.7903 3.09375H26.6575ZM32.7747 8.85938C32.9309 8.85938 33.009 8.78125 33.009 8.625V3.32812C33.009 3.17188 32.9309 3.09375 32.7747 3.09375H30.4778C30.3215 3.09375 30.2434 3.17188 30.2434 3.32812V8.625C30.2434 8.78125 30.3215 8.85938 30.4778 8.85938H32.7747ZM25.2044 16.8047C24.9856 16.8203 24.7981 16.7578 24.6419 16.6172C24.4856 16.4766 24.3997 16.3047 24.384 16.1016C24.3684 15.8828 24.4309 15.6953 24.5715 15.5391C24.7122 15.3828 24.8919 15.2969 25.1106 15.2812C25.345 15.2656 25.8606 15.2422 26.6575 15.2109C27.47 15.1641 28.1184 15.1328 28.6028 15.1172C28.759 15.1016 28.8372 15.0156 28.8372 14.8594V13.4531C28.8372 13.2969 28.759 13.2188 28.6028 13.2188H25.5794C25.3762 13.2188 25.2044 13.1562 25.0637 13.0312C24.9387 12.8906 24.8762 12.7266 24.8762 12.5391C24.8762 12.3359 24.9387 12.1641 25.0637 12.0234C25.2044 11.8828 25.3762 11.8125 25.5794 11.8125H28.6028C28.759 11.8125 28.8372 11.7344 28.8372 11.5781V10.3828C28.8372 10.2266 28.759 10.1484 28.6028 10.1484H27.0794C26.5169 10.1484 26.0325 9.95312 25.6262 9.5625C25.2356 9.15625 25.0403 8.67188 25.0403 8.10938V3.84375C25.0403 3.28125 25.2356 2.80469 25.6262 2.41406C26.0325 2.00781 26.5169 1.80469 27.0794 1.80469H32.3997C32.9622 1.80469 33.4387 2.00781 33.8294 2.41406C34.2356 2.80469 34.4387 3.28125 34.4387 3.84375V8.10938C34.4387 8.67188 34.2356 9.15625 33.8294 9.5625C33.4387 9.95312 32.9622 10.1484 32.3997 10.1484H30.6653C30.509 10.1484 30.4309 10.2266 30.4309 10.3828V11.5781C30.4309 11.7344 30.509 11.8125 30.6653 11.8125H33.8762C34.0794 11.8125 34.2434 11.8828 34.3684 12.0234C34.509 12.1641 34.5794 12.3359 34.5794 12.5391C34.5794 12.7266 34.509 12.8906 34.3684 13.0312C34.2434 13.1562 34.0794 13.2188 33.8762 13.2188H30.6653C30.509 13.2188 30.4309 13.2969 30.4309 13.4531V14.7656C30.4309 14.8281 30.4544 14.8828 30.5012 14.9297C30.5481 14.9766 30.6028 15 30.6653 15C31.5559 14.9531 32.7512 14.8828 34.2512 14.7891C34.4544 14.7734 34.6184 14.8359 34.7434 14.9766C34.884 15.1016 34.9544 15.2578 34.9544 15.4453C34.9387 15.6641 34.8606 15.8438 34.72 15.9844C34.5794 16.125 34.4075 16.2031 34.2044 16.2188C31.1731 16.4531 28.1731 16.6484 25.2044 16.8047ZM25.5794 22.2891C25.47 22.4609 25.3137 22.5625 25.1106 22.5938C24.9231 22.625 24.7356 22.5938 24.5481 22.5C24.4075 22.4219 24.3215 22.2969 24.2903 22.125C24.2747 22.0781 24.2669 22.0312 24.2669 21.9844C24.2669 21.8594 24.3059 21.7422 24.384 21.6328C24.884 20.8672 25.2434 19.8125 25.4622 18.4688C25.4778 18.2969 25.5559 18.1641 25.6965 18.0703C25.8528 17.9609 26.0169 17.9297 26.1887 17.9766C26.3606 18.0234 26.5012 18.125 26.6106 18.2812C26.72 18.4375 26.759 18.6094 26.7278 18.7969C26.4778 20.375 26.095 21.5391 25.5794 22.2891ZM27.7122 18.4453C27.7122 18.3984 27.7122 18.3594 27.7122 18.3281C27.7122 18.2188 27.7434 18.1172 27.8059 18.0234C27.884 17.8984 28.0012 17.8281 28.1575 17.8125C28.3294 17.7969 28.4856 17.8359 28.6262 17.9297C28.7669 18.0234 28.8528 18.1562 28.884 18.3281C29.134 19.3281 29.2903 20.3047 29.3528 21.2578C29.3684 21.4453 29.3137 21.6016 29.1887 21.7266C29.0794 21.8672 28.9387 21.9453 28.7669 21.9609C28.6106 21.9922 28.47 21.9531 28.345 21.8438C28.22 21.7344 28.1497 21.6016 28.134 21.4453C28.0872 20.4922 27.9465 19.4922 27.7122 18.4453ZM30.0794 18.3047C30.0637 18.2422 30.0559 18.1797 30.0559 18.1172C30.0559 18.0391 30.0715 17.9609 30.1028 17.8828C30.1653 17.7578 30.2747 17.6797 30.4309 17.6484C30.5872 17.6016 30.7434 17.6172 30.8997 17.6953C31.0559 17.7734 31.1653 17.8906 31.2278 18.0469C31.6184 19 31.9153 19.8984 32.1184 20.7422C32.1497 20.9141 32.1184 21.0703 32.0247 21.2109C31.9309 21.3672 31.7981 21.4609 31.6262 21.4922C31.47 21.5234 31.3215 21.4922 31.1809 21.3984C31.0403 21.3047 30.9544 21.1719 30.9231 21C30.7512 20.1875 30.47 19.2891 30.0794 18.3047ZM32.47 17.9297C32.4231 17.8516 32.3997 17.7656 32.3997 17.6719C32.3997 17.625 32.4075 17.5781 32.4231 17.5312C32.47 17.375 32.5637 17.2734 32.7044 17.2266C32.8606 17.1484 33.0247 17.1328 33.1965 17.1797C33.3684 17.2266 33.5012 17.3281 33.595 17.4844C34.1887 18.3281 34.6731 19.1562 35.0481 19.9688C35.1262 20.1406 35.1262 20.3125 35.0481 20.4844C34.9856 20.6406 34.8762 20.7578 34.72 20.8359C34.5481 20.8984 34.3762 20.8984 34.2044 20.8359C34.0481 20.7734 33.9387 20.6562 33.8762 20.4844C33.5169 19.6562 33.0481 18.8047 32.47 17.9297ZM43.2044 20.0625C43.3606 20.0625 43.4387 19.9844 43.4387 19.8281V14.1328C43.4387 13.9766 43.3606 13.8984 43.2044 13.8984H37.6262C37.47 13.8984 37.3919 13.9766 37.3919 14.1328V19.8281C37.3919 19.9844 37.47 20.0625 37.6262 20.0625H43.2044ZM45.8294 6.375C46.0012 6.53125 46.0872 6.72656 46.0872 6.96094C46.0872 7.19531 46.0012 7.39844 45.8294 7.57031C45.6731 7.72656 45.4778 7.80469 45.2434 7.80469H41.2122C41.0559 7.80469 40.9778 7.88281 40.9778 8.03906V12C40.9778 12.1562 41.0559 12.2344 41.2122 12.2344H43.0872C43.6497 12.2344 44.1262 12.4375 44.5169 12.8438C44.9231 13.2344 45.1262 13.7109 45.1262 14.2734V21.8672C45.1262 22.1016 45.0403 22.2969 44.8684 22.4531C44.7122 22.625 44.5169 22.7109 44.2825 22.7109C44.0481 22.7109 43.845 22.625 43.6731 22.4531C43.5169 22.2969 43.4387 22.1016 43.4387 21.8672V21.7734C43.4387 21.7109 43.4075 21.6797 43.345 21.6797H37.509C37.4309 21.6797 37.3919 21.7188 37.3919 21.7969V21.9844C37.3919 22.2031 37.3137 22.3906 37.1575 22.5469C37.0012 22.7188 36.8059 22.8047 36.5715 22.8047C36.3528 22.8047 36.1653 22.7188 36.009 22.5469C35.8528 22.3906 35.7747 22.2031 35.7747 21.9844V14.2734C35.7747 13.7109 35.97 13.2344 36.3606 12.8438C36.7669 12.4375 37.2512 12.2344 37.8137 12.2344H38.9856C39.1419 12.2344 39.22 12.1562 39.22 12V1.82812C39.22 1.59375 39.3059 1.39063 39.4778 1.21875C39.6497 1.04687 39.8528 0.960938 40.0872 0.960938C40.3372 0.960938 40.5481 1.04687 40.72 1.21875C40.8919 1.39063 40.9778 1.59375 40.9778 1.82812V5.88281C40.9778 6.03906 41.0559 6.11719 41.2122 6.11719H45.2434C45.4778 6.11719 45.6731 6.20312 45.8294 6.375ZM50.8684 6.375C50.7122 6.375 50.634 6.45313 50.634 6.60938V9.32812C50.634 9.54688 50.5481 9.73438 50.3762 9.89062C50.22 10.0469 50.0325 10.125 49.8137 10.125C49.595 10.125 49.4075 10.0469 49.2512 9.89062C49.095 9.73438 49.0169 9.54688 49.0169 9.32812V7.03125C49.0169 6.46875 49.2122 5.99219 49.6028 5.60156C50.009 5.19531 50.4934 4.99219 51.0559 4.99219H57.9231C58.0794 4.99219 58.1575 4.91406 58.1575 4.75781V3.51562C58.1575 3.35938 58.0794 3.28125 57.9231 3.28125H51.0325C50.8294 3.28125 50.6575 3.21094 50.5169 3.07031C50.3762 2.92969 50.3059 2.76562 50.3059 2.57812C50.3059 2.375 50.3762 2.20312 50.5169 2.0625C50.6575 1.92188 50.8294 1.85156 51.0325 1.85156H67.134C67.3372 1.85156 67.509 1.92188 67.6497 2.0625C67.7903 2.20312 67.8606 2.375 67.8606 2.57812C67.8606 2.76562 67.7903 2.92969 67.6497 3.07031C67.509 3.21094 67.3372 3.28125 67.134 3.28125H60.1028C59.9465 3.28125 59.8684 3.35938 59.8684 3.51562V4.75781C59.8684 4.91406 59.9465 4.99219 60.1028 4.99219H67.1575C67.72 4.99219 68.1965 5.19531 68.5872 5.60156C68.9934 5.99219 69.1965 6.46875 69.1965 7.03125V9.30469C69.1965 9.52344 69.1106 9.71875 68.9387 9.89062C68.7825 10.0469 68.5872 10.125 68.3528 10.125C68.134 10.125 67.9387 10.0469 67.7669 9.89062C67.6106 9.71875 67.5325 9.52344 67.5325 9.30469V6.60938C67.5325 6.45313 67.4544 6.375 67.2981 6.375H60.1028C59.9465 6.375 59.8684 6.45313 59.8684 6.60938V11.5078C59.8684 11.7422 59.7825 11.9453 59.6106 12.1172C59.4387 12.2734 59.2356 12.3516 59.0012 12.3516C58.7669 12.3516 58.5637 12.2734 58.3919 12.1172C58.2356 11.9453 58.1575 11.7422 58.1575 11.5078V6.60938C58.1575 6.45313 58.0794 6.375 57.9231 6.375H50.8684ZM51.9934 11.8359C51.8215 11.8359 51.6731 11.7734 51.5481 11.6484C51.4231 11.5234 51.3606 11.375 51.3606 11.2031C51.3606 11.0312 51.4231 10.8906 51.5481 10.7812C51.6731 10.6562 51.8215 10.5938 51.9934 10.5938H56.259C56.4309 10.5938 56.5794 10.6562 56.7044 10.7812C56.8294 10.8906 56.8919 11.0312 56.8919 11.2031C56.8919 11.375 56.8294 11.5234 56.7044 11.6484C56.5794 11.7734 56.4309 11.8359 56.259 11.8359H51.9934ZM56.2825 7.875C56.4387 7.875 56.5794 7.9375 56.7044 8.0625C56.8294 8.17188 56.8919 8.3125 56.8919 8.48438C56.8919 8.65625 56.8294 8.80469 56.7044 8.92969C56.5794 9.03906 56.4387 9.09375 56.2825 9.09375H52.4622C52.2903 9.09375 52.1419 9.03906 52.0169 8.92969C51.9075 8.80469 51.8528 8.65625 51.8528 8.48438C51.8528 8.3125 51.9075 8.17188 52.0169 8.0625C52.1419 7.9375 52.2903 7.875 52.4622 7.875H56.2825ZM51.8528 14.7422C51.6653 14.7422 51.5012 14.6797 51.3606 14.5547C51.2356 14.4141 51.1731 14.25 51.1731 14.0625C51.1731 13.8594 51.2356 13.6953 51.3606 13.5703C51.5012 13.4297 51.6653 13.3594 51.8528 13.3594H66.2669C66.4544 13.3594 66.6106 13.4297 66.7356 13.5703C66.8762 13.6953 66.9465 13.8594 66.9465 14.0625C66.9465 14.25 66.8762 14.4141 66.7356 14.5547C66.6106 14.6797 66.4544 14.7422 66.2669 14.7422H51.8528ZM61.7669 11.8359C61.595 11.8359 61.4465 11.7734 61.3215 11.6484C61.1965 11.5234 61.134 11.375 61.134 11.2031C61.134 11.0312 61.1965 10.8906 61.3215 10.7812C61.4465 10.6562 61.595 10.5938 61.7669 10.5938H66.2669C66.4387 10.5938 66.5872 10.6562 66.7122 10.7812C66.8372 10.8906 66.8997 11.0312 66.8997 11.2031C66.8997 11.375 66.8372 11.5234 66.7122 11.6484C66.5872 11.7734 66.4387 11.8359 66.2669 11.8359H61.7669ZM61.2981 8.92969C61.1887 8.80469 61.134 8.65625 61.134 8.48438C61.134 8.3125 61.1887 8.17188 61.2981 8.0625C61.4231 7.9375 61.5715 7.875 61.7434 7.875H65.6575C65.8294 7.875 65.97 7.9375 66.0794 8.0625C66.2044 8.17188 66.2669 8.3125 66.2669 8.48438C66.2669 8.65625 66.2044 8.80469 66.0794 8.92969C65.97 9.03906 65.8294 9.09375 65.6575 9.09375H61.7434C61.5715 9.09375 61.4231 9.03906 61.2981 8.92969ZM69.0325 16.4531C69.2356 16.4531 69.4075 16.5234 69.5481 16.6641C69.6887 16.8047 69.759 16.9766 69.759 17.1797C69.759 17.3672 69.6887 17.5312 69.5481 17.6719C69.4075 17.8125 69.2356 17.8828 69.0325 17.8828H56.8684C56.7122 17.8828 56.5872 17.9453 56.4934 18.0703C55.9778 18.8516 55.4231 19.6328 54.8294 20.4141C54.7981 20.4453 54.7903 20.4844 54.8059 20.5312C54.8372 20.5625 54.8762 20.5781 54.9231 20.5781C56.8762 20.5312 59.8528 20.4688 63.8528 20.3906C63.884 20.3906 63.9075 20.375 63.9231 20.3438C63.9387 20.2969 63.9309 20.2578 63.8997 20.2266C63.3372 19.8047 62.8059 19.4219 62.3059 19.0781C62.1653 18.9844 62.095 18.8438 62.095 18.6562C62.1106 18.4688 62.2044 18.3359 62.3762 18.2578C62.6106 18.1328 62.8372 18.0703 63.0559 18.0703C63.3215 18.0703 63.5872 18.1562 63.8528 18.3281C65.5247 19.4062 66.9231 20.4766 68.0481 21.5391C68.2044 21.6953 68.2669 21.8828 68.2356 22.1016C68.2044 22.3203 68.0872 22.4844 67.884 22.5938C67.7122 22.6875 67.5325 22.7344 67.345 22.7344C67.2825 22.7344 67.2122 22.7266 67.134 22.7109C66.884 22.6641 66.6653 22.5469 66.4778 22.3594C66.3059 22.2031 66.1262 22.0469 65.9387 21.8906C65.845 21.8125 65.7356 21.7734 65.6106 21.7734C57.2669 22.0547 52.3059 22.2109 50.7278 22.2422C50.4934 22.2578 50.2903 22.1875 50.1184 22.0312C49.9622 21.8906 49.8762 21.7031 49.8606 21.4688C49.845 21.2656 49.9075 21.0859 50.0481 20.9297C50.1887 20.7578 50.3684 20.6719 50.5872 20.6719L52.509 20.6484C52.6653 20.6484 52.7825 20.5781 52.8606 20.4375C53.3294 19.7812 53.8215 19 54.3372 18.0938C54.3528 18.0469 54.345 18 54.3137 17.9531C54.2981 17.9062 54.259 17.8828 54.1965 17.8828H49.1809C48.9778 17.8828 48.8059 17.8125 48.6653 17.6719C48.5247 17.5312 48.4544 17.3672 48.4544 17.1797C48.4544 16.9766 48.5247 16.8047 48.6653 16.6641C48.8059 16.5234 48.9778 16.4531 49.1809 16.4531H69.0325Z" fill="#333333"/>
</svg>
