<svg width="140" height="45" viewBox="0 0 140 45" fill="none" xmlns="http://www.w3.org/2000/svg">
<path d="M14.9219 14.375C14.8281 14.5937 14.6719 14.75 14.4531 14.8438C14.2344 14.9375 14.0156 14.9531 13.7969 14.8906C13.5781 14.7969 13.4219 14.6406 13.3281 14.4219C13.2344 14.2031 13.2188 13.9844 13.2812 13.7656C13.875 11.8906 14.4062 9.96875 14.875 8C14.9375 7.71875 15.0938 7.51562 15.3438 7.39062C15.5938 7.23437 15.8594 7.20312 16.1406 7.29688C16.4219 7.42187 16.625 7.625 16.75 7.90625C16.9062 8.1875 16.9375 8.46875 16.8438 8.75C15.75 12.0625 15.1094 13.9375 14.9219 14.375ZM5.64062 8.42188C5.54688 8.17187 5.5625 7.9375 5.6875 7.71875C5.8125 7.5 6 7.35938 6.25 7.29688C6.5 7.23437 6.73438 7.26563 6.95312 7.39062C7.17188 7.51562 7.32812 7.6875 7.42188 7.90625C8.01562 9.6875 8.42188 11.5 8.64062 13.3438C8.67188 13.625 8.60938 13.8906 8.45312 14.1406C8.29688 14.3594 8.07812 14.5 7.79688 14.5625C7.54688 14.625 7.3125 14.5937 7.09375 14.4688C6.90625 14.3125 6.79688 14.1094 6.76562 13.8594C6.57812 12.0469 6.20312 10.2344 5.64062 8.42188ZM5.125 5.1875C4.8125 5.1875 4.65625 5.34375 4.65625 5.65625V16.25C4.65625 16.5625 4.8125 16.7188 5.125 16.7188H9.39062C9.70312 16.7188 9.85938 16.5625 9.85938 16.25V5.65625C9.85938 5.34375 9.70312 5.1875 9.39062 5.1875H5.125ZM17.3594 16.7188C17.6719 16.7188 17.8281 16.5625 17.8281 16.25V5.65625C17.8281 5.34375 17.6719 5.1875 17.3594 5.1875H12.7656C12.4531 5.1875 12.2969 5.34375 12.2969 5.65625V16.25C12.2969 16.5625 12.4531 16.7188 12.7656 16.7188H17.3594ZM2.21875 32.6094C1.78125 32.6406 1.40625 32.5156 1.09375 32.2344C0.78125 31.9531 0.609375 31.6094 0.578125 31.2031C0.546875 30.7656 0.671875 30.3906 0.953125 30.0781C1.23438 29.7656 1.59375 29.5938 2.03125 29.5625C2.5 29.5312 3.53125 29.4844 5.125 29.4219C6.75 29.3281 8.04688 29.2656 9.01562 29.2344C9.32812 29.2031 9.48438 29.0312 9.48438 28.7188V25.9062C9.48438 25.5938 9.32812 25.4375 9.01562 25.4375H2.96875C2.5625 25.4375 2.21875 25.3125 1.9375 25.0625C1.6875 24.7812 1.5625 24.4531 1.5625 24.0781C1.5625 23.6719 1.6875 23.3281 1.9375 23.0469C2.21875 22.7656 2.5625 22.625 2.96875 22.625H9.01562C9.32812 22.625 9.48438 22.4688 9.48438 22.1562V19.7656C9.48438 19.4531 9.32812 19.2969 9.01562 19.2969H5.96875C4.84375 19.2969 3.875 18.9062 3.0625 18.125C2.28125 17.3125 1.89062 16.3438 1.89062 15.2188V6.6875C1.89062 5.5625 2.28125 4.60937 3.0625 3.82812C3.875 3.01562 4.84375 2.60938 5.96875 2.60938H16.6094C17.7344 2.60938 18.6875 3.01562 19.4688 3.82812C20.2812 4.60937 20.6875 5.5625 20.6875 6.6875V15.2188C20.6875 16.3438 20.2812 17.3125 19.4688 18.125C18.6875 18.9062 17.7344 19.2969 16.6094 19.2969H13.1406C12.8281 19.2969 12.6719 19.4531 12.6719 19.7656V22.1562C12.6719 22.4688 12.8281 22.625 13.1406 22.625H19.5625C19.9688 22.625 20.2969 22.7656 20.5469 23.0469C20.8281 23.3281 20.9688 23.6719 20.9688 24.0781C20.9688 24.4531 20.8281 24.7812 20.5469 25.0625C20.2969 25.3125 19.9688 25.4375 19.5625 25.4375H13.1406C12.8281 25.4375 12.6719 25.5938 12.6719 25.9062V28.5312C12.6719 28.6562 12.7188 28.7656 12.8125 28.8594C12.9062 28.9531 13.0156 29 13.1406 29C14.9219 28.9062 17.3125 28.7656 20.3125 28.5781C20.7188 28.5469 21.0469 28.6719 21.2969 28.9531C21.5781 29.2031 21.7188 29.5156 21.7188 29.8906C21.6875 30.3281 21.5312 30.6875 21.25 30.9688C20.9688 31.25 20.625 31.4062 20.2188 31.4375C14.1562 31.9062 8.15625 32.2969 2.21875 32.6094ZM2.96875 43.5781C2.75 43.9219 2.4375 44.125 2.03125 44.1875C1.65625 44.25 1.28125 44.1875 0.90625 44C0.625 43.8438 0.453125 43.5938 0.390625 43.25C0.359375 43.1562 0.34375 43.0625 0.34375 42.9688C0.34375 42.7188 0.421875 42.4844 0.578125 42.2656C1.57812 40.7344 2.29688 38.625 2.73438 35.9375C2.76562 35.5938 2.92188 35.3281 3.20312 35.1406C3.51562 34.9219 3.84375 34.8594 4.1875 34.9531C4.53125 35.0469 4.8125 35.25 5.03125 35.5625C5.25 35.875 5.32812 36.2188 5.26562 36.5938C4.76562 39.75 4 42.0781 2.96875 43.5781ZM7.23438 35.8906C7.23438 35.7969 7.23438 35.7188 7.23438 35.6562C7.23438 35.4375 7.29688 35.2344 7.42188 35.0469C7.57812 34.7969 7.8125 34.6562 8.125 34.625C8.46875 34.5938 8.78125 34.6719 9.0625 34.8594C9.34375 35.0469 9.51562 35.3125 9.57812 35.6562C10.0781 37.6562 10.3906 39.6094 10.5156 41.5156C10.5469 41.8906 10.4375 42.2031 10.1875 42.4531C9.96875 42.7344 9.6875 42.8906 9.34375 42.9219C9.03125 42.9844 8.75 42.9062 8.5 42.6875C8.25 42.4688 8.10938 42.2031 8.07812 41.8906C7.98438 39.9844 7.70312 37.9844 7.23438 35.8906ZM11.9688 35.6094C11.9375 35.4844 11.9219 35.3594 11.9219 35.2344C11.9219 35.0781 11.9531 34.9219 12.0156 34.7656C12.1406 34.5156 12.3594 34.3594 12.6719 34.2969C12.9844 34.2031 13.2969 34.2344 13.6094 34.3906C13.9219 34.5469 14.1406 34.7812 14.2656 35.0938C15.0469 37 15.6406 38.7969 16.0469 40.4844C16.1094 40.8281 16.0469 41.1406 15.8594 41.4219C15.6719 41.7344 15.4062 41.9219 15.0625 41.9844C14.75 42.0469 14.4531 41.9844 14.1719 41.7969C13.8906 41.6094 13.7188 41.3438 13.6562 41C13.3125 39.375 12.75 37.5781 11.9688 35.6094ZM16.75 34.8594C16.6562 34.7031 16.6094 34.5312 16.6094 34.3438C16.6094 34.25 16.625 34.1562 16.6562 34.0625C16.75 33.75 16.9375 33.5469 17.2188 33.4531C17.5312 33.2969 17.8594 33.2656 18.2031 33.3594C18.5469 33.4531 18.8125 33.6562 19 33.9688C20.1875 35.6562 21.1562 37.3125 21.9062 38.9375C22.0625 39.2812 22.0625 39.625 21.9062 39.9688C21.7812 40.2812 21.5625 40.5156 21.25 40.6719C20.9062 40.7969 20.5625 40.7969 20.2188 40.6719C19.9062 40.5469 19.6875 40.3125 19.5625 39.9688C18.8438 38.3125 17.9062 36.6094 16.75 34.8594ZM38.2188 39.125C38.5312 39.125 38.6875 38.9688 38.6875 38.6562V27.2656C38.6875 26.9531 38.5312 26.7969 38.2188 26.7969H27.0625C26.75 26.7969 26.5938 26.9531 26.5938 27.2656V38.6562C26.5938 38.9688 26.75 39.125 27.0625 39.125H38.2188ZM43.4688 11.75C43.8125 12.0625 43.9844 12.4531 43.9844 12.9219C43.9844 13.3906 43.8125 13.7969 43.4688 14.1406C43.1562 14.4531 42.7656 14.6094 42.2969 14.6094H34.2344C33.9219 14.6094 33.7656 14.7656 33.7656 15.0781V23C33.7656 23.3125 33.9219 23.4688 34.2344 23.4688H37.9844C39.1094 23.4688 40.0625 23.875 40.8438 24.6875C41.6562 25.4688 42.0625 26.4219 42.0625 27.5469V42.7344C42.0625 43.2031 41.8906 43.5938 41.5469 43.9062C41.2344 44.25 40.8438 44.4219 40.375 44.4219C39.9062 44.4219 39.5 44.25 39.1562 43.9062C38.8438 43.5938 38.6875 43.2031 38.6875 42.7344V42.5469C38.6875 42.4219 38.625 42.3594 38.5 42.3594H26.8281C26.6719 42.3594 26.5938 42.4375 26.5938 42.5938V42.9688C26.5938 43.4062 26.4375 43.7812 26.125 44.0938C25.8125 44.4375 25.4219 44.6094 24.9531 44.6094C24.5156 44.6094 24.1406 44.4375 23.8281 44.0938C23.5156 43.7812 23.3594 43.4062 23.3594 42.9688V27.5469C23.3594 26.4219 23.75 25.4688 24.5312 24.6875C25.3438 23.875 26.3125 23.4688 27.4375 23.4688H29.7812C30.0938 23.4688 30.25 23.3125 30.25 23V2.65625C30.25 2.1875 30.4219 1.78125 30.7656 1.4375C31.1094 1.09375 31.5156 0.921875 31.9844 0.921875C32.4844 0.921875 32.9062 1.09375 33.25 1.4375C33.5938 1.78125 33.7656 2.1875 33.7656 2.65625V10.7656C33.7656 11.0781 33.9219 11.2344 34.2344 11.2344H42.2969C42.7656 11.2344 43.1562 11.4062 43.4688 11.75ZM62.9219 14.375C62.8281 14.5937 62.6719 14.75 62.4531 14.8438C62.2344 14.9375 62.0156 14.9531 61.7969 14.8906C61.5781 14.7969 61.4219 14.6406 61.3281 14.4219C61.2344 14.2031 61.2188 13.9844 61.2812 13.7656C61.875 11.8906 62.4062 9.96875 62.875 8C62.9375 7.71875 63.0938 7.51562 63.3438 7.39062C63.5938 7.23437 63.8594 7.20312 64.1406 7.29688C64.4219 7.42187 64.625 7.625 64.75 7.90625C64.9062 8.1875 64.9375 8.46875 64.8438 8.75C63.75 12.0625 63.1094 13.9375 62.9219 14.375ZM53.6406 8.42188C53.5469 8.17187 53.5625 7.9375 53.6875 7.71875C53.8125 7.5 54 7.35938 54.25 7.29688C54.5 7.23437 54.7344 7.26563 54.9531 7.39062C55.1719 7.51562 55.3281 7.6875 55.4219 7.90625C56.0156 9.6875 56.4219 11.5 56.6406 13.3438C56.6719 13.625 56.6094 13.8906 56.4531 14.1406C56.2969 14.3594 56.0781 14.5 55.7969 14.5625C55.5469 14.625 55.3125 14.5937 55.0938 14.4688C54.9062 14.3125 54.7969 14.1094 54.7656 13.8594C54.5781 12.0469 54.2031 10.2344 53.6406 8.42188ZM53.125 5.1875C52.8125 5.1875 52.6562 5.34375 52.6562 5.65625V16.25C52.6562 16.5625 52.8125 16.7188 53.125 16.7188H57.3906C57.7031 16.7188 57.8594 16.5625 57.8594 16.25V5.65625C57.8594 5.34375 57.7031 5.1875 57.3906 5.1875H53.125ZM65.3594 16.7188C65.6719 16.7188 65.8281 16.5625 65.8281 16.25V5.65625C65.8281 5.34375 65.6719 5.1875 65.3594 5.1875H60.7656C60.4531 5.1875 60.2969 5.34375 60.2969 5.65625V16.25C60.2969 16.5625 60.4531 16.7188 60.7656 16.7188H65.3594ZM50.2188 32.6094C49.7812 32.6406 49.4062 32.5156 49.0938 32.2344C48.7812 31.9531 48.6094 31.6094 48.5781 31.2031C48.5469 30.7656 48.6719 30.3906 48.9531 30.0781C49.2344 29.7656 49.5938 29.5938 50.0312 29.5625C50.5 29.5312 51.5312 29.4844 53.125 29.4219C54.75 29.3281 56.0469 29.2656 57.0156 29.2344C57.3281 29.2031 57.4844 29.0312 57.4844 28.7188V25.9062C57.4844 25.5938 57.3281 25.4375 57.0156 25.4375H50.9688C50.5625 25.4375 50.2188 25.3125 49.9375 25.0625C49.6875 24.7812 49.5625 24.4531 49.5625 24.0781C49.5625 23.6719 49.6875 23.3281 49.9375 23.0469C50.2188 22.7656 50.5625 22.625 50.9688 22.625H57.0156C57.3281 22.625 57.4844 22.4688 57.4844 22.1562V19.7656C57.4844 19.4531 57.3281 19.2969 57.0156 19.2969H53.9688C52.8438 19.2969 51.875 18.9062 51.0625 18.125C50.2812 17.3125 49.8906 16.3438 49.8906 15.2188V6.6875C49.8906 5.5625 50.2812 4.60937 51.0625 3.82812C51.875 3.01562 52.8438 2.60938 53.9688 2.60938H64.6094C65.7344 2.60938 66.6875 3.01562 67.4688 3.82812C68.2812 4.60937 68.6875 5.5625 68.6875 6.6875V15.2188C68.6875 16.3438 68.2812 17.3125 67.4688 18.125C66.6875 18.9062 65.7344 19.2969 64.6094 19.2969H61.1406C60.8281 19.2969 60.6719 19.4531 60.6719 19.7656V22.1562C60.6719 22.4688 60.8281 22.625 61.1406 22.625H67.5625C67.9688 22.625 68.2969 22.7656 68.5469 23.0469C68.8281 23.3281 68.9688 23.6719 68.9688 24.0781C68.9688 24.4531 68.8281 24.7812 68.5469 25.0625C68.2969 25.3125 67.9688 25.4375 67.5625 25.4375H61.1406C60.8281 25.4375 60.6719 25.5938 60.6719 25.9062V28.5312C60.6719 28.6562 60.7188 28.7656 60.8125 28.8594C60.9062 28.9531 61.0156 29 61.1406 29C62.9219 28.9062 65.3125 28.7656 68.3125 28.5781C68.7188 28.5469 69.0469 28.6719 69.2969 28.9531C69.5781 29.2031 69.7188 29.5156 69.7188 29.8906C69.6875 30.3281 69.5312 30.6875 69.25 30.9688C68.9688 31.25 68.625 31.4062 68.2188 31.4375C62.1562 31.9062 56.1562 32.2969 50.2188 32.6094ZM50.9688 43.5781C50.75 43.9219 50.4375 44.125 50.0312 44.1875C49.6562 44.25 49.2812 44.1875 48.9062 44C48.625 43.8438 48.4531 43.5938 48.3906 43.25C48.3594 43.1562 48.3438 43.0625 48.3438 42.9688C48.3438 42.7188 48.4219 42.4844 48.5781 42.2656C49.5781 40.7344 50.2969 38.625 50.7344 35.9375C50.7656 35.5938 50.9219 35.3281 51.2031 35.1406C51.5156 34.9219 51.8438 34.8594 52.1875 34.9531C52.5312 35.0469 52.8125 35.25 53.0312 35.5625C53.25 35.875 53.3281 36.2188 53.2656 36.5938C52.7656 39.75 52 42.0781 50.9688 43.5781ZM55.2344 35.8906C55.2344 35.7969 55.2344 35.7188 55.2344 35.6562C55.2344 35.4375 55.2969 35.2344 55.4219 35.0469C55.5781 34.7969 55.8125 34.6562 56.125 34.625C56.4688 34.5938 56.7812 34.6719 57.0625 34.8594C57.3438 35.0469 57.5156 35.3125 57.5781 35.6562C58.0781 37.6562 58.3906 39.6094 58.5156 41.5156C58.5469 41.8906 58.4375 42.2031 58.1875 42.4531C57.9688 42.7344 57.6875 42.8906 57.3438 42.9219C57.0312 42.9844 56.75 42.9062 56.5 42.6875C56.25 42.4688 56.1094 42.2031 56.0781 41.8906C55.9844 39.9844 55.7031 37.9844 55.2344 35.8906ZM59.9688 35.6094C59.9375 35.4844 59.9219 35.3594 59.9219 35.2344C59.9219 35.0781 59.9531 34.9219 60.0156 34.7656C60.1406 34.5156 60.3594 34.3594 60.6719 34.2969C60.9844 34.2031 61.2969 34.2344 61.6094 34.3906C61.9219 34.5469 62.1406 34.7812 62.2656 35.0938C63.0469 37 63.6406 38.7969 64.0469 40.4844C64.1094 40.8281 64.0469 41.1406 63.8594 41.4219C63.6719 41.7344 63.4062 41.9219 63.0625 41.9844C62.75 42.0469 62.4531 41.9844 62.1719 41.7969C61.8906 41.6094 61.7188 41.3438 61.6562 41C61.3125 39.375 60.75 37.5781 59.9688 35.6094ZM64.75 34.8594C64.6562 34.7031 64.6094 34.5312 64.6094 34.3438C64.6094 34.25 64.625 34.1562 64.6562 34.0625C64.75 33.75 64.9375 33.5469 65.2188 33.4531C65.5312 33.2969 65.8594 33.2656 66.2031 33.3594C66.5469 33.4531 66.8125 33.6562 67 33.9688C68.1875 35.6562 69.1562 37.3125 69.9062 38.9375C70.0625 39.2812 70.0625 39.625 69.9062 39.9688C69.7812 40.2812 69.5625 40.5156 69.25 40.6719C68.9062 40.7969 68.5625 40.7969 68.2188 40.6719C67.9062 40.5469 67.6875 40.3125 67.5625 39.9688C66.8438 38.3125 65.9062 36.6094 64.75 34.8594ZM86.2188 39.125C86.5312 39.125 86.6875 38.9688 86.6875 38.6562V27.2656C86.6875 26.9531 86.5312 26.7969 86.2188 26.7969H75.0625C74.75 26.7969 74.5938 26.9531 74.5938 27.2656V38.6562C74.5938 38.9688 74.75 39.125 75.0625 39.125H86.2188ZM91.4688 11.75C91.8125 12.0625 91.9844 12.4531 91.9844 12.9219C91.9844 13.3906 91.8125 13.7969 91.4688 14.1406C91.1562 14.4531 90.7656 14.6094 90.2969 14.6094H82.2344C81.9219 14.6094 81.7656 14.7656 81.7656 15.0781V23C81.7656 23.3125 81.9219 23.4688 82.2344 23.4688H85.9844C87.1094 23.4688 88.0625 23.875 88.8438 24.6875C89.6562 25.4688 90.0625 26.4219 90.0625 27.5469V42.7344C90.0625 43.2031 89.8906 43.5938 89.5469 43.9062C89.2344 44.25 88.8438 44.4219 88.375 44.4219C87.9062 44.4219 87.5 44.25 87.1562 43.9062C86.8438 43.5938 86.6875 43.2031 86.6875 42.7344V42.5469C86.6875 42.4219 86.625 42.3594 86.5 42.3594H74.8281C74.6719 42.3594 74.5938 42.4375 74.5938 42.5938V42.9688C74.5938 43.4062 74.4375 43.7812 74.125 44.0938C73.8125 44.4375 73.4219 44.6094 72.9531 44.6094C72.5156 44.6094 72.1406 44.4375 71.8281 44.0938C71.5156 43.7812 71.3594 43.4062 71.3594 42.9688V27.5469C71.3594 26.4219 71.75 25.4688 72.5312 24.6875C73.3438 23.875 74.3125 23.4688 75.4375 23.4688H77.7812C78.0938 23.4688 78.25 23.3125 78.25 23V2.65625C78.25 2.1875 78.4219 1.78125 78.7656 1.4375C79.1094 1.09375 79.5156 0.921875 79.9844 0.921875C80.4844 0.921875 80.9062 1.09375 81.25 1.4375C81.5938 1.78125 81.7656 2.1875 81.7656 2.65625V10.7656C81.7656 11.0781 81.9219 11.2344 82.2344 11.2344H90.2969C90.7656 11.2344 91.1562 11.4062 91.4688 11.75ZM101.547 11.75C101.234 11.75 101.078 11.9063 101.078 12.2188V17.6562C101.078 18.0938 100.906 18.4688 100.562 18.7812C100.25 19.0938 99.875 19.25 99.4375 19.25C99 19.25 98.625 19.0938 98.3125 18.7812C98 18.4688 97.8438 18.0938 97.8438 17.6562V13.0625C97.8438 11.9375 98.2344 10.9844 99.0156 10.2031C99.8281 9.39062 100.797 8.98438 101.922 8.98438H115.656C115.969 8.98438 116.125 8.82812 116.125 8.51562V6.03125C116.125 5.71875 115.969 5.5625 115.656 5.5625H101.875C101.469 5.5625 101.125 5.42188 100.844 5.14062C100.562 4.85938 100.422 4.53125 100.422 4.15625C100.422 3.75 100.562 3.40625 100.844 3.125C101.125 2.84375 101.469 2.70312 101.875 2.70312H134.078C134.484 2.70312 134.828 2.84375 135.109 3.125C135.391 3.40625 135.531 3.75 135.531 4.15625C135.531 4.53125 135.391 4.85938 135.109 5.14062C134.828 5.42188 134.484 5.5625 134.078 5.5625H120.016C119.703 5.5625 119.547 5.71875 119.547 6.03125V8.51562C119.547 8.82812 119.703 8.98438 120.016 8.98438H134.125C135.25 8.98438 136.203 9.39062 136.984 10.2031C137.797 10.9844 138.203 11.9375 138.203 13.0625V17.6094C138.203 18.0469 138.031 18.4375 137.688 18.7812C137.375 19.0938 136.984 19.25 136.516 19.25C136.078 19.25 135.688 19.0938 135.344 18.7812C135.031 18.4375 134.875 18.0469 134.875 17.6094V12.2188C134.875 11.9063 134.719 11.75 134.406 11.75H120.016C119.703 11.75 119.547 11.9063 119.547 12.2188V22.0156C119.547 22.4844 119.375 22.8906 119.031 23.2344C118.688 23.5469 118.281 23.7031 117.812 23.7031C117.344 23.7031 116.938 23.5469 116.594 23.2344C116.281 22.8906 116.125 22.4844 116.125 22.0156V12.2188C116.125 11.9063 115.969 11.75 115.656 11.75H101.547ZM103.797 22.6719C103.453 22.6719 103.156 22.5469 102.906 22.2969C102.656 22.0469 102.531 21.75 102.531 21.4062C102.531 21.0625 102.656 20.7812 102.906 20.5625C103.156 20.3125 103.453 20.1875 103.797 20.1875H112.328C112.672 20.1875 112.969 20.3125 113.219 20.5625C113.469 20.7812 113.594 21.0625 113.594 21.4062C113.594 21.75 113.469 22.0469 113.219 22.2969C112.969 22.5469 112.672 22.6719 112.328 22.6719H103.797ZM112.375 14.75C112.688 14.75 112.969 14.875 113.219 15.125C113.469 15.3438 113.594 15.625 113.594 15.9688C113.594 16.3125 113.469 16.6094 113.219 16.8594C112.969 17.0781 112.688 17.1875 112.375 17.1875H104.734C104.391 17.1875 104.094 17.0781 103.844 16.8594C103.625 16.6094 103.516 16.3125 103.516 15.9688C103.516 15.625 103.625 15.3438 103.844 15.125C104.094 14.875 104.391 14.75 104.734 14.75H112.375ZM103.516 28.4844C103.141 28.4844 102.812 28.3594 102.531 28.1094C102.281 27.8281 102.156 27.5 102.156 27.125C102.156 26.7188 102.281 26.3906 102.531 26.1406C102.812 25.8594 103.141 25.7188 103.516 25.7188H132.344C132.719 25.7188 133.031 25.8594 133.281 26.1406C133.562 26.3906 133.703 26.7188 133.703 27.125C133.703 27.5 133.562 27.8281 133.281 28.1094C133.031 28.3594 132.719 28.4844 132.344 28.4844H103.516ZM123.344 22.6719C123 22.6719 122.703 22.5469 122.453 22.2969C122.203 22.0469 122.078 21.75 122.078 21.4062C122.078 21.0625 122.203 20.7812 122.453 20.5625C122.703 20.3125 123 20.1875 123.344 20.1875H132.344C132.688 20.1875 132.984 20.3125 133.234 20.5625C133.484 20.7812 133.609 21.0625 133.609 21.4062C133.609 21.75 133.484 22.0469 133.234 22.2969C132.984 22.5469 132.688 22.6719 132.344 22.6719H123.344ZM122.406 16.8594C122.188 16.6094 122.078 16.3125 122.078 15.9688C122.078 15.625 122.188 15.3438 122.406 15.125C122.656 14.875 122.953 14.75 123.297 14.75H131.125C131.469 14.75 131.75 14.875 131.969 15.125C132.219 15.3438 132.344 15.625 132.344 15.9688C132.344 16.3125 132.219 16.6094 131.969 16.8594C131.75 17.0781 131.469 17.1875 131.125 17.1875H123.297C122.953 17.1875 122.656 17.0781 122.406 16.8594ZM137.875 31.9062C138.281 31.9062 138.625 32.0469 138.906 32.3281C139.188 32.6094 139.328 32.9531 139.328 33.3594C139.328 33.7344 139.188 34.0625 138.906 34.3438C138.625 34.625 138.281 34.7656 137.875 34.7656H113.547C113.234 34.7656 112.984 34.8906 112.797 35.1406C111.766 36.7031 110.656 38.2656 109.469 39.8281C109.406 39.8906 109.391 39.9688 109.422 40.0625C109.484 40.125 109.562 40.1562 109.656 40.1562C113.562 40.0625 119.516 39.9375 127.516 39.7812C127.578 39.7812 127.625 39.75 127.656 39.6875C127.688 39.5938 127.672 39.5156 127.609 39.4531C126.484 38.6094 125.422 37.8438 124.422 37.1562C124.141 36.9688 124 36.6875 124 36.3125C124.031 35.9375 124.219 35.6719 124.562 35.5156C125.031 35.2656 125.484 35.1406 125.922 35.1406C126.453 35.1406 126.984 35.3125 127.516 35.6562C130.859 37.8125 133.656 39.9531 135.906 42.0781C136.219 42.3906 136.344 42.7656 136.281 43.2031C136.219 43.6406 135.984 43.9688 135.578 44.1875C135.234 44.375 134.875 44.4688 134.5 44.4688C134.375 44.4688 134.234 44.4531 134.078 44.4219C133.578 44.3281 133.141 44.0938 132.766 43.7188C132.422 43.4062 132.062 43.0938 131.688 42.7812C131.5 42.625 131.281 42.5469 131.031 42.5469C114.344 43.1094 104.422 43.4219 101.266 43.4844C100.797 43.5156 100.391 43.375 100.047 43.0625C99.7344 42.7812 99.5625 42.4062 99.5312 41.9375C99.5 41.5312 99.625 41.1719 99.9062 40.8594C100.188 40.5156 100.547 40.3438 100.984 40.3438L104.828 40.2969C105.141 40.2969 105.375 40.1562 105.531 39.875C106.469 38.5625 107.453 37 108.484 35.1875C108.516 35.0938 108.5 35 108.438 34.9062C108.406 34.8125 108.328 34.7656 108.203 34.7656H98.1719C97.7656 34.7656 97.4219 34.625 97.1406 34.3438C96.8594 34.0625 96.7188 33.7344 96.7188 33.3594C96.7188 32.9531 96.8594 32.6094 97.1406 32.3281C97.4219 32.0469 97.7656 31.9062 98.1719 31.9062H137.875Z" fill="#FF9900"/>
</svg>
