<svg width="303" height="230" viewBox="0 0 303 230" fill="none" xmlns="http://www.w3.org/2000/svg">
<path d="M112.3 169.8C111.6 170.5 111.3 171.4 111.3 172.2C111.3 173.1 111.6 173.9 112.3 174.6C113 175.3 113.9 175.6 114.7 175.6C115.6 175.6 116.4 175.3 117.1 174.6L127.7 164.3C128.4 163.7 128.7 162.8 128.7 161.8C128.7 160.9 128.3 160 127.7 159.3L117.1 149C116.4 148.4 115.6 148 114.7 148C113.8 148 112.9 148.3 112.3 149C111.7 149.7 111.3 150.5 111.3 151.4C111.3 152.3 111.6 153.2 112.3 153.8L120.4 161.6L112.3 169.8ZM37.5 196.8C37.6 196.8 37.8 196.8 37.9 196.8C47.2 195.6 55.3 192.5 61.9 188.6C68.5 192.9 76.6 196.6 85.5 197.9C85.7 197.9 85.8 197.9 86 197.9C87.6 197.9 89 196.7 89.3 195.1C89.3 194.9 89.3 194.8 89.3 194.6C89.3 193 88.1 191.6 86.5 191.3C79.7 190.3 73.4 187.8 68 184.5L68.1 184.4C75.7 178.6 83 172.1 85.6 166.8C86.2 165.7 86.8 164.3 86.8 162.4C86.8 161.8 86.7 161 86.4 160.3C86 159.2 85 158.1 83.9 157.5C82.8 156.9 81.6 156.7 80.4 156.7H47.3L51.4 150C51.7 149.5 51.9 148.9 51.9 148.3C51.9 147.2 51.3 146.1 50.3 145.5C49.8 145.2 49.2 145 48.6 145C47.5 145 46.4 145.6 45.8 146.6L38.6 158.4C38.3 158.9 38.1 159.5 38.1 160.1C38.1 160.7 38.2 161.2 38.5 161.7C39.1 162.7 40.2 163.4 41.4 163.4H79.8C78.7 165.3 76.5 167.9 73.9 170.5C71 173.4 67.5 176.4 64.1 179C63.4 179.5 62.8 180 62.1 180.5C56.2 176.1 51.7 171.1 49.3 167.6C48.7 166.7 47.6 166.2 46.6 166.2C45.9 166.2 45.3 166.4 44.7 166.8C43.8 167.4 43.3 168.5 43.3 169.5C43.3 170.1 43.5 170.8 43.9 171.4C46.5 175.1 50.6 179.8 56.1 184.2C50.7 187 44.4 189.2 37.1 190.2C35.4 190.4 34.2 191.9 34.2 193.5C34.2 193.6 34.2 193.8 34.2 193.9C34.4 195.6 35.8 196.8 37.5 196.8ZM25.5 187.5C25.5 189.3 27 190.8 28.8 190.8C30.6 190.8 32.1 189.3 32.1 187.5V160.1C32.1 158.3 30.6 156.8 28.8 156.8C27 156.8 25.5 158.3 25.5 160.1V187.5ZM164.3 160.7H191.4C193.2 160.7 194.7 159.2 194.7 157.4C194.7 155.6 193.2 154.1 191.4 154.1H169.6L171.7 149.8C171.9 149.3 172 148.8 172 148.4C172 147.2 171.3 146 170.1 145.4C169.6 145.2 169.2 145.1 168.7 145.1C167.5 145.1 166.3 145.8 165.7 147L161.4 156C161.2 156.5 161.1 156.9 161.1 157.4C161.1 158 161.3 158.6 161.6 159.2C162.1 160.2 163.2 160.7 164.3 160.7ZM159.9 174.5C159.9 172.7 158.4 171.2 156.6 171.2H144.8C144.8 169.8 144.8 168.6 144.8 167.4C144.8 165.8 144.8 164.4 144.8 163.3H154.4C155.3 163.3 156.1 162.9 156.8 162.3C157.4 161.7 157.8 160.8 157.8 159.9V148.4C157.8 146.6 156.3 145.1 154.5 145.1C152.7 145.1 151.2 146.6 151.2 148.4V156.7H134.4C132.6 156.7 131.1 158.2 131.1 160C131.1 161.8 132.6 163.3 134.4 163.3H138.3C138.3 164.3 138.3 165.7 138.3 167.4C138.3 172.6 138.1 180.5 137.1 188.7C136.1 196.8 134.3 205.2 131.3 210.9C131.1 211.4 130.9 211.9 130.9 212.4C130.9 213.6 131.6 214.8 132.7 215.4C133.2 215.6 133.7 215.8 134.2 215.8C135.4 215.8 136.6 215.1 137.2 214C140.7 207 142.6 198.1 143.6 189.6C144.1 185.5 144.4 181.6 144.6 178H153.2C153.1 180.7 153 184.8 152.6 189.5C152 197.2 150.7 206.6 148.4 214.4C148.3 214.7 148.3 215 148.3 215.4C148.3 216.8 149.2 218.2 150.7 218.6C151 218.7 151.3 218.7 151.6 218.7C153 218.7 154.4 217.8 154.8 216.3C157.3 207.7 158.6 198 159.2 190C159.8 181.9 159.9 175.6 159.9 174.5ZM169.3 210.8C167.5 210.8 166 212.3 166 214.1C166 215.9 167.5 217.4 169.3 217.4H178.4C181.6 217.4 184.1 214.8 184.1 211.6V193.7H191.2C193 193.7 194.5 192.2 194.5 190.4C194.5 188.6 193 187.1 191.2 187.1H184.2V180.5L190 170.4C190.3 169.9 190.4 169.3 190.4 168.7C190.4 168.1 190.3 167.5 190 167C189.4 166 188.3 165.3 187.1 165.3H167.7C165.9 165.3 164.4 166.8 164.4 168.6C164.4 170.4 165.9 171.9 167.7 171.9H181.4L178 177.8C177.7 178.3 177.6 178.9 177.6 179.5V187H165.2C163.4 187 161.9 188.5 161.9 190.3C161.9 192.1 163.4 193.6 165.2 193.6H177.6V210.6H169.3V210.8ZM24 145.4C23.5 145.1 23 145 22.5 145C21.3 145 20.2 145.6 19.6 146.8C17 151.8 11.1 161.2 1.2 169.2C0.399997 169.9 0 170.8 0 171.8C0 172.5 0.199997 173.3 0.699997 173.9C1.4 174.7 2.3 175.1 3.3 175.1C4 175.1 4.8 174.9 5.4 174.4C7.6 172.7 9.5 170.9 11.3 169.1V193.9C11.3 195.7 12.8 197.2 14.6 197.2C16.4 197.2 17.9 195.7 17.9 193.9V161.6C21.5 157 23.9 152.9 25.5 150C25.8 149.5 25.9 149 25.9 148.5C25.7 147.2 25.1 146 24 145.4ZM85.6 204.7C85.1 203.4 83.8 202.6 82.5 202.6C82.1 202.6 81.7 202.7 81.3 202.8C80 203.3 79.2 204.6 79.2 205.9C79.2 206.3 79.3 206.7 79.4 207.1L86.4 225.1C86.9 226.4 88.2 227.2 89.5 227.2C89.9 227.2 90.3 227.1 90.7 227C92 226.5 92.8 225.2 92.8 223.9C92.8 223.5 92.7 223.1 92.6 222.7L85.6 204.7ZM192.1 222C144 222 144 222 143.9 222C137 222 132.9 219.7 130.3 217.5C128.7 216.2 127.7 214.8 127.2 214V188C127.2 183.6 123.7 180.1 119.3 180.1H112.5C110.7 180.1 109.2 181.6 109.2 183.4C109.2 185.2 110.7 186.7 112.5 186.7H119C119.9 186.7 120.6 187.4 120.6 188.3V211.8C120.6 213.6 120 215.9 118.6 217.8C117.3 219.8 115.3 221.4 112.7 222.3C111.3 222.8 110.4 224.1 110.4 225.5C110.4 225.8 110.4 226.2 110.6 226.5C111.1 227.9 112.4 228.8 113.8 228.8C114.1 228.8 114.5 228.7 114.8 228.6C119 227.3 122.2 224.6 124.2 221.5C124.3 221.3 124.4 221.2 124.5 221C125 221.5 125.5 222 126.1 222.5C129.7 225.6 135.5 228.6 143.9 228.6H144C144.2 228.6 144.2 228.6 192.2 228.6C194 228.6 195.5 227.1 195.5 225.3C195.5 223.5 193.9 222 192.1 222ZM14.4 202.6C12.5 202.6 11 204.1 11 206V206.1C11 206.5 11 209 10.4 212.1C9.8 215.3 8.59999 219.1 6.49999 222.1C6.09999 222.7 5.9 223.3 5.9 224C5.9 225.1 6.4 226.1 7.4 226.8C8 227.2 8.6 227.4 9.3 227.4C10.4 227.4 11.4 226.9 12.1 225.9C15 221.7 16.3 217.1 17 213.4C17.7 209.7 17.7 206.8 17.7 206.2C17.7 206.1 17.7 206.1 17.7 206.1C17.8 204 16.3 202.6 14.4 202.6ZM268.5 200C269.2 200.8 270.2 201.1 271.1 201.1C272 201.1 272.8 200.8 273.5 200.2C274.3 199.5 274.6 198.5 274.6 197.6C274.6 196.7 274.3 195.9 273.7 195.2L260.8 181.2C260.1 180.5 259.2 180.1 258.2 180.1C257.2 180.1 256.3 180.5 255.6 181.2L242.7 195.2C242.1 195.9 241.8 196.7 241.8 197.6C241.8 198.6 242.2 199.5 242.9 200.2C243.6 200.8 244.4 201.1 245.3 201.1C246.3 201.1 247.2 200.7 247.9 200L258.2 188.8L268.5 200ZM243.3 149.4C243.3 148.1 242.5 146.8 241.3 146.2C240.8 146 240.3 145.9 239.9 145.9C238.6 145.9 237.3 146.7 236.7 147.9C235.7 150.1 233.2 154.9 229 160.7C224.8 166.5 218.9 173.2 211.1 179.5C210.2 180.2 209.8 181.2 209.8 182.2C209.8 183 210.1 183.7 210.6 184.4C211.3 185.3 212.3 185.7 213.3 185.7C214.1 185.7 214.8 185.4 215.5 184.9C219.5 181.7 223.1 178.3 226.2 175V225.4C226.2 227.3 227.8 228.9 229.7 228.9C231.6 228.9 233.2 227.3 233.2 225.4V166.9C233.7 166.2 234.2 165.5 234.7 164.9C239.2 158.7 241.9 153.6 243.1 150.9C243.2 150.4 243.3 149.9 243.3 149.4ZM299.5 164.6H289.8V149.4C289.8 147.5 288.2 145.9 286.3 145.9C284.4 145.9 282.8 147.5 282.8 149.4V164.6H241.9C240 164.6 238.4 166.2 238.4 168.1C238.4 170 240 171.6 241.9 171.6H282.8V212.3C282.8 215.2 281.6 217.9 279.7 219.8C277.8 221.7 275.2 222.9 272.2 222.9C269.3 222.9 266.6 221.7 264.7 219.8C262.8 217.9 261.6 215.3 261.6 212.3V202.5C261.6 200.6 260 199 258.1 199C256.2 199 254.6 200.6 254.6 202.5V212.3C254.6 222 262.5 229.8 272.1 229.8C281.8 229.8 289.6 221.9 289.6 212.3V171.6H299.3C301.2 171.6 302.8 170 302.8 168.1C303 166.2 301.4 164.6 299.5 164.6ZM74.2 204.1C73.1 203.1 71.6 202.6 70 202.6H47.1C45.2 202.6 43.7 204.1 43.7 206C43.7 206.4 43.8 206.9 43.9 207.3L47.8 217.2C48.3 218.5 49.6 219.3 50.9 219.3C51.3 219.3 51.7 219.2 52.1 219.1C53.4 218.6 54.2 217.3 54.2 216C54.2 215.6 54.1 215.2 54 214.8L51.9 209.5H69.3V221.2C69.3 221.8 68.8 222.2 68.3 222.2H33.2C32.6 222.2 32.2 221.7 32.2 221.2V200.4C32.2 198.5 30.7 197 28.8 197C26.9 197 25.4 198.5 25.4 200.4V221.4C25.4 225.5 28.8 228.9 32.9 228.9H68.6C72.8 228.9 76.1 225.5 76.1 221.4V208.6C76.2 206.6 75.3 205.1 74.2 204.1Z" fill="black"/>
<path d="M150.82 91.2552C155.684 90.9905 160.277 100.844 162.33 103.705C163.627 105.559 164.978 106.142 166.437 107.89C166.924 108.473 169.518 109.85 170.328 109.903C175.246 110.38 178.326 108.738 180.65 108.102C183.784 107.254 185.729 107.148 188.377 105.612C190.863 104.129 209.939 96.2881 210.966 102.645C211.776 107.519 198.05 115.466 195.024 117.479C194.375 117.902 194.159 119.015 193.403 119.333C189.998 120.869 176.759 125.955 172.219 124.842C165.465 123.2 156.818 108.208 154.062 102.486C153.522 101.586 147.307 91.4143 150.82 91.2552Z" fill="#EC008C"/>
<path d="M181.471 95.7698C179.812 94.8096 179.19 92.6756 180.123 90.915C184.064 83.6062 186.397 75.2835 186.552 66.3742C186.552 66.0008 186.552 65.6806 186.552 65.3071C186.552 54.9573 183.649 45.3011 178.62 37.1385C173.59 28.976 166.435 22.3074 157.932 17.9861C156.221 17.1324 155.495 14.9984 156.376 13.2379C157.206 11.4773 159.28 10.7304 160.991 11.6374C170.635 16.5456 178.775 24.0679 184.478 33.3507C190.182 42.6336 193.5 53.6236 193.5 65.3605C193.5 65.7874 193.5 66.1607 193.5 66.5876C193.293 76.6706 190.7 86.1669 186.189 94.4361C185.567 95.6099 184.375 96.2501 183.182 96.2501C182.612 96.2501 181.99 96.09 181.471 95.7698Z" fill="#EC008C"/>
<path d="M225.875 56.0691C222.001 40.5367 213.829 26.6393 202.579 15.9572C201.146 14.5948 198.917 14.7038 197.59 16.1752C196.264 17.6468 196.37 19.9357 197.803 21.2983C203.693 26.9117 208.628 33.4516 212.449 40.7002C200.668 30.9447 185.863 25.3857 170.368 25.3857C164.212 25.3857 158.003 26.2578 151.795 28.1107C135.61 32.9067 122.502 43.4251 114.065 56.8865C113.004 58.576 113.481 60.8106 115.126 61.9005C115.71 62.282 116.4 62.5 117.037 62.5C118.204 62.5 119.319 61.9005 120.008 60.8106C127.597 48.766 139.271 39.3377 153.758 35.0867C159.277 33.4516 164.902 32.6887 170.368 32.6887C186.447 32.6887 201.783 39.3922 212.873 50.8916C212.555 50.8916 212.29 50.8916 211.971 50.8916C207.354 50.8916 203.587 52.145 200.933 53.344C198.28 54.5976 196.741 55.8511 196.582 55.96C195.043 57.2136 194.831 59.5025 196.051 61.083C196.741 61.955 197.803 62.4456 198.811 62.4456C199.607 62.4456 200.35 62.173 201.04 61.6281C201.04 61.6281 201.04 61.6281 201.093 61.5735C201.358 61.3555 202.579 60.4835 204.489 59.6661C206.399 58.8486 209 58.0855 212.024 58.0855C214.678 58.0855 217.649 58.6306 220.992 60.2655C222.213 60.865 223.699 60.7015 224.76 59.775C225.768 58.8486 226.246 57.4316 225.875 56.0691Z" fill="#2DA343"/>
<path d="M157.875 73.75C165.124 73.75 171 68.1537 171 61.25C171 54.3464 165.124 48.75 157.875 48.75C150.626 48.75 144.75 54.3464 144.75 61.25C144.75 68.1537 150.626 73.75 157.875 73.75Z" fill="#EC008C"/>
<path d="M83.2053 72.5529C83.3128 74.5326 81.7535 76.1913 79.7639 76.2448C77.7744 76.3518 76.1075 74.8001 76.0538 72.8205C76 71.8038 76 70.8408 76 69.8241C76 53.4516 82.4525 38.4702 93.0453 27.3946C102.509 17.4962 115.306 10.6475 129.717 8.77484C125.2 7.65122 120.468 7.11618 115.683 7.11618C113.371 7.11618 111.005 7.27669 108.639 7.54422C106.649 7.75824 104.875 6.36711 104.66 4.44092C104.445 2.46123 105.843 0.695562 107.778 0.481543C110.413 0.160511 113.048 0 115.683 0C128.211 0 140.202 3.53134 150.526 9.73793C151.655 10.38 152.301 11.6106 152.247 12.8947C152.193 14.1788 151.44 15.356 150.311 15.9446C142.891 19.7434 136.385 25.0404 131.223 31.4609C130.523 32.3171 129.502 32.7986 128.426 32.7986C127.62 32.7986 126.813 32.5311 126.168 31.996C124.609 30.7655 124.394 28.5183 125.63 26.9665C129.179 22.6327 133.212 18.7269 137.729 15.4095C136.922 15.4095 136.116 15.4095 135.309 15.463C120.63 16.1586 107.617 22.5256 98.2073 32.3706C88.8512 42.2155 83.1515 55.4313 83.1515 69.8776C83.1515 70.7873 83.1515 71.6433 83.2053 72.5529Z" fill="#0082C4"/>
<path d="M118.859 71.0487C117.032 70.3016 114.936 71.1554 114.184 72.9166C110.96 80.4947 109.348 88.5533 109.348 96.5584C109.348 96.8252 109.348 97.092 109.348 97.3588C104.512 86.8989 101.61 74.2508 101.61 60.5886C101.61 60.2151 101.61 59.8416 101.61 59.5213C101.771 45.4322 105.103 32.037 110.369 21.3635C111.228 19.6025 110.476 17.4678 108.703 16.6138C106.93 15.7599 104.78 16.4538 103.921 18.2682C98.171 29.9557 94.6246 44.365 94.4097 59.4679C94.4097 59.8416 94.4097 60.2685 94.4097 60.642C94.4097 76.4922 98.0099 91.1682 104.189 103.176C96.774 98.106 90.6483 91.2216 86.5646 83.0564C85.6511 81.2953 83.5017 80.6015 81.7285 81.4554C79.9553 82.3627 79.2568 84.4974 80.1165 86.2584C87.1556 100.134 99.2994 110.861 113.969 116.037C114.345 116.198 114.775 116.251 115.151 116.251C116.064 116.251 116.924 115.931 117.623 115.29C118.59 114.383 118.966 112.996 118.59 111.715C117.139 106.805 116.387 101.682 116.387 96.5584C116.387 89.4605 117.784 82.3627 120.632 75.6917C121.545 73.8773 120.685 71.7959 118.859 71.0487Z" fill="#FAAB54"/>
</svg>
