<svg width="41" height="40" viewBox="0 0 41 40" fill="none" xmlns="http://www.w3.org/2000/svg">
<rect x="0.5" width="40" height="40" rx="20" fill="#4267B2"/>
<g clip-path="url(#clip0_745_3075)">
<path d="M30.5 20C30.5 14.4756 26.0206 10 20.5 10C14.9756 10 10.5 14.4756 10.5 20C10.5 24.99 14.1556 29.1275 18.9375 29.8769V22.8912H16.3981V20.0006H18.9375V17.7962C18.9375 15.2906 20.4281 13.9069 22.7131 13.9069C23.8075 13.9069 24.9531 14.1019 24.9531 14.1019V16.5625H23.69C22.45 16.5625 22.0625 17.3344 22.0625 18.125V20H24.8356L24.39 22.8906H22.0625V29.8762C26.8406 29.1269 30.5 24.9894 30.5 19.9994V20Z" fill="white"/>
</g>
<defs>
<clipPath id="clip0_745_3075">
<rect width="20" height="20" fill="white" transform="translate(10.5 10)"/>
</clipPath>
</defs>
</svg>
