<svg width="41" height="40" viewBox="0 0 41 40" fill="none" xmlns="http://www.w3.org/2000/svg">
<rect x="0.5" width="40" height="40" rx="20" fill="#F2F1F6"/>
<g clip-path="url(#clip0_745_3070)">
<path d="M20.504 19.6094C19.9864 19.6094 19.6017 20.0293 19.6017 20.5117C19.6456 23.334 19.2843 26.0547 18.5177 28.7734C18.379 29.1914 18.5704 30 19.3868 30C19.797 30 20.1728 29.7314 20.2899 29.3164C20.8173 27.4465 21.4657 24.418 21.4423 20.5469C21.4415 20.0312 21.0235 19.6094 20.504 19.6094ZM20.4688 16.418C18.0431 16.4101 16.4063 18.2539 16.4415 20.3672C16.4708 22.2371 16.295 24.1121 15.9192 25.9336C15.8118 26.4062 16.1389 26.9344 16.6466 27.0418C17.1192 27.1443 17.6474 26.8221 17.7548 26.3144C18.1599 24.3566 18.3454 22.3457 18.3161 20.373C18.3009 19.3203 19.0587 18.2851 20.4415 18.293C21.6669 18.3125 22.6774 19.284 22.6923 20.4609C22.7265 22.3008 22.5849 24.2207 22.2774 26.0664C22.1944 26.5391 22.5411 27.0574 23.0536 27.1453C23.8298 27.2723 24.0985 26.5547 24.1278 26.3691C24.4501 24.4512 24.6013 22.4199 24.5673 20.4668C24.5313 18.2461 22.6954 16.4492 20.4688 16.418ZM16.1485 15.6445C15.7423 15.3164 15.1563 15.375 14.8243 15.7773C13.8302 17.0078 13.2884 18.5664 13.3126 20.1523C13.337 21.6219 13.2198 23.0965 12.9611 24.5312C12.8683 25.0039 13.2052 25.5273 13.713 25.6199C14.499 25.7566 14.7724 25.0391 14.7716 24.8633C15.0499 23.3058 15.1818 21.7141 15.1524 20.1211C15.172 18.957 15.547 17.8633 16.2462 16.9648C16.6095 16.5586 16.5509 15.9726 16.1485 15.6445ZM20.3868 13.2086C19.8204 13.1941 19.2149 13.2625 18.6329 13.4039C18.1302 13.4859 17.8177 13.9937 17.9349 14.5316C18.0569 15.0344 18.5247 15.3422 19.0325 15.225C19.5001 15.1289 19.9415 15.0781 20.3985 15.082C23.3427 15.126 25.7735 17.4844 25.8243 20.3398C25.8438 21.8191 25.7706 23.2734 25.6046 24.7773C25.546 25.2898 25.9171 25.7187 26.4296 25.8125C27.0839 25.8555 27.4257 25.3488 27.4648 24.9875C27.6454 23.4348 27.7235 21.8723 27.6991 20.3117C27.6329 16.457 24.3712 13.2672 20.3868 13.2086ZM30.2696 17.9531C30.1573 17.4805 29.6638 17.123 29.1513 17.2351C28.6786 17.3475 28.3263 17.8504 28.4384 18.3531C28.6239 19.193 28.6288 19.818 28.6239 20.7601C28.619 21.2777 29.0341 21.7023 29.5517 21.7074C30.0642 21.7074 30.4938 21.2926 30.4989 20.775C30.504 19.9141 30.5118 19.0547 30.2696 17.9531ZM28.6681 14.4101C26.7638 11.7004 23.6524 10.0469 20.336 9.99999C17.6118 9.96581 15.0938 10.9703 13.2188 12.85C11.4075 14.6613 10.4321 17.0687 10.4712 19.6312L10.4663 20.4711C10.4858 20.9922 10.8911 21.4219 11.4087 21.4375C11.4185 21.4414 11.4282 21.4414 11.438 21.4414C11.9106 21.4414 12.3606 21.0363 12.3403 20.5285L12.3452 19.6058C12.3509 17.5547 13.1271 15.625 14.5782 14.1758C16.0966 12.6621 18.1474 11.8469 20.3478 11.8762C23.0575 11.8801 25.6095 13.2676 27.1681 15.4844C27.4659 15.909 28.047 16.0117 28.4716 15.7139C28.8634 15.4141 29.0001 14.8359 28.6681 14.4101Z" fill="#FF9900"/>
</g>
<defs>
<clipPath id="clip0_745_3070">
<rect width="20" height="20" fill="white" transform="translate(10.5 10)"/>
</clipPath>
</defs>
</svg>
