<svg width="134" height="133" viewBox="0 0 134 133" fill="none" xmlns="http://www.w3.org/2000/svg">
<path d="M102.292 0H30.8626C13.8464 0 0 13.8232 0 30.8124V102.125C0 119.114 13.8464 132.937 30.8626 132.937H102.292C119.309 132.937 133.155 119.114 133.155 102.125V30.8124C133.155 13.8232 119.309 0 102.292 0Z" fill="#C9191D"/>
<path d="M46.1311 24.9693C47.6025 26.6385 47.3804 27.9957 46.4961 30.0115C45.6113 32.0278 42.2924 37.7483 36.6403 42.7478C30.9364 47.7933 25.7335 50.559 23.5595 51.4764C21.3855 52.3943 20.0675 52.1437 18.5961 50.4745L16.8198 48.4597C15.3488 46.7905 15.1853 44.5327 16.4553 43.4175C16.4553 43.4175 25.0848 37.7978 28.8514 34.4944C32.618 31.1915 39.3913 21.9526 39.3913 21.9526C40.6613 20.8369 42.8838 21.2853 44.3548 22.9545L46.1311 24.9693ZM46.0641 48.9848L44.2614 46.9407C42.7683 45.247 40.503 44.8044 39.196 45.9517C39.196 45.9517 32.2154 55.4216 28.3435 58.8143C24.474 62.2088 15.619 67.9975 15.619 67.9975C14.3125 69.1454 14.4654 71.4468 15.9585 73.1401L17.7593 75.1847C19.2519 76.8779 20.5983 77.1246 22.8261 76.1731C24.0052 75.6695 26.0907 74.5884 28.6325 72.9519V107.821C28.6325 109.907 30.1987 111.598 32.1312 111.598H35.1929C37.1254 111.598 38.6916 109.907 38.6916 107.821V64.7364C42.9612 60.3049 45.6285 55.8666 46.4036 54.1254C47.3206 52.064 47.5553 50.678 46.0641 48.9848Z" fill="white"/>
<path d="M114.639 55.5614H80.4203C80.3472 55.5614 80.2866 55.5969 80.2155 55.6012C80.1443 55.5969 80.0856 55.5614 80.0145 55.5614H73.1276C71.8692 55.5614 70.8474 54.5431 70.8474 53.2849V48.5125C70.8474 47.2561 71.8692 46.236 73.1276 46.236H80.0145C82.1043 46.236 83.7979 44.5509 83.7979 42.4708V39.9605C83.7979 37.8804 82.1043 36.1934 80.0145 36.1934H73.1276C71.8692 36.1934 70.8474 35.1756 70.8474 33.9188V25.7538C70.8474 23.6674 69.1595 21.9742 67.076 21.9742H64.5616C62.478 21.9742 60.7883 23.6674 60.7883 25.7538V33.9188C60.7883 35.1756 59.7688 36.1934 58.5099 36.1934H51.3095C49.2197 36.1934 47.5237 37.8804 47.5237 39.9605V42.4708C47.5237 44.5509 49.2197 46.236 51.3095 46.236H58.5099C59.7688 46.236 60.7883 47.2561 60.7883 48.5125V53.2849C60.7883 54.5431 59.7688 55.5614 58.5099 55.5614H51.3095C49.2197 55.5614 47.5237 57.2483 47.5237 59.3261V61.8393C47.5237 63.917 49.2197 65.604 51.3095 65.604H58.5099C59.7688 65.604 60.7883 66.6222 60.7883 67.8805V72.1805C60.7883 73.4368 59.7688 74.457 58.5099 74.457H51.3095C49.2197 74.457 47.5237 76.142 47.5237 78.2222V80.7324C47.5237 82.8126 49.2197 84.4996 51.3095 84.4996H58.5099C59.7688 84.4996 60.7883 85.5173 60.7883 86.7741V95.148C60.7883 96.2272 60.0347 97.1533 58.9793 97.377C52.6704 98.7082 46.3533 99.9602 46.3533 99.9602C44.2548 100.491 42.9964 102.67 43.5432 104.827L44.2048 107.432C44.7516 109.589 46.035 110.356 48.9956 110.375C51.9563 110.396 56.0941 109.913 65.5396 107.496C74.901 105.103 80.7492 101.094 83.0001 99.5632C85.2491 98.0352 86.3546 96.8542 85.8079 94.6967L85.1462 92.0943C84.6 89.9368 82.4558 88.6176 80.3578 89.1486C80.3578 89.1486 77.6107 90.5158 74.0677 92.1087C72.5602 92.788 70.8474 91.6867 70.8474 90.0353V86.7741C70.8474 85.5173 71.8692 84.4996 73.1276 84.4996H80.0145C82.1043 84.4996 83.7979 82.8126 83.7979 80.7324V78.2222C83.7979 76.142 82.1043 74.457 80.0145 74.457H73.1276C71.8692 74.457 70.8474 73.4368 70.8474 72.1805V67.8805C70.8474 66.6222 71.8692 65.604 73.1276 65.604H80.0145C80.0856 65.604 80.1443 65.5685 80.2155 65.5641C80.2866 65.5685 80.3472 65.604 80.4203 65.604H88.9344C90.2178 65.604 91.2584 66.6428 91.2584 67.9222V107.82C91.2584 109.907 92.8246 111.598 94.7552 111.598H97.8188C99.7514 111.598 101.318 109.907 101.318 107.82V67.9222C101.318 66.6428 102.356 65.604 103.64 65.604H114.639C116.729 65.604 118.425 63.917 118.425 61.8393V59.3261C118.425 57.2483 116.729 55.5614 114.639 55.5614Z" fill="white"/>
<path d="M96.3041 35.2032C93.921 35.2032 91.9889 33.2742 91.9889 30.895C91.9889 28.5158 93.921 26.5868 96.3041 26.5868C98.6873 26.5868 100.619 28.5158 100.619 30.895C100.619 33.2742 98.6873 35.2032 96.3041 35.2032ZM96.846 21.4227C96.6609 21.4126 96.4868 21.4491 96.3041 21.4496C96.1214 21.4491 95.9473 21.4126 95.7622 21.4227C90.1068 21.7295 86.4085 27.0237 87.3558 32.8796C88.2858 38.6323 95.0924 50.5957 95.0924 50.5957C95.3289 51.1122 95.818 51.3595 96.3041 51.3513C96.7903 51.3595 97.2793 51.1122 97.5159 50.5957C97.5159 50.5957 104.322 38.6323 105.252 32.8796C106.2 27.0237 102.501 21.7295 96.846 21.4227Z" fill="white"/>
</svg>
