<svg width="41" height="40" viewBox="0 0 41 40" fill="none" xmlns="http://www.w3.org/2000/svg">
<rect x="0.5" width="40" height="40" rx="20" fill="#06C755"/>
<g clip-path="url(#clip0_745_3073)">
<path d="M26.6356 18.2194C26.7062 18.2169 26.7766 18.2287 26.8425 18.2541C26.9084 18.2794 26.9686 18.3177 27.0194 18.3668C27.0702 18.4159 27.1106 18.4747 27.1382 18.5397C27.1658 18.6047 27.18 18.6747 27.18 18.7453C27.18 18.8159 27.1658 18.8858 27.1382 18.9509C27.1106 19.0159 27.0702 19.0747 27.0194 19.1238C26.9686 19.1728 26.9084 19.2112 26.8425 19.2365C26.7766 19.2619 26.7062 19.2737 26.6356 19.2712H25.1737V20.2087H26.6356C26.7066 20.2053 26.7776 20.2163 26.8443 20.241C26.9109 20.2658 26.9718 20.3039 27.0233 20.3529C27.0748 20.402 27.1158 20.4609 27.1438 20.5263C27.1718 20.5916 27.1862 20.662 27.1862 20.7331C27.1862 20.8042 27.1718 20.8746 27.1438 20.9399C27.1158 21.0053 27.0748 21.0642 27.0233 21.1133C26.9718 21.1623 26.9109 21.2004 26.8443 21.2252C26.7776 21.25 26.7066 21.2609 26.6356 21.2575H24.65C24.5112 21.257 24.3782 21.2015 24.2802 21.1033C24.1822 21.005 24.127 20.8719 24.1269 20.7331V16.7581C24.1269 16.4687 24.3612 16.2312 24.65 16.2312H26.6394C26.7743 16.2382 26.9014 16.2968 26.9944 16.395C27.0873 16.4931 27.1389 16.6232 27.1385 16.7583C27.1381 16.8935 27.0857 17.0233 26.9922 17.1209C26.8987 17.2184 26.7712 17.2763 26.6362 17.2825H25.1744V18.22L26.6356 18.2194ZM23.4269 20.7325C23.4257 20.8717 23.3697 21.0048 23.2709 21.1029C23.1721 21.201 23.0386 21.2561 22.8994 21.2562C22.817 21.257 22.7355 21.2386 22.6614 21.2025C22.5873 21.1664 22.5226 21.1135 22.4725 21.0481L20.4381 18.2812V20.7319C20.4381 20.8709 20.3829 21.0043 20.2845 21.1026C20.1862 21.201 20.0528 21.2562 19.9137 21.2562C19.7747 21.2562 19.6413 21.201 19.543 21.1026C19.4446 21.0043 19.3894 20.8709 19.3894 20.7319V16.7569C19.3894 16.5325 19.5363 16.3312 19.7475 16.2594C19.7997 16.2409 19.8547 16.2318 19.91 16.2325C20.0725 16.2325 20.2225 16.3206 20.3231 16.4444L22.3737 19.2175V16.7569C22.3737 16.4675 22.6081 16.23 22.8981 16.23C23.1881 16.23 23.4256 16.4675 23.4256 16.7569L23.4269 20.7325ZM18.6419 20.7325C18.6412 20.8719 18.5853 21.0054 18.4865 21.1036C18.3876 21.2019 18.2538 21.257 18.1144 21.2569C17.976 21.2557 17.8437 21.2 17.7462 21.1018C17.6487 21.0036 17.5939 20.8709 17.5938 20.7325V16.7575C17.5938 16.4681 17.8281 16.2306 18.1181 16.2306C18.4075 16.2306 18.6425 16.4681 18.6425 16.7575L18.6419 20.7325ZM16.5875 21.2569H14.5981C14.4589 21.2565 14.3254 21.2013 14.2266 21.1031C14.1278 21.0049 14.0718 20.8717 14.0706 20.7325V16.7575C14.0706 16.4681 14.3081 16.2306 14.5981 16.2306C14.8881 16.2306 15.1225 16.4681 15.1225 16.7575V20.2081H16.5875C16.7266 20.2081 16.8599 20.2633 16.9583 20.3617C17.0566 20.46 17.1119 20.5934 17.1119 20.7325C17.1119 20.8715 17.0566 21.0049 16.9583 21.1033C16.8599 21.2016 16.7266 21.2569 16.5875 21.2569ZM30.5 18.5931C30.5 14.1175 26.0106 10.475 20.5 10.475C14.9894 10.475 10.5 14.1175 10.5 18.5931C10.5 22.6037 14.0581 25.9631 18.8625 26.6012C19.1881 26.6694 19.6306 26.8162 19.745 27.0931C19.8456 27.3431 19.81 27.7306 19.7775 27.995L19.6406 28.8444C19.6012 29.095 19.4388 29.8312 20.5131 29.3819C21.5906 28.9325 26.2781 25.9837 28.3775 23.5675C29.8131 21.9956 30.5 20.3806 30.5 18.5931Z" fill="white"/>
</g>
<defs>
<clipPath id="clip0_745_3073">
<rect width="20" height="20" fill="white" transform="translate(10.5 10)"/>
</clipPath>
</defs>
</svg>
