<svg width="141" height="151" viewBox="0 0 141 151" fill="none" xmlns="http://www.w3.org/2000/svg">
<g clip-path="url(#clip0)">
<path d="M48.51 0.169922H41.23C40.7081 0.169759 40.2068 0.373596 39.8332 0.737923C39.4595 1.10225 39.243 1.5982 39.23 2.11992V45.6099C39.2456 46.1299 39.4632 46.6233 39.8366 46.9855C40.21 47.3477 40.7098 47.5502 41.23 47.5499H48.51C49.0302 47.5502 49.53 47.3477 49.9034 46.9855C50.2768 46.6233 50.4944 46.1299 50.51 45.6099V2.11992C50.4969 1.5982 50.2805 1.10225 49.9068 0.737923C49.5331 0.373596 49.0319 0.169759 48.51 0.169922V0.169922Z" fill="black"/>
<path d="M30.92 36.7099H11.32V2.11992C11.307 1.5982 11.0905 1.10225 10.7169 0.737923C10.3432 0.373596 9.84191 0.169759 9.32003 0.169922H2.03003C1.50815 0.169759 1.00687 0.373596 0.633204 0.737923C0.259536 1.10225 0.0430763 1.5982 0.0300293 2.11992L0.0300293 45.6099C0.0456352 46.1299 0.263219 46.6233 0.636613 46.9855C1.01001 47.3477 1.50983 47.5502 2.03003 47.5499H30.93C31.4502 47.5502 31.95 47.3477 32.3234 46.9855C32.6968 46.6233 32.9144 46.1299 32.93 45.6099V38.6099C32.9043 38.0953 32.6809 37.6104 32.3064 37.2565C31.9319 36.9025 31.4353 36.7067 30.92 36.7099Z" fill="black"/>
<path d="M139.03 11.0504C139.552 11.0506 140.053 10.8467 140.427 10.4824C140.8 10.1181 141.017 9.62211 141.03 9.10039V2.10039C141.017 1.57867 140.8 1.08272 140.427 0.71839C140.053 0.354063 139.552 0.150228 139.03 0.150391H110.15C109.628 0.150228 109.127 0.354063 108.753 0.71839C108.379 1.08272 108.163 1.57867 108.15 2.10039V45.6104C108.166 46.1304 108.383 46.6238 108.756 46.986C109.13 47.3482 109.63 47.5506 110.15 47.5504H139.03C139.55 47.5506 140.05 47.3482 140.423 46.986C140.797 46.6238 141.014 46.1304 141.03 45.6104V38.6104C141.004 38.0975 140.782 37.6141 140.41 37.2604C140.038 36.9067 139.543 36.7097 139.03 36.7104H119.45V29.3004H139.03C139.55 29.3006 140.05 29.0982 140.423 28.736C140.797 28.3738 141.014 27.8804 141.03 27.3604V20.3604C141.017 19.8387 140.8 19.3427 140.427 18.9784C140.053 18.6141 139.552 18.4102 139.03 18.4104H119.45V11.0504H139.03Z" fill="black"/>
<path d="M98.43 0.170065H91.15C90.6281 0.169901 90.1268 0.373739 89.7532 0.738065C89.3795 1.10239 89.163 1.59835 89.15 2.12007V27.2801L70.15 1.13007C69.8914 0.787798 69.5504 0.516586 69.1587 0.341724C68.767 0.166862 68.3374 0.0940454 67.91 0.130066C67.7969 0.120063 67.6831 0.120063 67.57 0.130066H60.23C59.7081 0.129902 59.2068 0.333738 58.8332 0.698065C58.4595 1.06239 58.243 1.55835 58.23 2.08007V45.6101C58.2456 46.13 58.4632 46.6235 58.8366 46.9856C59.21 47.3478 59.7098 47.5503 60.23 47.5501H67.51C68.0302 47.5503 68.53 47.3478 68.9034 46.9856C69.2768 46.6235 69.4944 46.13 69.51 45.6101V19.3201L89.38 46.5901C89.5682 46.86 89.8101 47.0881 90.0906 47.2602C90.3711 47.4323 90.6841 47.5446 91.01 47.5901H98.43C98.9502 47.5903 99.45 47.3878 99.8234 47.0256C100.197 46.6635 100.414 46.17 100.43 45.6501V2.12007C100.417 1.59835 100.2 1.10239 99.8268 0.738065C99.4531 0.373739 98.9519 0.169901 98.43 0.170065V0.170065Z" fill="black"/>
<path d="M133.3 67H7.62C3.96387 67 1 69.9639 1 73.62V144.09C1 147.746 3.96387 150.71 7.62 150.71H133.3C136.956 150.71 139.92 147.746 139.92 144.09V73.62C139.92 69.9639 136.956 67 133.3 67Z" fill="#08BF5B"/>
<path d="M51.08 99.6503C51.08 107 44.92 112.91 36.98 112.91H30.98V123.78C30.9761 123.955 30.9378 124.127 30.8674 124.287C30.7969 124.447 30.6956 124.591 30.5694 124.712C30.4431 124.833 30.2942 124.927 30.1313 124.991C29.9684 125.054 29.7947 125.084 29.62 125.08H23.12C22.769 125.086 22.43 124.952 22.1771 124.708C21.9242 124.465 21.7779 124.131 21.77 123.78V87.7103C21.7779 87.3593 21.9242 87.0257 22.1771 86.7821C22.43 86.5386 22.769 86.4049 23.12 86.4103H36.95C44.95 86.3803 51.08 92.2903 51.08 99.6503ZM41.87 99.6503C41.8864 98.9988 41.7705 98.3508 41.5293 97.7453C41.2881 97.1399 40.9266 96.5897 40.4667 96.1279C40.0068 95.6661 39.4581 95.3024 38.8536 95.0588C38.2492 94.8151 37.6016 94.6966 36.95 94.7103H30.95V104.66H36.95C37.6081 104.676 38.2623 104.556 38.8723 104.309C39.4822 104.062 40.0349 103.692 40.4961 103.222C40.9573 102.752 41.3172 102.193 41.5535 101.579C41.7899 100.964 41.8976 100.308 41.87 99.6503Z" fill="white"/>
<path d="M85.2798 98.12V124.39C85.2785 124.482 85.2591 124.573 85.2227 124.657C85.1863 124.742 85.1337 124.818 85.0677 124.882C85.0018 124.946 84.9239 124.997 84.8385 125.031C84.753 125.064 84.6617 125.081 84.5698 125.08H77.3598C77.2679 125.081 77.1766 125.064 77.0912 125.031C77.0057 124.997 76.9278 124.946 76.8619 124.882C76.796 124.818 76.7433 124.742 76.7069 124.657C76.6705 124.573 76.6511 124.482 76.6498 124.39V122.48C74.7498 124.58 71.9298 125.85 68.0698 125.85C60.5298 125.85 54.3098 119.49 54.3098 111.26C54.3098 103.03 60.5298 96.71 68.0698 96.71C71.9298 96.71 74.7498 97.98 76.6498 100.08V98.12C76.6511 98.028 76.6705 97.9373 76.7069 97.8528C76.7433 97.7684 76.796 97.692 76.8619 97.6279C76.9278 97.5638 77.0057 97.5134 77.0912 97.4794C77.1766 97.4454 77.2679 97.4286 77.3598 97.43H84.5698C84.6617 97.4286 84.753 97.4454 84.8385 97.4794C84.9239 97.5134 85.0018 97.5638 85.0677 97.6279C85.1337 97.692 85.1863 97.7684 85.2227 97.8528C85.2591 97.9373 85.2785 98.028 85.2798 98.12V98.12ZM76.6498 111.26C76.6498 107.11 73.7698 104.51 69.7998 104.51C65.8298 104.51 62.9498 107.11 62.9498 111.26C62.9498 115.41 65.8198 118 69.7998 118C73.7798 118 76.6498 115.4 76.6498 111.26Z" fill="white"/>
<path d="M114.01 98.1499L107.39 114.15L100.53 98.1499C100.437 97.9362 100.283 97.7547 100.088 97.6284C99.8918 97.502 99.663 97.4364 99.43 97.4399H92.09C91.9686 97.4321 91.8473 97.4565 91.7384 97.5107C91.6295 97.5649 91.5368 97.6469 91.4698 97.7484C91.4028 97.8499 91.3639 97.9673 91.3569 98.0888C91.3499 98.2102 91.3751 98.3314 91.43 98.4399L102.86 125.21L98.69 135.29C98.6488 135.396 98.6344 135.51 98.648 135.623C98.6617 135.736 98.703 135.844 98.7683 135.937C98.8336 136.03 98.9209 136.105 99.0224 136.156C99.1239 136.207 99.2364 136.233 99.35 136.23H106.7C106.935 136.232 107.166 136.165 107.363 136.037C107.561 135.909 107.716 135.725 107.81 135.51L123.13 98.4299C123.171 98.324 123.186 98.2095 123.172 98.0967C123.158 97.9839 123.117 97.8762 123.052 97.7832C122.986 97.6902 122.899 97.6147 122.798 97.5636C122.696 97.5124 122.584 97.4871 122.47 97.4899H115.12C114.891 97.4826 114.665 97.5409 114.469 97.6579C114.272 97.7748 114.113 97.9455 114.01 98.1499V98.1499Z" fill="white"/>
</g>
<defs>
<clipPath id="clip0">
<rect width="141" height="151" fill="white"/>
</clipPath>
</defs>
</svg>
