<svg width="16" height="16" viewBox="0 0 16 16" fill="none" xmlns="http://www.w3.org/2000/svg">
<path d="M12.9085 6.57538C12.965 6.57344 13.0213 6.58288 13.074 6.60315C13.1268 6.62341 13.1749 6.65409 13.2155 6.69336C13.2562 6.73262 13.2885 6.77966 13.3106 6.83168C13.3326 6.8837 13.344 6.93963 13.344 6.99613C13.344 7.05264 13.3326 7.10857 13.3106 7.16059C13.2885 7.21261 13.2562 7.25965 13.2155 7.29891C13.1749 7.33817 13.1268 7.36885 13.074 7.38912C13.0213 7.40939 12.965 7.41883 12.9085 7.41688H11.739V8.16688H12.9085C12.9653 8.16411 13.0221 8.1729 13.0754 8.19273C13.1287 8.21256 13.1774 8.24301 13.2186 8.28224C13.2598 8.32147 13.2926 8.36865 13.315 8.42093C13.3374 8.47322 13.349 8.5295 13.349 8.58638C13.349 8.64326 13.3374 8.69955 13.315 8.75183C13.2926 8.80411 13.2598 8.8513 13.2186 8.89052C13.1774 8.92975 13.1287 8.9602 13.0754 8.98003C13.0221 8.99986 12.9653 9.00866 12.9085 9.00588H11.32C11.209 9.00549 11.1026 8.96113 11.0242 8.88252C10.9457 8.8039 10.9016 8.69743 10.9015 8.58638V5.40638C10.9015 5.17488 11.089 4.98488 11.32 4.98488H12.9115C13.0195 4.99046 13.1212 5.03736 13.1955 5.11587C13.2698 5.19437 13.3111 5.29846 13.3108 5.40657C13.3105 5.51468 13.2686 5.61853 13.1938 5.69659C13.119 5.77465 13.017 5.82095 12.909 5.82588H11.7395V6.57588L12.9085 6.57538ZM10.3415 8.58588C10.3406 8.69724 10.2957 8.80373 10.2167 8.8822C10.1377 8.96066 10.0309 9.00476 9.9195 9.00488C9.85356 9.00552 9.78838 8.99082 9.72911 8.96192C9.66984 8.93302 9.6181 8.89073 9.578 8.83838L7.9505 6.62488V8.58538C7.9505 8.69664 7.9063 8.80334 7.82763 8.88201C7.74896 8.96069 7.64226 9.00488 7.531 9.00488C7.41974 9.00488 7.31304 8.96069 7.23437 8.88201C7.1557 8.80334 7.1115 8.69664 7.1115 8.58538V5.40538C7.1115 5.22588 7.229 5.06488 7.398 5.00738C7.43973 4.99264 7.48374 4.98536 7.528 4.98588C7.658 4.98588 7.778 5.05638 7.8585 5.15538L9.499 7.37388V5.40538C9.499 5.17388 9.6865 4.98388 9.9185 4.98388C10.1505 4.98388 10.3405 5.17388 10.3405 5.40538L10.3415 8.58588ZM6.5135 8.58588C6.51297 8.69741 6.46826 8.80418 6.38916 8.88281C6.31007 8.96144 6.20303 9.00552 6.0915 9.00538C5.9808 9.00446 5.87495 8.95987 5.79695 8.88131C5.71896 8.80276 5.67513 8.69658 5.675 8.58588V5.40588C5.675 5.17438 5.8625 4.98438 6.0945 4.98438C6.326 4.98438 6.514 5.17438 6.514 5.40588L6.5135 8.58588ZM4.87 9.00538H3.2785C3.16709 9.00512 3.06028 8.96092 2.98127 8.88238C2.90226 8.80383 2.85742 8.69729 2.8565 8.58588V5.40588C2.8565 5.17438 3.0465 4.98438 3.2785 4.98438C3.5105 4.98438 3.698 5.17438 3.698 5.40588V8.16638H4.87C4.98126 8.16638 5.08796 8.21058 5.16663 8.28925C5.2453 8.36792 5.2895 8.47462 5.2895 8.58588C5.2895 8.69714 5.2453 8.80384 5.16663 8.88251C5.08796 8.96119 4.98126 9.00538 4.87 9.00538ZM16 6.87438C16 3.29388 12.4085 0.379883 8 0.379883C3.5915 0.379883 0 3.29388 0 6.87438C0 10.0829 2.8465 12.7704 6.69 13.2809C6.9505 13.3354 7.3045 13.4529 7.396 13.6744C7.4765 13.8744 7.448 14.1844 7.422 14.3959L7.3125 15.0754C7.281 15.2759 7.151 15.8649 8.0105 15.5054C8.8725 15.1459 12.6225 12.7869 14.302 10.8539C15.4505 9.59638 16 8.30438 16 6.87438Z" fill="#06C755"/>
</svg>
