<svg width="22" height="22" viewBox="0 0 22 22" fill="none" xmlns="http://www.w3.org/2000/svg">
<path d="M0 4.5C0 5.05228 0.447715 5.5 1 5.5H4.5C5.05228 5.5 5.5 5.05228 5.5 4.5V1C5.5 0.447715 5.05228 0 4.5 0H1C0.447715 0 0 0.447715 0 1V4.5ZM8.25 21C8.25 21.5523 8.69772 22 9.25 22H12.75C13.3023 22 13.75 21.5523 13.75 21V17.5C13.75 16.9477 13.3023 16.5 12.75 16.5H9.25C8.69772 16.5 8.25 16.9477 8.25 17.5V21ZM0 21C0 21.5523 0.447715 22 1 22H4.5C5.05228 22 5.5 21.5523 5.5 21V17.5C5.5 16.9477 5.05228 16.5 4.5 16.5H1C0.447715 16.5 0 16.9477 0 17.5V21ZM0 12.75C0 13.3023 0.447715 13.75 1 13.75H4.5C5.05228 13.75 5.5 13.3023 5.5 12.75V9.25C5.5 8.69772 5.05228 8.25 4.5 8.25H1C0.447715 8.25 0 8.69772 0 9.25V12.75ZM8.25 12.75C8.25 13.3023 8.69772 13.75 9.25 13.75H12.75C13.3023 13.75 13.75 13.3023 13.75 12.75V9.25C13.75 8.69772 13.3023 8.25 12.75 8.25H9.25C8.69772 8.25 8.25 8.69772 8.25 9.25V12.75ZM17.5 0C16.9477 0 16.5 0.447715 16.5 1V4.5C16.5 5.05228 16.9477 5.5 17.5 5.5H21C21.5523 5.5 22 5.05228 22 4.5V1C22 0.447715 21.5523 0 21 0H17.5ZM8.25 4.5C8.25 5.05228 8.69772 5.5 9.25 5.5H12.75C13.3023 5.5 13.75 5.05228 13.75 4.5V1C13.75 0.447715 13.3023 0 12.75 0H9.25C8.69772 0 8.25 0.447715 8.25 1V4.5ZM16.5 12.75C16.5 13.3023 16.9477 13.75 17.5 13.75H21C21.5523 13.75 22 13.3023 22 12.75V9.25C22 8.69772 21.5523 8.25 21 8.25H17.5C16.9477 8.25 16.5 8.69772 16.5 9.25V12.75ZM16.5 21C16.5 21.5523 16.9477 22 17.5 22H21C21.5523 22 22 21.5523 22 21V17.5C22 16.9477 21.5523 16.5 21 16.5H17.5C16.9477 16.5 16.5 16.9477 16.5 17.5V21Z" fill="#FF9900"/>
</svg>
