<svg width="24" height="24" viewBox="0 0 24 24" fill="none" xmlns="http://www.w3.org/2000/svg">
<path d="M0.5 5.5C0.5 6.32843 1.17157 7 2 7H5.5C6.32843 7 7 6.32843 7 5.5V2C7 1.17157 6.32843 0.5 5.5 0.5H2C1.17157 0.5 0.5 1.17157 0.5 2V5.5ZM8.75 22C8.75 22.8284 9.42157 23.5 10.25 23.5H13.75C14.5784 23.5 15.25 22.8284 15.25 22V18.5C15.25 17.6716 14.5784 17 13.75 17H10.25C9.42157 17 8.75 17.6716 8.75 18.5V22ZM0.5 22C0.5 22.8284 1.17157 23.5 2 23.5H5.5C6.32843 23.5 7 22.8284 7 22V18.5C7 17.6716 6.32843 17 5.5 17H2C1.17157 17 0.5 17.6716 0.5 18.5V22ZM0.5 13.75C0.5 14.5784 1.17157 15.25 2 15.25H5.5C6.32843 15.25 7 14.5784 7 13.75V10.25C7 9.42157 6.32843 8.75 5.5 8.75H2C1.17157 8.75 0.5 9.42157 0.5 10.25V13.75ZM8.75 13.75C8.75 14.5784 9.42157 15.25 10.25 15.25H13.75C14.5784 15.25 15.25 14.5784 15.25 13.75V10.25C15.25 9.42157 14.5784 8.75 13.75 8.75H10.25C9.42157 8.75 8.75 9.42157 8.75 10.25V13.75ZM18.5 0.5C17.6716 0.5 17 1.17157 17 2V5.5C17 6.32843 17.6716 7 18.5 7H22C22.8284 7 23.5 6.32843 23.5 5.5V2C23.5 1.17157 22.8284 0.5 22 0.5H18.5ZM8.75 5.5C8.75 6.32843 9.42157 7 10.25 7H13.75C14.5784 7 15.25 6.32843 15.25 5.5V2C15.25 1.17157 14.5784 0.5 13.75 0.5H10.25C9.42157 0.5 8.75 1.17157 8.75 2V5.5ZM17 13.75C17 14.5784 17.6716 15.25 18.5 15.25H22C22.8284 15.25 23.5 14.5784 23.5 13.75V10.25C23.5 9.42157 22.8284 8.75 22 8.75H18.5C17.6716 8.75 17 9.42157 17 10.25V13.75ZM17 22C17 22.8284 17.6716 23.5 18.5 23.5H22C22.8284 23.5 23.5 22.8284 23.5 22V18.5C23.5 17.6716 22.8284 17 22 17H18.5C17.6716 17 17 17.6716 17 18.5V22Z" fill="white" stroke="#FF9900"/>
</svg>
