<svg width="39" height="40" viewBox="0 0 39 40" fill="none" xmlns="http://www.w3.org/2000/svg">
<g clip-path="url(#clip0_3978_60616)">
<path d="M38.6217 6.08927C38.6135 5.9487 38.604 5.80863 38.5878 5.67105C38.5748 5.56369 38.5573 5.45858 38.5398 5.35321C38.5189 5.22837 38.4964 5.10353 38.4692 4.98294C38.4442 4.87258 38.4168 4.76347 38.3868 4.65561C38.3568 4.54775 38.3229 4.43789 38.2869 4.33103C38.2492 4.21793 38.21 4.10632 38.1663 3.99571C38.1296 3.90308 38.0892 3.81295 38.0485 3.72281C37.9953 3.60521 37.9421 3.48787 37.8824 3.37326C37.8457 3.3036 37.8045 3.23669 37.7653 3.16878C37.7039 3.06241 37.6418 2.9568 37.5743 2.85443C37.5616 2.8352 37.5511 2.81398 37.5381 2.79476C37.5189 2.76604 37.4967 2.73958 37.477 2.71136C36.8921 1.87558 36.1092 1.19786 35.1981 0.738904L35.1904 0.735159C35.0047 0.641613 34.8132 0.556556 34.6161 0.479988L34.5897 0.469751C34.3929 0.394348 34.1908 0.327767 33.9832 0.270008L33.9582 0.263766C33.8993 0.247537 33.8367 0.238798 33.777 0.223069C33.6509 0.191859 33.5241 0.161647 33.3945 0.137179C33.3655 0.131686 33.3383 0.123197 33.3091 0.118203L33.3071 0.1207L33.3091 0.118203C33.2919 0.115207 33.2736 0.113959 33.2564 0.110963C33.0776 0.0810011 32.8971 0.0552844 32.7131 0.0360592C32.7049 0.0360592 32.6969 0.0335622 32.6881 0.0328132C32.6162 0.0265712 32.5436 0.0220772 32.4709 0.016834C32.4335 0.0143372 32.396 0.0108413 32.3588 0.0088439C32.2437 0.00235226 32.1273 -0.00189209 32.0093 -0.00189209H14.0451C9.68724 -0.00189209 5.51661 3.54354 4.74835 7.90168L0.482597 32.0935C0.400308 32.5568 0.359781 33.0265 0.361503 33.497V33.5082C0.361503 33.5771 0.367744 33.6445 0.37049 33.713C0.373736 33.7926 0.375236 33.8727 0.380979 33.9514C0.384224 33.9933 0.389464 34.0343 0.393958 34.0762C0.452995 34.9202 0.67996 35.744 1.06154 36.4991C1.44312 37.2543 1.97164 37.9256 2.6161 38.4738C3.84822 39.4848 5.39968 40.0246 6.99321 39.9969H24.597C25.1151 39.9969 26.9732 40.1092 28.1545 39.0656C26.7649 38.1478 25.7034 36.8116 25.1239 35.2505C25.1184 35.2365 25.1129 35.2255 25.1074 35.2108C24.7107 34.1559 24.4415 33.0965 24.4415 33.0965H8.18743C7.99554 33.1038 7.80686 33.0458 7.65218 32.932C7.49749 32.8183 7.38596 32.6554 7.33577 32.4701C7.30981 32.346 7.30778 32.2181 7.32978 32.0933L7.34701 31.9959L11.595 7.90368C11.6534 7.61345 11.8077 7.35133 12.0333 7.15959C12.2588 6.96784 12.5424 6.85765 12.8382 6.84679H27.7765L27.7854 6.83555L27.7765 6.84679H30.8038C30.857 6.84703 30.9101 6.85154 30.9626 6.86027C30.9823 6.86477 31.0013 6.87051 31.0203 6.876C31.064 6.88887 31.1068 6.90498 31.1481 6.92419C31.1666 6.93318 31.1856 6.94067 31.2035 6.95066C31.2563 6.9799 31.3059 7.01463 31.3514 7.05427C31.4293 7.13493 31.4953 7.22622 31.5476 7.32542C31.6315 7.50123 31.6578 7.69909 31.6225 7.8907L28.4191 24.5565C28.4191 24.5565 32.3975 24.5565 34.9292 26.0031L37.0368 15.5296L38.5201 7.90343C38.5661 7.64426 38.5968 7.38834 38.6167 7.13567C38.6235 7.04978 38.6227 6.96614 38.6267 6.88125C38.6342 6.71646 38.641 6.55167 38.638 6.39038C38.636 6.28876 38.6277 6.18939 38.6217 6.08927Z" fill="#96BE0B"/>
<path opacity="0.28" d="M37.3439 2.61994C37.269 2.51832 37.1893 2.42019 37.1077 2.32307C37.0795 2.28936 37.0545 2.25316 37.0258 2.21995C36.7367 1.89031 36.4141 1.59159 36.0633 1.3286C35.774 1.10667 35.4657 0.910746 35.142 0.743103L35.1342 0.739108C34.949 0.645728 34.757 0.561087 34.56 0.484686L34.5335 0.474449C34.3372 0.399046 34.1354 0.332465 33.928 0.274706L33.9046 0.268465C33.7909 0.237255 33.6731 0.214284 33.555 0.190315L33.557 0.187818L33.5353 0.185821C33.5043 0.179329 33.4743 0.171339 33.4434 0.165097C33.3952 0.15536 33.2551 0.12415 33.2551 0.12415C33.0524 0.0886953 32.846 0.0604824 32.6359 0.0395094C32.4135 0.0200345 32.189 0.00505364 31.9583 0.00505364H30.1893C29.8273 -0.00118833 29.4585 -0.00168768 29.0927 0.00505364H14.0454C9.68747 0.00505364 5.51684 3.55049 4.74858 7.90838L0.483322 32.098C0.401167 32.5613 0.360641 33.0309 0.362227 33.5014C0.362227 33.5741 0.367971 33.6455 0.370967 33.7174C0.374213 33.7971 0.375709 33.8772 0.381452 33.9558C0.387943 34.0425 0.39893 34.1274 0.408417 34.2128C0.415658 34.2777 0.420653 34.3431 0.429642 34.4073C0.443124 34.5026 0.460848 34.5965 0.478076 34.6904C0.487314 34.7421 0.494806 34.7945 0.505293 34.8457C0.526515 34.9488 0.55223 35.0499 0.578197 35.1511C0.588434 35.191 0.596926 35.232 0.607662 35.2714C0.637623 35.3803 0.672078 35.4869 0.707532 35.593C0.717519 35.6232 0.726007 35.6539 0.736494 35.6839C0.775444 35.796 0.818641 35.9058 0.863333 36.0147C0.872571 36.0372 0.88056 36.0601 0.890048 36.0824C0.938236 36.1965 0.989918 36.3071 1.04535 36.4182C1.05309 36.4339 1.06008 36.4501 1.06807 36.4659C1.12574 36.58 1.18716 36.6906 1.25133 36.8012C1.25782 36.8122 1.26357 36.8234 1.26981 36.8341C1.33639 36.9468 1.40672 37.0569 1.48079 37.1645L1.49477 37.1862C1.56984 37.2952 1.64832 37.4016 1.73022 37.5053C1.73471 37.5108 1.73871 37.5163 1.74295 37.5218C1.82501 37.6253 1.91048 37.7261 1.99937 37.8241L2.01335 37.8401C2.10174 37.9372 2.19362 38.0311 2.288 38.1225C2.29399 38.1282 2.29973 38.1342 2.30547 38.14C2.3986 38.2291 2.49498 38.3147 2.5936 38.3986L2.61857 38.4201C2.65003 38.4451 2.68449 38.47 2.71669 38.495C4.20145 36.4052 5.73406 34.3549 7.31453 32.3442C7.30878 32.2997 7.30619 32.2549 7.30679 32.2101C7.30644 32.1609 7.31011 32.1118 7.31777 32.0633C7.31777 32.0575 7.31777 32.052 7.31902 32.0461L7.33625 31.9489L11.576 7.89564C11.6342 7.60586 11.7884 7.34412 12.0135 7.15265C12.2387 6.96118 12.5218 6.85113 12.8172 6.84025H27.7312L27.7332 6.83776H27.7859L27.7847 6.83925H30.7539C30.8229 6.84012 30.8916 6.84849 30.9588 6.86422C30.9718 6.86697 30.9838 6.86897 30.9975 6.87246C31.1451 6.90122 31.2828 6.96771 31.397 7.06546C31.487 7.14663 31.5584 7.24628 31.6063 7.35759C33.6434 5.70971 35.6296 4.21588 37.5386 2.89833C37.4767 2.8022 37.409 2.71207 37.3439 2.61994Z" fill="url(#paint0_linear_3978_60616)"/>
<path d="M36.2865 28.2579C34.3465 26.2222 28.0016 25.7748 26.0399 25.6842C25.9638 25.6804 25.8877 25.6921 25.8162 25.7186C25.7448 25.7452 25.6795 25.786 25.6243 25.8386C25.5691 25.8911 25.5252 25.9544 25.4952 26.0245C25.4652 26.0945 25.4498 26.17 25.4499 26.2462C25.4459 28.2102 25.587 34.5692 27.527 36.6049C28.0751 37.18 28.731 37.6416 29.4575 37.9632C30.184 38.2849 30.9666 38.4603 31.7609 38.4794C32.5551 38.4986 33.3454 38.3611 34.0865 38.0748C34.8276 37.7886 35.5051 37.3592 36.0802 36.8111C36.6554 36.263 37.117 35.607 37.4386 34.8806C37.7602 34.1541 37.9356 33.3714 37.9548 32.5772C37.9739 31.7829 37.8365 30.9927 37.5502 30.2516C37.264 29.5105 36.8345 28.833 36.2865 28.2579ZM32.0357 37.0346C31.1773 37.0346 30.3382 36.78 29.6244 36.3031C28.9107 35.8262 28.3544 35.1484 28.0259 34.3553C27.6974 33.5622 27.6115 32.6896 27.7789 31.8477C27.9464 31.0058 28.3597 30.2324 28.9667 29.6254C29.5737 29.0184 30.347 28.6051 31.189 28.4376C32.0309 28.2702 32.9035 28.3561 33.6966 28.6846C34.4897 29.0131 35.1675 29.5694 35.6444 30.2831C36.1213 30.9969 36.3758 31.836 36.3758 32.6944C36.3758 33.8455 35.9186 34.9494 35.1046 35.7634C34.2907 36.5773 33.1868 37.0346 32.0357 37.0346Z" fill="#FF9900"/>
<path d="M32.9038 30.3435H30.7486L30.2467 36.0813H31.4022L31.5902 33.9341H32.5889C33.1085 33.9569 33.6178 33.7843 34.0166 33.4505C34.2009 33.2884 34.3508 33.091 34.4574 32.87C34.564 32.6489 34.6252 32.4087 34.6373 32.1636C34.6746 31.9259 34.6589 31.6828 34.5913 31.4518C34.5236 31.2208 34.4057 31.0077 34.2461 30.8276C34.0679 30.6585 33.8567 30.5282 33.6257 30.4448C33.3946 30.3615 33.1488 30.327 32.9038 30.3435ZM33.4825 32.1631C33.4788 32.2669 33.4545 32.3689 33.4111 32.4632C33.3676 32.5575 33.3059 32.6422 33.2294 32.7124C33.0599 32.8481 32.8471 32.9179 32.6301 32.9092H31.6796L31.8152 31.3599H32.7657C32.8689 31.3525 32.9725 31.3668 33.0697 31.4021C33.1669 31.4374 33.2556 31.4928 33.33 31.5647C33.3954 31.6485 33.4427 31.7449 33.4689 31.8479C33.4952 31.9509 33.4998 32.0583 33.4825 32.1631Z" fill="#FF9900"/>
</g>
<defs>
<linearGradient id="paint0_linear_3978_60616" x1="47.316" y1="46.0015" x2="-57.2232" y2="-45.1096" gradientUnits="userSpaceOnUse">
<stop stop-color="white"/>
<stop offset="1" stop-color="#96BE0B"/>
</linearGradient>
<clipPath id="clip0_3978_60616">
<rect width="38.2775" height="40" fill="white" transform="translate(0.361206)"/>
</clipPath>
</defs>
</svg>
