<svg width="19" height="18" viewBox="0 0 19 18" fill="none" xmlns="http://www.w3.org/2000/svg">
<path d="M9.3611 17.8887C7.96789 17.8877 6.5944 17.5594 5.35129 16.9304C4.10818 16.3013 3.03021 15.3891 2.20424 14.2671C1.37827 13.1451 0.827383 11.8448 0.595974 10.471C0.364565 9.09712 0.459101 7.68812 0.871965 6.35749C0.886627 6.3068 0.911251 6.25954 0.944398 6.21848C0.977544 6.17743 1.01855 6.1434 1.06501 6.11838C1.11147 6.09336 1.16245 6.07786 1.21497 6.07279C1.2675 6.06771 1.3205 6.07317 1.37089 6.08883C1.42128 6.10449 1.46804 6.13005 1.50843 6.164C1.54882 6.19795 1.58204 6.23962 1.60613 6.28657C1.63022 6.33351 1.64471 6.38479 1.64874 6.43741C1.65278 6.49002 1.64628 6.54291 1.62962 6.59298C1.07983 8.36144 1.15343 10.265 1.83811 11.9857C2.5228 13.7065 3.77713 15.1402 5.39161 16.0475C7.0061 16.9548 8.88299 17.2807 10.7088 16.9708C12.5347 16.6609 14.1989 15.734 15.4236 14.3448C16.6483 12.9556 17.3594 11.1883 17.4379 9.33801C17.5165 7.48773 16.9579 5.66649 15.8554 4.17847C14.7529 2.69044 13.1733 1.62572 11.3803 1.16212C9.5873 0.69852 7.68953 0.864107 6.00393 1.63123C5.95638 1.65407 5.90475 1.66719 5.85206 1.66984C5.79937 1.67248 5.74668 1.6646 5.69708 1.64664C5.64748 1.62868 5.60195 1.60101 5.56317 1.56524C5.52439 1.52948 5.49313 1.48634 5.47122 1.43835C5.44931 1.39036 5.43719 1.33849 5.43556 1.28576C5.43394 1.23303 5.44285 1.1805 5.46177 1.13126C5.48069 1.08201 5.50924 1.03703 5.54575 0.998955C5.58226 0.960875 5.626 0.930458 5.67441 0.909484C6.88241 0.359085 8.19835 0.0862177 9.5256 0.110914C10.8529 0.13561 12.1577 0.457242 13.3444 1.0522C14.5311 1.64715 15.5695 2.50033 16.3833 3.54908C17.1972 4.59784 17.7658 5.81554 18.0475 7.1128C18.3292 8.41006 18.3167 9.75393 18.0111 11.0458C17.7055 12.3376 17.1144 13.5445 16.2813 14.5781C15.4482 15.6116 14.3942 16.4454 13.1967 17.0183C11.9992 17.5912 10.6886 17.8886 9.3611 17.8887Z" fill="#FF9900"/>
<path d="M2.37442 4.56787C2.30196 4.56795 2.23087 4.54818 2.16885 4.51072C2.10684 4.47325 2.05626 4.41952 2.02261 4.35536C1.98897 4.29119 1.97353 4.21903 1.97798 4.14672C1.98243 4.0744 2.0066 4.00468 2.04786 3.94513C2.64408 3.08357 3.3876 2.33394 4.24425 1.73069C4.33027 1.67005 4.43687 1.64607 4.54058 1.66402C4.64429 1.68197 4.73662 1.74039 4.79726 1.82641C4.8579 1.91244 4.88188 2.01904 4.86393 2.12275C4.84598 2.22646 4.78756 2.31879 4.70154 2.37943C3.92118 2.92905 3.24394 3.61206 2.70097 4.39706C2.66441 4.44982 2.6156 4.49293 2.55873 4.52268C2.50185 4.55243 2.4386 4.56794 2.37442 4.56787Z" fill="#FF9900"/>
<path d="M8.0573 12.3873C7.60325 12.3873 7.37623 12.2425 7.37623 11.953V4.27531C7.36574 4.20194 7.37249 4.12713 7.39594 4.05682C7.41938 3.9865 7.45888 3.92261 7.5113 3.87021C7.56372 3.81781 7.62762 3.77834 7.69794 3.75492C7.76827 3.7315 7.84308 3.72478 7.91645 3.73529H9.99459C12.1939 3.73529 13.2937 4.60821 13.2938 6.35405C13.2938 7.26201 12.9962 7.95083 12.4011 8.42048C11.8141 8.88234 11.0271 9.1132 10.0402 9.11306H8.73679V11.953C8.73772 12.2427 8.51122 12.3874 8.0573 12.3873ZM8.73818 8.01954H9.91245C10.6088 8.01954 11.1214 7.88655 11.4504 7.62057C11.7868 7.34653 11.9551 6.92383 11.9553 6.35246C11.9553 5.80451 11.7833 5.41705 11.4395 5.19009C11.1022 4.9552 10.5772 4.83775 9.86444 4.83775H9.0074C8.97066 4.83234 8.93317 4.8356 8.89792 4.84727C8.86267 4.85893 8.83063 4.87868 8.80438 4.90494C8.77812 4.93119 8.75837 4.96323 8.7467 4.99848C8.73504 5.03373 8.73178 5.07122 8.73719 5.10796L8.73818 8.01954Z" fill="#FF9900"/>
<path d="M12.6527 14.5856H6.28438C6.17915 14.5856 6.07823 14.5437 6.00382 14.4693C5.92941 14.3949 5.8876 14.294 5.8876 14.1888C5.8876 14.0835 5.92941 13.9826 6.00382 13.9082C6.07823 13.8338 6.17915 13.792 6.28438 13.792H12.6527C12.758 13.792 12.8589 13.8338 12.9333 13.9082C13.0077 13.9826 13.0495 14.0835 13.0495 14.1888C13.0495 14.294 13.0077 14.3949 12.9333 14.4693C12.8589 14.5437 12.758 14.5856 12.6527 14.5856Z" fill="#FF9900"/>
</svg>
