<svg width="112" height="112" viewBox="0 0 112 112" fill="none" xmlns="http://www.w3.org/2000/svg">
<path d="M31.5 60.166H37.75M48.1667 76.8327H79.4167V93.4993H48.1667V76.8327Z" stroke="#BDBDBD" stroke-width="8.33333" stroke-linecap="round" stroke-linejoin="round"/>
<path d="M85.6663 47.6667V22.6667C85.6663 21.5616 85.2274 20.5018 84.446 19.7204C83.6646 18.939 82.6047 18.5 81.4997 18.5H31.4997C30.3946 18.5 29.3348 18.939 28.5534 19.7204C27.772 20.5018 27.333 21.5616 27.333 22.6667V47.6667" stroke="#BDBDBD" stroke-width="8.33333" stroke-linecap="round"/>
<path d="M89.8333 47.666H23.1667C20.8655 47.666 19 49.5315 19 51.8327V89.3327C19 91.6339 20.8655 93.4993 23.1667 93.4993H89.8333C92.1345 93.4993 94 91.6339 94 89.3327V51.8327C94 49.5315 92.1345 47.666 89.8333 47.666Z" stroke="#BDBDBD" stroke-width="8.33333"/>
<rect x="10" y="-0.535534" width="145" height="15" rx="7.5" transform="rotate(45 10 -0.535534)" fill="#BDBDBD" stroke="white" stroke-width="5"/>
</svg>
