<svg width="40" height="40" viewBox="0 0 40 40" fill="none" xmlns="http://www.w3.org/2000/svg">
<path d="M10 21.6665H12.5M16.6667 28.3332H29.1667V34.9998H16.6667V28.3332Z" stroke="#96BE0B" stroke-width="3.33333" stroke-linecap="round" stroke-linejoin="round"/>
<path d="M31.6666 16.6667V6.66667C31.6666 6.22464 31.491 5.80072 31.1784 5.48816C30.8659 5.17559 30.4419 5 29.9999 5H9.99992C9.55789 5 9.13397 5.17559 8.82141 5.48816C8.50885 5.80072 8.33325 6.22464 8.33325 6.66667V16.6667" stroke="#FF9900" stroke-width="3.33333" stroke-linecap="round"/>
<path d="M33.3333 16.6665H6.66667C5.74619 16.6665 5 17.4127 5 18.3332V33.3332C5 34.2536 5.74619 34.9998 6.66667 34.9998H33.3333C34.2538 34.9998 35 34.2536 35 33.3332V18.3332C35 17.4127 34.2538 16.6665 33.3333 16.6665Z" stroke="#96BE0B" stroke-width="3.33333"/>
</svg>
