<svg width="35" height="30" viewBox="0 0 35 30" fill="none" xmlns="http://www.w3.org/2000/svg">
<path fill-rule="evenodd" clip-rule="evenodd" d="M8.05402 1.875L7.96613 1.14316C7.83722 0.479883 7.25714 0 6.58331 0H2.36456C1.5882 0 0.958313 0.629883 0.958313 1.40625C0.958313 2.18262 1.5882 2.8125 2.36456 2.8125H5.41964L8.9505 21.3574C8.98076 21.5129 9.03589 21.6583 9.11058 21.7898C9.35403 22.2186 9.8053 22.5 10.2806 22.5H29.5521C30.0085 22.5 30.4127 22.2849 30.6693 21.9501C30.8507 21.7133 30.9583 21.4166 30.9583 21.0938C30.9583 20.5398 30.6415 20.0628 30.1784 19.8333C29.99 19.7399 29.7774 19.6875 29.5521 19.6875H11.4993L10.9603 16.875H29.5403C29.5443 16.875 29.5482 16.875 29.5521 16.875C29.7923 16.8735 30.0242 16.8262 30.2381 16.7404C30.7656 16.5288 31.1832 16.0825 31.345 15.5098L34.5091 4.25742C34.8431 3.06152 33.8939 1.875 32.7044 1.875H8.05402ZM8.86622 4.875L10.5798 13.875H28.6884L31.2191 4.875H8.86622ZM30.3411 25.4298C30.123 25.1578 29.8554 24.9271 29.5521 24.7515C29.1383 24.5121 28.658 24.375 28.1458 24.375C27.2261 24.375 26.4092 24.817 25.896 25.5C25.5427 25.9701 25.3333 26.5545 25.3333 27.1875C25.3333 28.7402 26.5931 30 28.1458 30C29.6985 30 30.9583 28.7402 30.9583 27.1875C30.9583 26.5225 30.7273 25.9113 30.3411 25.4298ZM9.14489 25.3465C8.71719 25.8399 8.45831 26.4836 8.45831 27.1875C8.45831 28.7402 9.71808 30 11.2708 30C12.8235 30 14.0833 28.7402 14.0833 27.1875C14.0833 26.5545 13.8739 25.9701 13.5207 25.5C13.0074 24.817 12.1905 24.375 11.2708 24.375C10.9223 24.375 10.5886 24.4385 10.2806 24.5544C9.83827 24.721 9.44892 24.9958 9.14489 25.3465ZM11.2708 27.375C11.3749 27.375 11.4583 27.2916 11.4583 27.1875C11.4583 27.0834 11.3749 27 11.2708 27C11.1667 27 11.0833 27.0834 11.0833 27.1875C11.0833 27.2916 11.1667 27.375 11.2708 27.375ZM28.1458 27C28.0417 27 27.9583 27.0834 27.9583 27.1875C27.9583 27.2916 28.0417 27.375 28.1458 27.375C28.2499 27.375 28.3333 27.2916 28.3333 27.1875C28.3333 27.0834 28.2499 27 28.1458 27Z" fill="#96BE0B"/>
<path d="M8.45831 27.1875C8.45831 25.6348 9.71808 24.375 11.2708 24.375C12.8235 24.375 14.0833 25.6348 14.0833 27.1875C14.0833 28.7402 12.8235 30 11.2708 30C9.71808 30 8.45831 28.7402 8.45831 27.1875ZM30.9583 27.1875C30.9583 28.7402 29.6985 30 28.1458 30C26.5931 30 25.3333 28.7402 25.3333 27.1875C25.3333 25.6348 26.5931 24.375 28.1458 24.375C29.6985 24.375 30.9583 25.6348 30.9583 27.1875Z" fill="#FF9900"/>
</svg>
