<svg width="31" height="30" viewBox="0 0 31 30" fill="none" xmlns="http://www.w3.org/2000/svg">
<g clip-path="url(#clip0_747_5691)">
<path d="M15.1665 30C12.8155 29.9983 10.4977 29.4443 8.39994 28.3828C6.3022 27.3212 4.48313 25.7818 3.0893 23.8885C1.69547 21.9952 0.765853 19.8009 0.37535 17.4825C-0.0151527 15.1641 0.144377 12.7864 0.841086 10.541C0.865827 10.4555 0.90738 10.3757 0.963315 10.3064C1.01925 10.2372 1.08844 10.1797 1.16684 10.1375C1.24524 10.0953 1.33128 10.0691 1.41991 10.0606C1.50854 10.052 1.59799 10.0612 1.68302 10.0876C1.76806 10.1141 1.84696 10.1572 1.91512 10.2145C1.98329 10.2718 2.03934 10.3421 2.07999 10.4213C2.12065 10.5005 2.14509 10.5871 2.1519 10.6759C2.15871 10.7647 2.14773 10.8539 2.11963 10.9384C1.19186 13.9227 1.31605 17.1349 2.47146 20.0387C3.62687 22.9424 5.74355 25.3618 8.46799 26.8929C11.1924 28.4239 14.3597 28.9739 17.4408 28.451C20.5219 27.928 23.3303 26.3638 25.397 24.0196C27.4637 21.6753 28.6636 18.693 28.7962 15.5706C28.9288 12.4483 27.9862 9.37495 26.1257 6.86391C24.2652 4.35287 21.5995 2.55615 18.5739 1.77382C15.5482 0.991497 12.3457 1.27093 9.50128 2.56544C9.42103 2.60398 9.3339 2.62613 9.24499 2.6306C9.15608 2.63506 9.06717 2.62175 8.98347 2.59144C8.89976 2.56114 8.82294 2.51444 8.7575 2.45409C8.69205 2.39374 8.6393 2.32094 8.60233 2.23996C8.56535 2.15898 8.5449 2.07144 8.54216 1.98246C8.53943 1.89348 8.55446 1.80484 8.58639 1.72174C8.61831 1.63864 8.66649 1.56274 8.7281 1.49848C8.78971 1.43422 8.86352 1.38289 8.9452 1.3475C10.9837 0.418701 13.2044 -0.0417635 15.4441 -8.90875e-05C17.6838 0.0415853 19.8858 0.584341 21.8884 1.58833C23.8909 2.59232 25.6432 4.03205 27.0165 5.80182C28.3899 7.57159 29.3495 9.62647 29.8248 11.8156C30.3001 14.0047 30.2791 16.2725 29.7634 18.4525C29.2476 20.6324 28.2502 22.6692 26.8443 24.4132C25.4385 26.1573 23.6598 27.5643 21.6391 28.5311C19.6183 29.4979 17.4066 29.9998 15.1665 30V30Z" fill="#96BE0B"/>
<path d="M3.37639 7.52091C3.25412 7.52103 3.13416 7.48768 3.02951 7.42446C2.92485 7.36124 2.83951 7.27057 2.78273 7.16229C2.72595 7.05401 2.6999 6.93224 2.70741 6.81021C2.71492 6.68817 2.75571 6.57052 2.82534 6.47002C3.83145 5.01615 5.08614 3.75115 6.53173 2.73316C6.6769 2.63083 6.85678 2.59036 7.03179 2.62066C7.2068 2.65095 7.36261 2.74952 7.46494 2.8947C7.56727 3.03987 7.60774 3.21974 7.57745 3.39476C7.54716 3.56977 7.44858 3.72558 7.30341 3.82791C5.98656 4.75539 4.84371 5.90798 3.92745 7.23266C3.86576 7.3217 3.78339 7.39444 3.68741 7.44464C3.59143 7.49485 3.48471 7.52102 3.37639 7.52091V7.52091Z" fill="#FF9900"/>
<path d="M12.9663 20.7161C12.2001 20.7161 11.817 20.4718 11.817 19.9832V7.02709C11.7993 6.90327 11.8107 6.77703 11.8502 6.65838C11.8898 6.53972 11.9564 6.43191 12.0449 6.34348C12.1334 6.25506 12.2412 6.18845 12.3599 6.14893C12.4785 6.10941 12.6048 6.09807 12.7286 6.11581H16.2354C19.9469 6.11581 21.8027 7.58886 21.8029 10.535C21.8029 12.0672 21.3007 13.2295 20.2964 14.0221C19.3059 14.8014 17.9779 15.191 16.3124 15.1908H14.1129V19.9832C14.1145 20.472 13.7323 20.7163 12.9663 20.7161ZM14.1153 13.3455H16.0968C17.2719 13.3455 18.137 13.1211 18.6921 12.6722C19.2599 12.2098 19.5439 11.4965 19.5441 10.5323C19.5441 9.6076 19.254 8.95377 18.6737 8.57078C18.1045 8.17439 17.2186 7.9762 16.0158 7.9762H14.5696C14.5076 7.96707 14.4443 7.97257 14.3848 7.99226C14.3253 8.01195 14.2713 8.04528 14.227 8.08958C14.1827 8.13389 14.1493 8.18795 14.1296 8.24743C14.11 8.30692 14.1045 8.37019 14.1136 8.43218L14.1153 13.3455Z" fill="#FF9900"/>
<path d="M20.7209 24.4252H9.97432C9.79674 24.4252 9.62643 24.3547 9.50086 24.2291C9.37529 24.1035 9.30475 23.9332 9.30475 23.7556C9.30475 23.578 9.37529 23.4077 9.50086 23.2822C9.62643 23.1566 9.79674 23.0861 9.97432 23.0861H20.7209C20.8985 23.0861 21.0688 23.1566 21.1943 23.2822C21.3199 23.4077 21.3905 23.578 21.3905 23.7556C21.3905 23.9332 21.3199 24.1035 21.1943 24.2291C21.0688 24.3547 20.8985 24.4252 20.7209 24.4252Z" fill="#96BE0B"/>
</g>
<defs>
<clipPath id="clip0_747_5691">
<rect width="29.9997" height="30" fill="white" transform="translate(0.166809)"/>
</clipPath>
</defs>
</svg>
