<svg width="41" height="40" viewBox="0 0 41 40" fill="none" xmlns="http://www.w3.org/2000/svg">
<g clip-path="url(#clip0_3978_61027)">
<path d="M25.9383 35.054C24.246 35.6617 22.4076 36.0002 20.4999 36.0002C18.5922 36.0002 16.7537 35.6617 15.0614 35.054C14.9691 35.0463 15.0153 35.0386 14.9999 35.0309C12.6845 34.1848 10.623 32.8155 8.95372 31.0771C6.19526 28.2002 4.49988 24.3002 4.49988 20.0002C4.49988 11.1632 11.6614 4.00015 20.4999 4.00015C29.3383 4.00015 36.4999 11.1632 36.4999 20.0002C36.4999 24.3002 34.7383 28.2002 32.046 31.0771C31.9691 31.154 31.8922 31.2386 31.8153 31.3155C30.1691 32.954 28.1691 34.2463 25.9383 35.054ZM18.9537 12.5463V13.0771C18.523 13.1694 18.046 13.3002 17.7306 13.4694C16.5845 13.9925 15.5845 14.9617 15.3383 16.3694C15.1999 17.154 15.2768 17.9155 15.5999 18.6002C15.923 19.2771 16.423 19.754 16.9306 20.1002C17.823 20.7078 18.9999 21.0617 19.8999 21.3309L20.0691 21.3771C21.146 21.7078 21.8691 21.9463 22.323 22.2771C22.5153 22.4155 22.5845 22.5232 22.6076 22.5925C22.6383 22.654 22.6845 22.7925 22.6306 23.1002C22.5845 23.3694 22.4383 23.6002 22.0153 23.7771C21.546 23.9771 20.7845 24.0771 19.7999 23.9232C19.3383 23.8463 18.5153 23.5694 17.7845 23.3232C17.6153 23.2617 17.446 23.2078 17.2922 23.154C16.4845 22.8848 15.6153 23.3232 15.346 24.1309C15.0768 24.9386 15.5153 25.8078 16.323 26.0078C16.4153 26.1078 16.5306 26.1463 16.6614 26.1925C17.1999 26.4002 18.223 26.7232 18.9537 26.8925V27.3848C18.9537 28.2386 19.646 28.9309 20.4306 28.9309C21.3537 28.9309 22.046 28.2386 22.046 27.3848V26.9617C22.4537 26.8848 22.8537 26.7002 23.223 26.6078C24.4383 26.0925 25.4076 25.0925 25.6614 23.6309C25.7999 22.8309 25.7383 22.0617 25.4306 21.3617C25.1306 20.6694 24.646 20.1617 24.1306 19.7925C23.1999 19.1078 21.9537 18.7386 21.023 18.454L20.8922 18.4386C19.8691 18.1078 19.1306 17.8771 18.6614 17.554C18.4614 17.4155 18.3999 17.3232 18.3845 17.2848C18.3691 17.254 18.323 17.1617 18.3691 16.9002C18.3999 16.7463 18.5153 16.4925 18.9999 16.2771C19.4306 16.054 20.2614 15.9309 21.1999 16.0078C21.5383 16.1309 22.5768 16.3309 22.8768 16.4078C23.6922 16.6309 24.5383 16.1386 24.7537 15.3155C24.9768 14.5002 24.4845 13.654 23.6614 13.4386C23.323 13.3463 22.5537 13.1925 22.046 13.1002V12.6155C22.046 11.7617 21.3537 11.0694 20.4999 11.0694C19.646 11.0694 18.9537 11.7617 18.9537 12.6155V12.5463Z" fill="#96BE0B"/>
</g>
<path d="M0.5 0H40.5H0.5ZM42 20.75C42 32.2099 32.7099 41.5 21.25 41.5C9.79009 41.5 0.5 32.2099 0.5 20.75V20C0.5 30.2173 9.4543 38.5 20.5 38.5C30.7173 38.5 39 30.2173 39 20L42 20.75ZM0.5 40V0V40ZM21.25 0C32.7099 0 42 9.29009 42 20.75C42 32.2099 32.7099 41.5 21.25 41.5L20.5 38.5C30.7173 38.5 39 30.2173 39 20C39 8.9543 30.7173 0 20.5 0H21.25Z" fill="#FF9900" mask="url(#path-1-inside-1_3978_61027)"/>
<defs>
<clipPath id="clip0_3978_61027">
<rect width="32" height="32" fill="white" transform="translate(4.5 4)"/>
</clipPath>
</defs>
</svg>
