<svg width="31" height="30" viewBox="0 0 31 30" fill="none" xmlns="http://www.w3.org/2000/svg">
<path d="M28.7489 2.79218C28.7794 2.85987 28.8096 2.92756 28.8371 2.99711C28.8096 2.92756 28.7794 2.85987 28.7489 2.79218Z" fill="#96BE0B"/>
<path d="M28.9279 3.24854C28.9546 3.32887 28.9794 3.41008 29.0023 3.49216C28.9796 3.40958 28.9546 3.32887 28.9279 3.24854Z" fill="#96BE0B"/>
<path d="M29.0632 3.73761C29.0833 3.82874 29.1004 3.92172 29.1161 4.01545C29.1004 3.92172 29.0848 3.82874 29.0632 3.73761Z" fill="#96BE0B"/>
<path d="M28.3194 2.03448C28.3342 2.05606 28.351 2.07577 28.3651 2.09735C28.3513 2.07577 28.335 2.05606 28.3194 2.03448Z" fill="#96BE0B"/>
<path d="M29.1529 4.25354C29.1652 4.35694 29.1722 4.4622 29.1785 4.56746C29.1722 4.46332 29.1652 4.35694 29.1529 4.25354Z" fill="#96BE0B"/>
<path d="M28.5366 2.37781C28.566 2.42876 28.5968 2.47898 28.6244 2.53105C28.5965 2.47898 28.566 2.42876 28.5366 2.37781Z" fill="#96BE0B"/>
<path d="M29.1908 4.79321C29.193 4.91409 29.1878 5.03758 29.1823 5.16144C29.1878 5.03758 29.193 4.91447 29.1908 4.79321Z" fill="#96BE0B"/>
<path d="M29.1748 5.35223C29.1599 5.54192 29.1376 5.73385 29.1004 5.928C29.1376 5.73347 29.1599 5.54192 29.1748 5.35223Z" fill="#96BE0B"/>
<path opacity="0.28" d="M28.3971 2.13975C28.3874 2.12525 28.3759 2.11186 28.3659 2.09735C28.3759 2.11148 28.3837 2.12748 28.3934 2.14198L28.3971 2.13975Z" fill="url(#paint0_linear_747_5688)"/>
<path d="M24.7286 0.0260357C24.5616 0.01153 24.3939 0 24.2194 0H10.7444C7.47579 0 4.34704 2.65938 3.77164 5.92799L0.572951 24.0713C0.388054 24.939 0.438865 25.8404 0.720114 26.6819C1.00136 27.5233 1.50278 28.2741 2.17229 28.8563C3.09623 29.6148 4.25983 30.0199 5.45505 29.9992H18.9305C19.7824 29.9894 20.6182 29.7656 21.3611 29.3484C20.3653 28.6696 19.652 27.6503 19.3556 26.4822C18.9836 24.9944 18.226 24.8642 18.226 24.8642H6.36109C6.26187 24.8676 6.16322 24.8481 6.07274 24.8072C5.98227 24.7664 5.9024 24.7052 5.8393 24.6286C5.77621 24.552 5.73159 24.4618 5.70888 24.3652C5.68617 24.2685 5.68599 24.168 5.70834 24.0713L5.72098 23.9969L8.9074 5.9265C8.95114 5.70882 9.06694 5.51222 9.23611 5.36842C9.40529 5.22462 9.61796 5.142 9.83985 5.1339H21.0442L25.1951 0.0896367C25.0414 0.0632289 24.8863 0.0416572 24.7286 0.0260357Z" fill="#96BE0B"/>
<path d="M28.0263 1.66479C28.1289 1.78419 28.2297 1.90544 28.3201 2.0345C28.2291 1.90594 28.131 1.78251 28.0263 1.66479Z" fill="#96BE0B"/>
<path d="M29.1785 4.56742C29.1722 4.46217 29.1652 4.3569 29.1529 4.2535C29.1436 4.17316 29.1302 4.09432 29.1157 4.01509C29.1001 3.92174 29.083 3.82912 29.0629 3.73762C29.0443 3.6548 29.0236 3.57298 29.0008 3.49214C28.9779 3.41131 28.9531 3.3301 28.9264 3.24852C28.8977 3.16372 28.8683 3.07929 28.8356 2.99709C28.8081 2.92754 28.778 2.85985 28.7475 2.79215C28.7077 2.704 28.6675 2.61622 28.6229 2.53179C28.5953 2.47972 28.5645 2.42951 28.5351 2.37855C28.489 2.29859 28.4421 2.21936 28.3919 2.14274C28.3822 2.12824 28.3744 2.11224 28.3644 2.09811C28.3502 2.07654 28.3335 2.05683 28.3186 2.03525C28.2279 1.90619 28.1274 1.78494 28.0248 1.66554C27.8074 1.41812 27.5651 1.19377 27.3017 0.996048C27.0843 0.829418 26.8525 0.682303 26.6092 0.556414L26.6036 0.553441C26.4645 0.483144 26.3202 0.419542 26.1721 0.362263L26.1521 0.354451C26.0048 0.297916 25.8531 0.248323 25.6972 0.205674L25.6793 0.200839C25.5677 0.170339 25.4502 0.147282 25.3338 0.123478C25.2862 0.113807 25.2408 0.100415 25.1924 0.0918602C25.04 0.0650805 24.886 0.042393 24.7271 0.0282593C24.8849 0.0438808 25.04 0.0654525 25.1924 0.0918602L21.042 5.13761H23.3127C23.4116 5.13511 23.5098 5.15516 23.5999 5.19625C23.6899 5.23734 23.7694 5.29839 23.8323 5.37477C23.8953 5.45116 23.94 5.54086 23.9631 5.6371C23.9862 5.73334 23.9872 5.83358 23.9658 5.93022L21.7855 17.5556C23.7675 17.5928 25.3189 19.1449 26.3537 20.6963L29.1023 5.92649C29.1369 5.73234 29.1599 5.54042 29.1767 5.35073C29.1819 5.28639 29.1811 5.22353 29.1841 5.15993C29.1897 5.03607 29.1949 4.91258 29.1927 4.7917C29.1893 4.71694 29.183 4.64256 29.1785 4.56742Z" fill="#96BE0B"/>
<path d="M27.9675 1.59119C27.9887 1.61462 28.0047 1.64103 28.0263 1.66557C28.0054 1.64103 27.9887 1.61462 27.9675 1.59119Z" fill="#96BE0B"/>
<path d="M25.3174 21.6804C22.7328 17.9666 19.112 19.0025 19.112 19.0025L15.4945 22.3562C15.4945 22.3562 19.446 22.5961 20.3442 25.0082C21.8643 29.088 26.3072 29.9747 26.3072 29.9747L30.5361 24.9717C30.5361 24.9717 27.2351 24.4365 25.3174 21.6804Z" fill="#FF9900"/>
<path d="M24.9265 23.4914C24.5944 23.1407 24.1298 23.0823 23.2424 23.5911L22.4695 22.7728C22.5744 22.6898 22.7021 22.6408 22.8356 22.6323C22.9692 22.6238 23.1021 22.6562 23.2167 22.7252L23.6712 22.2993C23.3989 22.0762 22.87 21.9296 22.1834 22.4715L21.9276 22.2015L21.6453 22.4663L21.8967 22.7319C21.4184 23.2411 21.2878 23.8578 21.6709 24.2624C22.0183 24.6295 22.4475 24.6083 23.2531 24.1654L24.1086 25.0703C23.9886 25.1684 23.8414 25.2273 23.6868 25.2392C23.5323 25.251 23.3778 25.2152 23.2442 25.1365L22.7815 25.5698C23.1907 25.9046 23.7906 25.8748 24.3991 25.3775L24.7376 25.7353L25.0202 25.4705L24.6814 25.1127C25.2322 24.5332 25.3483 23.9374 24.9265 23.4914ZM22.0897 23.789C21.9242 23.6141 21.8911 23.3501 22.1779 23.0298L22.892 23.7849C22.4669 23.9954 22.2623 23.9712 22.0897 23.7886V23.789ZM24.3991 24.814L23.6061 23.976C24.0766 23.7428 24.3054 23.7789 24.4939 23.9779C24.7156 24.2133 24.6855 24.4919 24.3991 24.8137V24.814Z" fill="white"/>
<path opacity="0.28" fill-rule="evenodd" clip-rule="evenodd" d="M28.583 2.46046C28.5761 2.44849 28.569 2.43656 28.562 2.42463C28.553 2.40929 28.544 2.39396 28.5351 2.37856C28.489 2.29859 28.4421 2.21937 28.3919 2.14275C28.3876 2.13621 28.3836 2.12937 28.3796 2.12254L28.3796 2.12251C28.3748 2.11419 28.3699 2.10587 28.3644 2.09811C28.3566 2.08623 28.348 2.07491 28.3394 2.06353C28.3324 2.05426 28.3253 2.04494 28.3186 2.03526C28.2279 1.90619 28.1275 1.78494 28.0248 1.66555C27.8075 1.41812 27.5652 1.19377 27.3018 0.996052C27.0843 0.829422 26.8525 0.682307 26.6092 0.556418L26.6036 0.553445C26.4645 0.483148 26.3202 0.419546 26.1722 0.362267L26.1521 0.354455C26.0048 0.29792 25.8532 0.248327 25.6972 0.205678L25.6794 0.200843C25.5791 0.173433 25.474 0.152033 25.3692 0.1307L25.3338 0.123482C25.3132 0.119285 25.2929 0.114386 25.2727 0.109487L25.2727 0.109483C25.2465 0.103146 25.2203 0.096806 25.1931 0.0919792L25.1951 0.0896367C25.0414 0.0632289 24.8863 0.0416572 24.7286 0.0260357C24.5616 0.01153 24.3939 0 24.2194 0H10.7444C7.47579 0 4.34704 2.65938 3.77164 5.92799L0.572951 24.0713C0.388054 24.939 0.438865 25.8404 0.720114 26.6819C1.00136 27.5233 1.50278 28.2741 2.17229 28.8563C2.33202 28.9874 2.4989 29.108 2.67188 29.2176C3.58905 27.8948 4.68152 26.3685 5.92596 24.7156C5.89449 24.6895 5.86545 24.6604 5.8393 24.6286C5.77621 24.552 5.73159 24.4618 5.70888 24.3652C5.68617 24.2685 5.68599 24.168 5.70834 24.0713L5.72098 23.9969L8.9074 5.9265C8.95114 5.70882 9.06694 5.51222 9.23611 5.36842C9.40529 5.22462 9.61796 5.142 9.83985 5.1339H21.0442L23.2752 2.42271L21.042 5.13762H23.3127C23.4116 5.13511 23.5099 5.15516 23.5999 5.19625C23.6899 5.23735 23.7694 5.2984 23.8324 5.37478C23.8953 5.45116 23.94 5.54087 23.9632 5.6371C23.9676 5.65548 23.9712 5.67401 23.974 5.69263C24.6456 5.17082 25.3248 4.66514 26.0107 4.17837C26.848 3.57528 27.706 3.00231 28.583 2.46046Z" fill="url(#paint1_linear_747_5688)"/>
<defs>
<linearGradient id="paint0_linear_747_5688" x1="6.93589" y1="8.43317" x2="-16.4488" y2="-2.26822" gradientUnits="userSpaceOnUse">
<stop stop-color="white"/>
<stop offset="1" stop-color="#22798C"/>
</linearGradient>
<linearGradient id="paint1_linear_747_5688" x1="22.4597" y1="20.5103" x2="4.54764" y2="2.69029" gradientUnits="userSpaceOnUse">
<stop stop-color="white"/>
<stop offset="1" stop-color="#96BE0B"/>
</linearGradient>
</defs>
</svg>
