<svg width="30" height="30" viewBox="0 0 30 30" fill="none" xmlns="http://www.w3.org/2000/svg">
<path d="M28.6132 4.55411C28.6069 4.44916 28.5999 4.34421 28.5876 4.24148C28.578 4.161 28.565 4.08238 28.5506 4.00339C28.5361 3.9244 28.522 3.8443 28.5053 3.76604L22.9173 8.74478L20.9662 19.8104L25.3123 24.1561C25.323 24.1034 25.3386 24.0518 25.3493 23.9988L28.5387 5.90848C28.5728 5.71489 28.5958 5.52353 28.6129 5.33439C28.6181 5.27024 28.6173 5.20756 28.6203 5.14415C28.6259 5.02065 28.631 4.8979 28.6288 4.777C28.624 4.70245 28.6177 4.62828 28.6132 4.55411Z" fill="#96BE0B"/>
<path d="M25.6167 0.359383L25.5975 0.351593C25.4491 0.295594 25.2989 0.245531 25.1432 0.203253L25.1261 0.198432C24.8154 0.112408 24.4975 0.0546885 24.1763 0.0259827C24.0098 0.0115193 23.8426 2.28882e-05 23.669 2.28882e-05H10.234C6.97495 2.28882e-05 3.85531 2.65164 3.28123 5.91072L0.0918753 24.0011C-0.482951 27.2601 1.70102 29.9118 4.9601 29.9118H18.3958C18.9871 29.9094 19.5752 29.8244 20.1429 29.6592L15.5176 24.7913H5.86165C5.76276 24.7947 5.66443 24.7752 5.57425 24.7345C5.48408 24.6938 5.40446 24.6329 5.34156 24.5565C5.27866 24.4801 5.23416 24.3903 5.21148 24.294C5.18881 24.1977 5.18857 24.0975 5.21079 24.0011L8.40015 5.91072C8.44383 5.6937 8.5593 5.49771 8.72797 5.35434C8.89664 5.21097 9.10867 5.12857 9.32988 5.12043H20.7778L26.0169 0.53628C25.8875 0.471009 25.754 0.412786 25.6167 0.359383Z" fill="#96BE0B"/>
<path d="M26.0172 0.535522L20.7782 5.11967H20.8523L26.0291 0.5422C26.0347 0.544796 26.041 0.54702 26.0466 0.549986L26.0302 0.541085L26.0172 0.535522Z" fill="#96BE0B"/>
<path d="M20.0213 15.4714H18.022L18.0835 15.1224H20.0813L20.0213 15.4714Z" fill="#FF9900" stroke="#FF9900" stroke-width="0.5" stroke-linecap="round" stroke-linejoin="round"/>
<path d="M15.7865 8.81599H15.4375L15.7898 6.81819H16.1388L15.7865 8.81599Z" fill="#FF9900" stroke="#FF9900" stroke-width="0.5" stroke-linecap="round" stroke-linejoin="round"/>
<path d="M28.5754 30H22.6536L14.4206 21.302L17.7449 18.6533L28.5754 30Z" fill="#FF9900"/>
<path d="M13.8765 13.1209L15.2917 14.6447L29.095 0.496216L13.8765 13.1209Z" fill="#FF9900"/>
<path opacity="0.28" fill-rule="evenodd" clip-rule="evenodd" d="M5.42831 24.6435C5.39678 24.6174 5.3677 24.5883 5.34152 24.5565C5.27862 24.4801 5.23411 24.3903 5.21144 24.294C5.18876 24.1977 5.18853 24.0975 5.21075 24.001L8.40011 5.9107C8.44378 5.69368 8.55925 5.49769 8.72792 5.35432C8.89659 5.21095 9.10862 5.12855 9.32984 5.12041H20.7778L26.0169 0.536257C25.8874 0.470986 25.7539 0.412763 25.6167 0.35936L25.5974 0.35157C25.4491 0.295571 25.2989 0.245508 25.1431 0.20323L25.1261 0.198409C24.8153 0.112385 24.4974 0.0546656 24.1763 0.0259598C24.0098 0.0114964 23.8425 0 23.669 0H10.234C6.97491 0 3.85527 2.65162 3.28118 5.9107L0.0918295 24.001C-0.295984 26.1998 0.571921 28.1221 2.17851 29.1401C3.09405 27.8194 4.18511 26.2948 5.42831 24.6435Z" fill="url(#paint0_linear_1057_5267)"/>
<defs>
<linearGradient id="paint0_linear_1057_5267" x1="19.2712" y1="20.4499" x2="1.56908" y2="4.96086" gradientUnits="userSpaceOnUse">
<stop stop-color="white"/>
<stop offset="1" stop-color="#96BE0B"/>
</linearGradient>
</defs>
</svg>
