<svg width="201" height="61" viewBox="0 0 201 61" fill="none" xmlns="http://www.w3.org/2000/svg">
<path d="M71.4093 38.9889C72.9724 37.3289 74.1164 34.6009 74.6982 31.9916L77.7649 32.9404C77.0476 35.748 76.1155 38.752 74.3018 40.5707L71.4093 38.9889ZM73.3138 27.1298C75.2844 27.0902 77.6938 27.0115 80.336 26.932L80.5022 25.0346H74.4404L74.7515 21.4764H80.8151L80.9671 19.7364H74.8258L76.1298 4.83277H92.785L91.4809 19.7364H85.1023L84.9498 21.4764H91.2503L90.9392 25.0346H84.6387L84.4867 26.7738C86.7774 26.6951 89.1503 26.5755 91.4401 26.4969L91.0445 30.1342C84.6307 30.5293 77.8667 30.8853 73.0849 31.0822L73.3138 27.1298ZM81.0093 31.8733C81.281 34.169 81.3553 36.4837 81.2316 38.792L78.1684 39.1476C78.3866 36.8456 78.365 34.5273 78.104 32.2298L81.0093 31.8733ZM78.6093 16.5746H81.916L82.6671 7.99678H79.3604L79.2151 9.65723L81.1133 9.1039C81.5879 10.9653 81.8436 12.8757 81.8751 14.7964L79.7333 15.4288C79.762 13.5824 79.5798 11.7388 79.1902 9.93368L78.6093 16.5746ZM84.9005 31.5178C85.4874 33.6633 85.8622 35.8613 86.0196 38.08L83.0938 38.6729C82.9804 36.442 82.6328 34.2293 82.0565 32.0711L84.9005 31.5178ZM88.136 16.575L88.6249 10.9612C87.8494 12.6217 87.0694 14.3208 86.4583 15.4679L84.8965 14.875L84.7471 16.575H88.136ZM88.8872 7.99723H85.5005L84.9294 14.5204C85.7087 12.7481 86.3681 10.9254 86.9032 9.06479L88.7347 9.73723L88.8872 7.99723ZM88.7903 30.6889C89.9143 32.6003 90.7552 34.6646 91.2867 36.8174L88.2263 38.0427C87.7392 35.8397 86.9586 33.7121 85.9054 31.7169L88.7903 30.6889ZM102.899 16.1408L102.366 22.2297H108.665L107.077 40.3756H102.589L102.709 38.9916H95.4276L95.2943 40.5338H91.0414L92.6414 22.2297H97.7996L99.4223 3.68921H103.989L103.278 11.7932H110.878L110.497 16.1417L102.899 16.1408ZM103.803 26.4986H96.5196L95.7974 34.7609H103.081L103.803 26.4986Z" fill="white"/>
<path d="M116.299 38.9889C117.862 37.3289 119.006 34.6009 119.588 31.9916L122.654 32.9404C121.936 35.748 121.005 38.752 119.191 40.5707L116.299 38.9889ZM118.203 27.1298C120.175 27.0902 122.583 27.0115 125.228 26.932L125.394 25.0346H119.33L119.641 21.4764H125.706L125.858 19.7364H119.715L121.019 4.83277H137.674L136.37 19.7364H129.992L129.839 21.4764H136.139L135.828 25.0346H129.528L129.376 26.7738C131.667 26.6951 134.038 26.5755 136.33 26.4969L135.934 30.1342C129.52 30.5293 122.755 30.8853 117.974 31.0822L118.203 27.1298ZM125.899 31.8733C126.17 34.169 126.245 36.4837 126.121 38.792L123.058 39.1476C123.276 36.8456 123.254 34.5273 122.994 32.2298L125.899 31.8733ZM123.496 16.575H126.803L127.554 7.99723H124.247L124.102 9.65768L126 9.10434C126.475 10.9657 126.731 12.8761 126.762 14.7968L124.621 15.4293C124.649 13.5829 124.467 11.7393 124.078 9.93412L123.496 16.575ZM129.788 31.5182C130.374 33.6638 130.749 35.8617 130.907 38.0805L127.981 38.6734C127.868 36.4424 127.52 34.2296 126.943 32.0716L129.788 31.5182ZM133.025 16.575L133.517 10.9612C132.741 12.6217 131.961 14.3208 131.351 15.4679L129.788 14.875L129.639 16.575H133.025ZM133.776 7.99723H130.39L129.818 14.5204C130.598 12.748 131.257 10.9254 131.792 9.06479L133.624 9.73723L133.776 7.99723ZM133.68 30.6889C134.803 32.6004 135.644 34.6647 136.176 36.8174L133.116 38.0427C132.629 35.8396 131.848 33.712 130.794 31.7169L133.68 30.6889ZM147.788 16.1408L147.255 22.2297H153.554L151.966 40.3756H147.477L147.599 38.9916H140.317L140.183 40.5338H135.93L137.53 22.2297H142.688L144.311 3.68921H148.878L148.167 11.7932H155.767L155.386 16.1417L147.788 16.1408ZM148.693 26.4986H141.409L140.687 34.7609H147.97L148.693 26.4986Z" fill="white"/>
<path d="M178.345 5.34744C177.016 8.09061 175.534 10.7566 173.905 13.3328L171.529 40.4916H166.725L168.459 20.6857C167.454 21.8329 166.414 22.9004 165.427 23.8493C164.781 22.1566 164.002 20.5174 163.099 18.9471C167.155 15.3497 171.236 9.65813 173.831 3.84521L178.345 5.34744ZM200.209 16.8906H195.879L194.309 34.8391C194.042 37.8831 193.225 39.1058 191.275 39.82C189.279 40.5712 186.32 40.6507 181.991 40.6112C181.746 38.9972 181.274 37.426 180.588 35.9445C183.61 36.0627 187.074 36.0627 187.984 36.0231C188.969 36.0231 189.35 35.7067 189.426 34.8374L190.996 16.8888H175.995L176.411 12.1457H191.412L192.117 4.08033H197L196.294 12.1457H200.625L200.209 16.8906ZM181.598 31.1622C180.824 28.7507 178.857 24.6791 177.349 21.6746L181.692 19.7368C183.211 22.6226 185.313 26.4973 186.287 28.8693L181.598 31.1622Z" fill="white"/>
<path d="M111.54 49.2557C110.582 49.2301 109.651 49.5719 108.937 50.2109C108.21 50.9183 107.778 51.8735 107.725 52.886C107.611 53.7534 107.812 54.6328 108.29 55.3651C108.332 55.4233 108.385 55.47 108.431 55.5247C108.462 55.5615 108.494 55.5975 108.527 55.6331C108.622 55.7351 108.725 55.8296 108.835 55.9158C108.873 55.946 108.912 55.9749 108.952 56.0047C109.07 56.0881 109.194 56.1624 109.324 56.2269C109.364 56.2469 109.405 56.2664 109.446 56.2847C109.591 56.349 109.741 56.4025 109.893 56.4447C109.93 56.4549 109.966 56.4647 110.003 56.4736C110.086 56.4936 110.162 56.5229 110.248 56.5376C110.463 57.0816 110.842 57.5454 111.332 57.8647C111.931 58.2283 112.624 58.4096 113.325 58.3865C113.792 58.3937 114.257 58.3125 114.695 58.1473L114.703 58.1438L114.525 57.0976L114.523 57.0851L114.511 57.0887C114.219 57.185 113.913 57.2361 113.605 57.2402C112.603 57.2402 112.01 56.8536 111.783 56.4869C112.568 56.3222 113.275 55.8998 113.792 55.2869C114.344 54.6038 114.672 53.7666 114.73 52.89C114.799 52.4153 114.768 51.9312 114.638 51.4694C114.508 51.0076 114.282 50.5785 113.974 50.21C113.659 49.888 113.279 49.6364 112.859 49.4719C112.44 49.3075 111.99 49.2338 111.54 49.2557ZM109.692 54.894C109.474 54.6125 109.316 54.289 109.229 53.9437C109.142 53.5985 109.127 53.239 109.185 52.8878C109.314 51.4069 110.176 50.4878 111.433 50.4878C111.683 50.4775 111.932 50.5204 112.164 50.6136C112.395 50.7068 112.605 50.8481 112.778 51.0282C112.985 51.2865 113.136 51.5853 113.22 51.9053C113.305 52.2253 113.322 52.5595 113.27 52.8864C113.237 53.5716 112.981 54.2273 112.541 54.7531C112.347 54.9695 112.11 55.1419 111.844 55.2586C111.578 55.3752 111.29 55.4336 111 55.4296C110.759 55.4387 110.52 55.3971 110.296 55.3074C110.073 55.2178 109.871 55.082 109.704 54.9091L109.692 54.894ZM112.865 51.114L112.873 51.1251L112.865 51.114ZM109.585 54.7793C109.572 54.7611 109.559 54.7415 109.546 54.7229C109.558 54.7415 109.572 54.7611 109.586 54.7793H109.585ZM109.363 54.3949L109.361 54.3869L109.363 54.3949ZM113.31 57.2349L113.346 57.238L113.31 57.2349ZM112.752 57.1344C112.773 57.1407 112.793 57.146 112.815 57.1513L112.752 57.1344Z" fill="white"/>
<path d="M120.527 54.7197C120.406 54.9138 120.239 55.0753 120.042 55.1902C119.844 55.3052 119.621 55.3701 119.392 55.3793C119.306 55.3876 119.218 55.3773 119.136 55.3488C119.054 55.3203 118.979 55.2745 118.916 55.2144C118.83 55.0761 118.771 54.9222 118.744 54.7614C118.717 54.6005 118.722 54.4359 118.759 54.277L119.035 51.1241V51.1121H117.613L117.319 54.457C117.269 54.8773 117.308 55.3034 117.435 55.7073L117.441 55.725C117.476 55.8248 117.522 55.9204 117.578 56.0104L117.597 56.0379C117.628 56.0925 117.663 56.1448 117.702 56.1944C117.843 56.3354 118.012 56.4446 118.199 56.5148C118.386 56.585 118.585 56.6146 118.784 56.6015C119.13 56.5927 119.469 56.508 119.778 56.3534C120.087 56.1987 120.358 55.978 120.573 55.7068H120.596L120.633 56.4584V56.4686H121.797L122.265 51.1223V51.1104H120.843L120.527 54.7197Z" fill="white"/>
<path d="M126.381 48.7313C126.158 48.716 125.937 48.7881 125.766 48.9322C125.595 49.0763 125.487 49.2812 125.464 49.5037C125.454 49.5991 125.463 49.6957 125.493 49.7871C125.522 49.8785 125.57 49.9628 125.634 50.0344C125.713 50.1153 125.809 50.1787 125.915 50.2204C126.02 50.2622 126.133 50.2815 126.246 50.277C126.467 50.286 126.683 50.2116 126.851 50.0686C127.019 49.9257 127.127 49.7246 127.154 49.5055C127.166 49.4091 127.157 49.3114 127.128 49.2187C127.099 49.1261 127.05 49.0407 126.986 48.9681C126.907 48.8887 126.813 48.8266 126.708 48.7858C126.604 48.745 126.492 48.7264 126.381 48.7313Z" fill="white"/>
<path d="M124.989 56.4558V56.4678H126.403L126.871 51.1233V51.1113H125.458L124.989 56.4558Z" fill="white"/>
<path d="M132.484 50.9796C132.399 50.9796 132.318 50.9947 132.234 51.0018L132.19 51.0054C132.023 51.0214 131.857 51.0511 131.695 51.0943L131.67 51.1014C131.507 51.1469 131.348 51.2064 131.194 51.2792L131.169 51.2911C131.019 51.3639 130.876 51.4494 130.741 51.5467C130.728 51.5556 130.716 51.5645 130.703 51.5738C130.637 51.6231 130.566 51.6649 130.503 51.72C129.911 52.2561 129.55 53.0024 129.5 53.8C129.446 54.1702 129.47 54.5476 129.572 54.9075C129.673 55.2675 129.85 55.6019 130.09 55.8889C130.131 55.9334 130.182 55.9672 130.227 56.0085C130.243 56.0232 130.26 56.0369 130.276 56.0507C130.384 56.1437 130.501 56.2253 130.626 56.2943L130.649 56.3067C130.788 56.3808 130.933 56.4404 131.084 56.4845L131.095 56.4881C131.255 56.5335 131.418 56.564 131.584 56.5792L131.611 56.5814C131.697 56.5889 131.778 56.6041 131.868 56.6041C132.527 56.5997 133.164 56.3704 133.674 55.9543L133.682 55.9485L133.205 55.0152L133.199 55.0027L133.188 55.0112C132.888 55.2656 132.514 55.4154 132.122 55.4378C131.968 55.4419 131.815 55.413 131.673 55.3532C131.531 55.2935 131.403 55.2041 131.299 55.0912C131.156 54.9117 131.051 54.7046 130.991 54.4828C130.932 54.261 130.919 54.0294 130.953 53.8023C131.042 52.8112 131.642 52.1454 132.45 52.1454C132.597 52.1484 132.742 52.181 132.876 52.241C133.01 52.3011 133.131 52.3875 133.231 52.4952L133.24 52.5032L133.996 51.5889L134.002 51.5805L133.994 51.5734C133.587 51.1872 133.045 50.9743 132.484 50.9796Z" fill="white"/>
<path d="M138.013 53.4174H137.993L138.393 48.8587V48.8467H137.007L136.341 56.4569V56.4689H137.726L137.844 55.1294L138.679 54.2663L139.774 56.4627L139.778 56.4689H141.318L139.569 53.3067L141.603 51.1311L141.62 51.1125H140.065L138.013 53.4174Z" fill="white"/>
<path d="M149.329 50.5633C149.264 50.3886 149.168 50.227 149.045 50.0864C148.627 49.6296 147.899 49.3984 146.883 49.3984H144.557L143.939 56.4567V56.4687H145.372L145.591 53.9629H146.525C147.145 53.9768 147.757 53.8251 148.299 53.5233C148.37 53.4816 148.446 53.446 148.51 53.3989C148.564 53.3593 148.606 53.31 148.655 53.2656C148.681 53.2433 148.706 53.2207 148.73 53.1976C148.83 53.1042 148.92 53.0019 149.001 52.8918L149.036 52.8416C149.12 52.7182 149.193 52.5867 149.252 52.4491C149.258 52.4336 149.264 52.4171 149.271 52.4011C149.331 52.2512 149.376 52.096 149.407 51.9376C149.411 51.9162 149.415 51.8931 149.419 51.8731C149.434 51.7882 149.457 51.7087 149.463 51.6193C149.501 51.2667 149.457 50.9101 149.334 50.5776L149.329 50.5633ZM145.89 50.5358H146.68C146.891 50.5081 147.104 50.5233 147.309 50.5807C147.513 50.6381 147.703 50.7364 147.869 50.8696C147.952 50.9734 148.012 51.0939 148.046 51.223C148.079 51.3521 148.084 51.4868 148.06 51.618C147.989 52.4318 147.487 52.8273 146.525 52.8273H145.689L145.89 50.5358Z" fill="white"/>
<path d="M156.02 51.5869C155.998 51.5584 155.982 51.5228 155.958 51.498C155.772 51.3163 155.55 51.1763 155.305 51.0872C155.061 50.9981 154.801 50.9619 154.541 50.9811C153.726 51.0071 152.933 51.2507 152.244 51.6868L152.235 51.6917L152.664 52.6251L152.669 52.6357L152.679 52.63C153.132 52.3409 153.65 52.1678 154.186 52.126C154.299 52.117 154.413 52.1315 154.52 52.1686C154.627 52.2056 154.725 52.2643 154.808 52.3411C154.886 52.4367 154.943 52.5471 154.976 52.6654C155.009 52.7838 155.018 52.9076 155.002 53.0295C154.169 53.0721 153.354 53.2913 152.612 53.6726C152.552 53.7138 152.493 53.7583 152.438 53.806L152.427 53.8135C152.326 53.8901 152.234 53.9772 152.151 54.0735C152.139 54.0873 152.127 54.1015 152.116 54.1153C152.047 54.2028 151.987 54.2976 151.939 54.398C151.93 54.4158 151.921 54.4335 151.913 54.4518C151.865 54.5609 151.829 54.6749 151.805 54.7918L151.8 54.8162C151.783 54.8805 151.771 54.9456 151.761 55.0113C151.736 55.2166 151.754 55.4249 151.814 55.6229C151.874 55.8208 151.975 56.004 152.11 56.1606C152.252 56.3089 152.424 56.4252 152.615 56.5018C152.806 56.5784 153.011 56.6136 153.216 56.6051C153.839 56.5693 154.431 56.3206 154.892 55.9006H154.907L154.961 56.4624V56.4722H156.124L156.398 53.3473C156.5 52.7382 156.367 52.113 156.027 51.5975L156.02 51.5869ZM153.766 55.4851C153.671 55.4932 153.575 55.4817 153.484 55.4511C153.394 55.4205 153.311 55.3715 153.24 55.3073C153.193 55.2512 153.158 55.1856 153.138 55.1151C153.118 55.0445 153.114 54.9705 153.125 54.898C153.154 54.5722 153.372 54.1157 154.923 53.91L154.831 54.9691C154.558 55.2752 154.175 55.4608 153.766 55.4851Z" fill="white"/>
<path d="M162.967 51.1121L162.014 53.5965C161.931 53.8427 161.843 54.0979 161.759 54.3441C161.675 54.5903 161.587 54.8472 161.504 55.0939H161.472C161.44 54.9374 161.409 54.7787 161.379 54.6254C161.308 54.2659 161.242 53.9263 161.159 53.5974L160.527 51.1205L160.524 51.1121H159.091L160.712 56.3619L160.592 56.673C160.525 56.903 160.385 57.1052 160.194 57.2498C160.003 57.3945 159.771 57.4738 159.531 57.4761C159.408 57.4705 159.285 57.4481 159.168 57.4094L159.157 57.4063L158.801 58.5032L158.812 58.5068C159.047 58.5835 159.293 58.6194 159.54 58.613C160.784 58.613 161.407 57.8179 161.952 56.6245L164.33 51.1285L164.337 51.1129L162.967 51.1121Z" fill="white"/>
<path d="M93.5779 53.665H74.54V54.1095H93.5779V53.665Z" fill="white"/>
<path d="M197.495 53.665H178.457V54.1095H197.495V53.665Z" fill="white"/>
<path d="M57.7061 9.74924C57.6937 9.53991 57.6795 9.33058 57.6555 9.12702C57.6359 8.96702 57.611 8.81013 57.5839 8.65324C57.5528 8.46702 57.519 8.28213 57.4786 8.10035C57.4415 7.9359 57.4005 7.77294 57.3555 7.61146C57.3104 7.44998 57.2609 7.2885 57.207 7.12701C57.1506 6.95812 57.0924 6.79057 57.0292 6.62657C56.9746 6.48879 56.9141 6.35412 56.8515 6.21945C56.7723 6.04434 56.6928 5.86923 56.6035 5.70034C56.5488 5.59634 56.4875 5.49634 56.4288 5.395C56.3377 5.23634 56.251 5.07411 56.1519 4.92167C56.1324 4.89233 56.1075 4.86611 56.0897 4.83723C56.0612 4.79278 56.0279 4.755 55.9986 4.71278C55.931 4.61633 55.859 4.52433 55.7883 4.431V4.42878C55.8599 4.523 55.9328 4.61589 56.0003 4.71278C55.9301 4.61144 55.8546 4.51456 55.7781 4.41678C55.7483 4.37633 55.7226 4.33278 55.6919 4.29322C54.7502 3.12621 53.5523 2.19189 52.1911 1.56278C50.8299 0.933664 49.342 0.62668 47.843 0.66565H21.0397C14.5384 0.66565 8.31613 5.95456 7.16991 12.4568L0.806322 48.5445C0.762766 48.7925 0.727211 49.0385 0.699655 49.2823C0.6961 49.3134 0.69521 49.3441 0.691654 49.3756C0.669432 49.5859 0.650766 49.7957 0.639655 50.0032C0.635655 50.0828 0.636988 50.161 0.634766 50.2401C0.629877 50.397 0.623655 50.5543 0.625433 50.709C0.625433 50.8192 0.634321 50.9272 0.638765 51.0365C0.643654 51.1574 0.645877 51.2797 0.654766 51.3992C0.664099 51.529 0.680544 51.6561 0.694766 51.7841C0.705433 51.8801 0.712988 51.9774 0.726322 52.0725C0.746766 52.217 0.773433 52.3583 0.799211 52.5001C0.813433 52.5757 0.824099 52.653 0.839655 52.7281C0.871655 52.8841 0.910767 53.0392 0.949878 53.1894C0.964545 53.2477 0.976545 53.3068 0.994323 53.3641C1.03877 53.5281 1.09121 53.6886 1.1441 53.8486C1.15877 53.893 1.17077 53.9374 1.18632 53.9819C1.24499 54.1508 1.31032 54.3166 1.37744 54.481C1.39077 54.5126 1.40188 54.5454 1.41566 54.577C1.48855 54.749 1.56766 54.9174 1.64988 55.0837C1.66099 55.1054 1.67033 55.1281 1.68144 55.1499C1.7681 55.3223 1.85922 55.4903 1.95833 55.6561C1.96677 55.6703 1.97433 55.6855 1.98277 55.7006C2.08322 55.8698 2.18885 56.0351 2.29966 56.1966C2.30633 56.2068 2.31255 56.217 2.31966 56.2268C2.43255 56.3918 2.55107 56.5521 2.67522 56.7077C2.68055 56.7143 2.685 56.7215 2.69033 56.7281C2.81433 56.8846 2.94411 57.0366 3.07789 57.1846C3.08367 57.1908 3.08855 57.1975 3.09433 57.2037C3.22767 57.3498 3.36574 57.4918 3.50856 57.6299L3.53078 57.6517C3.67152 57.7868 3.81656 57.917 3.96589 58.0424L3.99034 58.0641L3.99834 58.0704C4.03923 58.1046 4.07789 58.1419 4.12012 58.1757L4.14056 58.1908L4.14589 58.1832C5.95992 59.6129 8.21121 60.3737 10.5206 60.3375H37.3238C39.2492 60.3375 40.4065 59.8646 42.1581 59.0428C40.1779 57.6925 38.7595 55.665 38.17 53.3419C37.4305 50.3823 35.9234 50.1232 35.9234 50.1232H12.3233C12.0029 50.1352 11.6899 50.0251 11.4476 49.8151C11.2054 49.6051 11.0519 49.3109 11.0184 48.9921C11.01 48.9262 11.0057 48.8598 11.0055 48.7934C11.0056 48.7217 11.0109 48.6501 11.0215 48.5792C11.0215 48.5685 11.0215 48.5588 11.0241 48.5481L17.3842 12.4555C17.4711 12.0224 17.7014 11.6313 18.0379 11.3452C18.3744 11.0591 18.7975 10.8947 19.2389 10.8786H46.0416C46.1447 10.8795 46.2473 10.8914 46.3479 10.9141C46.379 10.9213 46.4087 10.9301 46.4367 10.939C46.5021 10.9579 46.5658 10.9818 46.6274 11.0106C46.6554 11.0239 46.6843 11.0359 46.711 11.0506C46.8414 11.1163 46.9545 11.2117 47.0412 11.3293C47.0763 11.3652 47.1091 11.4034 47.1394 11.4435C47.1724 11.4967 47.2011 11.5524 47.2252 11.6101C47.3514 11.8725 47.3911 12.1682 47.3385 12.4546L42.999 35.5854C46.9412 35.6596 50.0279 38.7463 52.0857 41.8325L57.5524 12.4546C57.6208 12.0679 57.6666 11.6861 57.6964 11.3093C57.7066 11.1808 57.7052 11.0564 57.7115 10.9297C57.7226 10.6835 57.7328 10.4381 57.7284 10.1972C57.7275 10.047 57.715 9.89858 57.7061 9.74924Z" fill="white"/>
<path d="M46.6221 48.3534L48.1994 50.021C48.7687 49.381 48.8287 48.8232 48.3879 48.3574C48.0132 47.9614 47.5581 47.8899 46.6221 48.3534Z" fill="white"/>
<path d="M43.6056 47.9819C43.9491 48.345 44.3563 48.3935 45.202 47.9735L43.7798 46.4717C43.2109 47.109 43.2763 47.6339 43.6056 47.9819Z" fill="white"/>
<path d="M50.0256 43.789C44.8851 36.4014 37.6829 38.4592 37.6829 38.4592L30.4873 45.1299C30.4873 45.1299 38.3469 45.6077 40.134 50.405C43.1563 58.5202 51.995 60.2837 51.995 60.2837L60.4061 50.3326C60.4061 50.3326 53.8403 49.2708 50.0256 43.789ZM49.4389 51.3313L48.8767 51.8579L48.2038 51.1468C46.9936 52.1357 45.7989 52.1957 44.9865 51.5295L45.9069 50.6673C46.1726 50.8236 46.4799 50.8946 46.7872 50.8708C47.0946 50.8469 47.3872 50.7294 47.6256 50.5339L45.9225 48.7344C44.3225 49.6148 43.4665 49.657 42.7758 48.9273C42.0136 48.1219 42.2736 46.8957 43.2247 45.8832L42.7247 45.3543L43.2865 44.8277L43.7949 45.3655C45.1585 44.2872 46.21 44.577 46.7518 45.0223L45.8474 45.8699C45.6197 45.7323 45.3553 45.6676 45.0898 45.6843C44.8243 45.7011 44.5702 45.7985 44.3616 45.9637L45.8985 47.5881C47.6638 46.5797 48.5883 46.6921 49.2483 47.3899C50.0874 48.2788 49.8545 49.4619 48.7652 50.6179L49.4389 51.3313Z" fill="white"/>
</svg>
