<svg width="41" height="36" viewBox="0 0 41 36" fill="none" xmlns="http://www.w3.org/2000/svg">
<g clip-path="url(#clip0_3978_60575)">
<path d="M16.7278 20.2222V20.8643L17.1818 21.3182L27.643 31.7795C25.2719 33.3279 22.4368 34.2278 19.3889 34.2278C11.0431 34.2278 4.27223 27.463 4.27223 19.1111C4.27223 11.6518 9.68262 5.45079 16.7278 4.21753V20.2222ZM23.1611 15.3389V1.77898C30.5466 2.00639 36.4936 7.95343 36.721 15.3389H23.1611ZM26.4643 21.7722H38.7201C38.1664 24.8854 36.6561 27.6694 34.5065 29.8144L26.4643 21.7722Z" stroke="#96BE0B" stroke-width="3.1"/>
<path d="M26.4642 21.7722H38.72C38.1663 24.8854 36.656 27.6694 34.5064 29.8144L26.4642 21.7722Z" stroke="#FF9900" stroke-width="3.1"/>
</g>
<defs>
<clipPath id="clip0_3978_60575">
<rect width="40" height="35.5556" fill="white" transform="translate(0.5 0.222229)"/>
</clipPath>
</defs>
</svg>
