<svg width="31" height="30" viewBox="0 0 31 30" fill="none" xmlns="http://www.w3.org/2000/svg">
<g clip-path="url(#clip0_747_5678)">
<path d="M16.3333 2.5302C16.3333 2.06015 16.651 1.66666 17.1667 1.66666C23.6094 1.66666 28.8333 6.89061 28.8333 13.3333C28.8333 13.8021 28.4375 14.1667 27.9687 14.1667H16.3333V2.5302ZM2.16666 15.8333C2.16666 9.51561 6.85936 4.28853 12.901 3.45051C13.4271 3.38489 13.8333 3.76874 13.8333 4.25051V16.6667L21.9844 24.8177C22.3333 25.1667 22.3073 25.7396 21.9062 26.026C19.8646 27.4792 17.3646 28.3333 14.6667 28.3333C7.76561 28.3333 2.16666 22.7396 2.16666 15.8333ZM29.5833 16.6667C30.0625 16.6667 30.4479 17.0729 30.3854 17.5521C29.9844 20.4635 28.5781 23.0521 26.5364 24.9635C26.2239 25.2135 25.7344 25.2344 25.4323 24.9323L17.1667 16.6667H29.5833Z" fill="#96BE0B"/>
<path d="M29.5833 16.6667C30.0625 16.6667 30.4479 17.0729 30.3854 17.5521C29.9844 20.4635 28.5781 23.0521 26.5364 24.9635C26.2239 25.2135 25.7344 25.2344 25.4323 24.9323L17.1667 16.6667H29.5833Z" fill="#FF9900"/>
</g>
<defs>
<clipPath id="clip0_747_5678">
<rect width="30" height="26.6667" fill="white" transform="translate(0.499985 1.66666)"/>
</clipPath>
</defs>
</svg>
