<svg width="121" height="120" viewBox="0 0 121 120" fill="none" xmlns="http://www.w3.org/2000/svg">
<path d="M18.0022 54.9998V69.9998C18.0022 88.8548 18.0022 98.2848 23.8622 104.14C29.7172 110 39.1472 110 58.0022 110H63.0022C81.8572 110 91.2872 110 97.1422 104.14C103.002 98.2848 103.002 88.8548 103.002 69.9998V54.9998" stroke="#E0E0E0" stroke-width="7.5"/>
<path d="M48.0015 9.99966H73.0015L76.2615 42.5847C76.4763 44.7835 76.2286 47.0029 75.5343 49.1003C74.84 51.1977 73.7145 53.1265 72.2302 54.7629C70.7458 56.3993 68.9355 57.7069 66.9156 58.6018C64.8956 59.4967 62.7108 59.959 60.5015 59.959C58.2922 59.959 56.1074 59.4967 54.0874 58.6018C52.0675 57.7069 50.2572 56.3993 48.7728 54.7629C47.2885 53.1265 46.163 51.1977 45.4687 49.1003C44.7745 47.0029 44.5267 44.7835 44.7415 42.5847L48.0015 9.99966Z" stroke="#E0E0E0" stroke-width="7.5"/>
<path d="M17.1501 26.7548C18.0401 22.3048 18.4851 20.0798 19.3901 18.2748C20.3331 16.395 21.6608 14.7345 23.2871 13.401C24.9134 12.0676 26.802 11.0911 28.8301 10.5348C30.7801 9.99979 33.0501 9.99979 37.5901 9.99979H48.0001L44.3751 46.2248C44.1838 48.2979 43.5714 50.3102 42.5754 52.1385C41.5794 53.9667 40.2207 55.5725 38.5826 56.8574C36.9444 58.1423 35.0613 59.0794 33.0484 59.6112C31.0355 60.1431 28.9353 60.2586 26.8762 59.9505C24.8172 59.6425 22.8427 58.9175 21.0736 57.8199C19.3044 56.7222 17.778 55.2751 16.5876 53.567C15.3971 51.859 14.5679 49.9259 14.1505 47.8863C13.7331 45.8466 13.7364 43.7432 14.1601 41.7048L17.1501 26.7548ZM103.85 26.7548C102.96 22.3048 102.515 20.0798 101.61 18.2748C100.667 16.395 99.3394 14.7345 97.7131 13.401C96.0868 12.0676 94.1983 11.0911 92.1701 10.5348C90.2201 9.99979 87.9501 9.99979 83.4101 9.99979H73.0001L76.6251 46.2248C76.8164 48.2979 77.4288 50.3102 78.4248 52.1385C79.4209 53.9667 80.7795 55.5725 82.4177 56.8574C84.0558 58.1423 85.939 59.0794 87.9518 59.6112C89.9647 60.1431 92.0649 60.2586 94.124 59.9505C96.183 59.6425 98.1576 58.9175 99.9267 57.8199C101.696 56.7222 103.222 55.2751 104.413 53.567C105.603 51.859 106.432 49.9259 106.85 47.8863C107.267 45.8466 107.264 43.7432 106.84 41.7048L103.85 26.7548Z" stroke="#E0E0E0" stroke-width="7.5"/>
<path d="M48.0022 107.499V92.4995C48.0022 87.8245 48.0022 85.4895 49.0072 83.7495C49.6654 82.6094 50.6121 81.6627 51.7522 81.0045C53.4922 79.9995 55.8272 79.9995 60.5022 79.9995C65.1772 79.9995 67.5122 79.9995 69.2522 81.0045C70.3922 81.6627 71.339 82.6094 71.9972 83.7495C73.0022 85.4895 73.0022 87.8245 73.0022 92.4995V107.499" stroke="#E0E0E0" stroke-width="7.5" stroke-linecap="round"/>
<path d="M8.4269 7.42255C6.2302 9.61925 6.2302 13.1808 8.4269 15.3775L104.947 111.898C107.144 114.094 110.705 114.094 112.902 111.898C115.099 109.701 115.099 106.139 112.902 103.943L16.3819 7.42255C14.1852 5.22585 10.6236 5.22585 8.4269 7.42255Z" fill="#E0E0E0" stroke="white" stroke-width="3.75"/>
</svg>
