<svg width="29" height="25" viewBox="0 0 29 25" fill="none" xmlns="http://www.w3.org/2000/svg">
<path d="M28.1131 10.3757C28.1131 10.3477 28.1131 10.3186 28.1079 10.2896C28.1048 10.2528 28.0982 10.2163 28.0882 10.1807L25.8193 1.81053C25.6781 1.29117 25.3701 0.832577 24.9427 0.505435C24.5154 0.178292 23.9923 0.000703935 23.4541 2.14512e-06H5.36879C4.8215 -0.000722306 4.28975 0.182069 3.85854 0.519106C3.42733 0.856142 3.12155 1.328 2.99006 1.85927L0.916179 10.1931C0.90743 10.2335 0.901191 10.2744 0.897508 10.3155C0.829582 11.2364 1.08277 12.1525 1.61403 12.9078V24.0031H11.8704C11.9531 24.0031 12.0349 23.9868 12.1113 23.9552C12.1877 23.9236 12.257 23.8772 12.3155 23.8188C12.3739 23.7603 12.4203 23.691 12.4519 23.6146C12.4836 23.5382 12.4998 23.4564 12.4998 23.3737V18.1589C12.4998 18.0896 12.5274 18.0231 12.5764 17.9741C12.6254 17.9251 12.6919 17.8976 12.7612 17.8976H16.7658C16.8002 17.8975 16.8343 17.9042 16.8661 17.9172C16.898 17.9303 16.9269 17.9495 16.9513 17.9738C16.9756 17.9981 16.995 18.0269 17.0082 18.0587C17.0214 18.0905 17.0282 18.1245 17.0282 18.1589V23.3737C17.0282 23.5406 17.0945 23.7007 17.2125 23.8188C17.3306 23.9368 17.4906 24.0031 17.6576 24.0031H27.3934V12.9172C27.9039 12.1711 28.1566 11.2786 28.1131 10.3757ZM2.14598 10.4451L4.21054 2.16306C4.27459 1.90447 4.42352 1.67485 4.63351 1.51092C4.8435 1.34699 5.1024 1.25828 5.36879 1.2589H23.4541C23.716 1.25935 23.9705 1.34569 24.1786 1.50472C24.3867 1.66374 24.5369 1.88667 24.6061 2.13926L26.8573 10.4493C26.8841 11.0475 26.7243 11.6392 26.4 12.1426C26.2965 12.217 26.218 12.3212 26.175 12.4413C25.8805 12.7842 25.5037 13.0468 25.08 13.2044C24.3997 13.4793 23.6405 13.487 22.9547 13.2261C22.2688 12.9652 21.7069 12.4549 21.3812 11.7973C21.3296 11.6916 21.2494 11.6026 21.1497 11.5403C21.0499 11.4779 20.9347 11.4449 20.8171 11.4448C20.6995 11.4448 20.5843 11.4777 20.4844 11.5398C20.3846 11.6019 20.3041 11.6908 20.252 11.7963C20.0135 12.2803 19.6443 12.6878 19.1862 12.9728C18.728 13.2578 18.1992 13.4089 17.6597 13.4089C17.1201 13.4089 16.5913 13.2578 16.1331 12.9728C15.675 12.6878 15.3058 12.2803 15.0673 11.7963C15.0155 11.6908 14.9353 11.602 14.8355 11.5398C14.7358 11.4777 14.6207 11.4448 14.5032 11.4448C14.3857 11.4448 14.2706 11.4777 14.1709 11.5398C14.0712 11.602 13.9909 11.6908 13.9391 11.7963C13.7006 12.2803 13.3314 12.6878 12.8733 12.9728C12.4151 13.2578 11.8863 13.4089 11.3468 13.4089C10.8072 13.4089 10.2784 13.2578 9.82025 12.9728C9.3621 12.6878 8.99289 12.2803 8.75441 11.7963C8.70237 11.6908 8.62187 11.6019 8.52201 11.5398C8.42214 11.4777 8.30689 11.4448 8.18927 11.4448C8.07176 11.4452 7.95671 11.4784 7.85705 11.5407C7.75739 11.603 7.6771 11.6919 7.62519 11.7973C7.30832 12.4291 6.77294 12.9246 6.11845 13.1916C5.46395 13.4586 4.73481 13.479 4.0664 13.249C3.58319 13.0923 3.15262 12.8052 2.82207 12.4195C2.77918 12.3116 2.70744 12.2176 2.61469 12.1478C2.27565 11.6471 2.11093 11.0487 2.14598 10.4451ZM18.286 22.7412V18.1558C18.2857 17.7527 18.1254 17.3663 17.8404 17.0812C17.5554 16.7962 17.1689 16.636 16.7658 16.6357H12.7612C12.3582 16.6362 11.9718 16.7965 11.6868 17.0815C11.4019 17.3665 11.2415 17.7528 11.241 18.1558V22.7412H2.86873V14.0796C3.12449 14.2333 3.39688 14.3575 3.68066 14.4498C4.47012 14.7148 5.32062 14.7388 6.12376 14.5187C6.92691 14.2986 7.64632 13.8443 8.19032 13.2138C8.58039 13.6695 9.06449 14.0352 9.60936 14.286C10.1542 14.5369 10.7469 14.6667 11.3468 14.6667C11.9466 14.6667 12.5393 14.5369 13.0842 14.286C13.629 14.0352 14.1131 13.6695 14.5032 13.2138C14.8934 13.6689 15.3774 14.0343 15.922 14.2848C16.4667 14.5353 17.0591 14.665 17.6586 14.665C18.2581 14.665 18.8505 14.5353 19.3952 14.2848C19.9399 14.0343 20.4239 13.6689 20.814 13.2138C21.2001 13.6714 21.682 14.0386 22.2257 14.2895C22.7693 14.5403 23.3614 14.6687 23.9601 14.6655C24.4912 14.6641 25.0178 14.5687 25.5155 14.3834C25.731 14.3033 25.9391 14.2048 26.1377 14.089V22.7401L18.286 22.7412Z" fill="#FF9900"/>
</svg>
